<svg xmlns="http://www.w3.org/2000/svg" width="64" height="64" fill="none" viewBox="0 0 640 640"><rect width="640" height="640" fill="#11100E" rx="140"/><svg width="416" height="416" x="112" y="112" viewBox="0 0 900 760"><path fill="#F4F0E8" fill-rule="evenodd" d="M421 36.39c-.75.13-2.1.44-3 .53s-2.1.04-3 .08c-.9.05-2.1.08-3 .2s-2.1.46-3 .61-2.1.23-3 .38c-.9.16-2.1.46-3 .64-.9.17-2.1.36-3 .56-.9.19-2.1.49-3 .74-.9.24-2.1.59-3 .87-.9.29-2.1.7-3 1l-3 1-3 1c-.9.3-2.1.68-3 1.02s-2.1.84-3 1.25-2.1 1.03-3 1.48-2.1 1.04-3 1.5-2.1 1.06-3 1.56-2.1 1.28-3 1.8-2.1 1.13-3 1.66-2.1 1.27-3 1.87c-.9.61-2.1 1.54-3 2.18-.9.63-2.1 1.41-3 2.09-.9.67-2.1 1.7-3 2.42-.9.71-2.1 1.6-3 2.37s-2.1 1.97-3 2.78-2.12 1.87-2.99 2.63c-.87.77-2.03 1.66-2.81 2.47s-1.62 2.03-2.4 2.92-1.97 2.1-2.78 3-1.89 2.1-2.63 3c-.73.9-1.59 2.1-2.27 3s-1.57 2.1-2.24 3c-.66.9-1.56 2.1-2.19 3-.64.9-1.44 2.1-2.02 3s-1.34 2.1-1.86 3-1.11 2.1-1.62 3-1.29 2.1-1.8 3-1.16 2.1-1.58 3c-.41.9-.83 2.1-1.19 3-.37.9-.87 2.1-1.24 3-.36.9-.82 2.1-1.17 3s-.87 2.1-1.19 3c-.31.9-.64 2.1-.9 3-.25.9-.55 2.1-.8 3-.26.9-.7 2.1-.91 3-.2.9-.31 2.1-.47 3-.15.9-.41 2.1-.55 3s-.28 2.1-.37 3-.1 2.1-.22 3-.48 2.1-.6 3-.16 2.1-.19 3-.01 2.1-.01 3v3c0 .9-.02 2.1.01 3s.07 2.1.19 3 .48 2.1.6 3 .13 2.1.22 3 .22 2.1.37 3 .43 2.1.61 3 .44 2.1.62 3c.17.9.35 2.1.56 3s.57 2.1.82 3c.26.9.62 2.1.88 3 .25.9.54 2.1.81 3s.66 2.1.98 3 .76 2.1 1.14 3 .99 2.1 1.38 3 .81 2.1 1.2 3c.38.9.94 2.1 1.36 3 .43.9 1.05 2.1 1.5 3l1.5 3c.45.9 1.03 2.1 1.52 3s1.2 2.1 1.73 3 1.24 2.1 1.79 3 1.3 2.1 1.88 3 1.4 2.1 2 3l2 3c.6.9 1.39 2.1 2 3 .6.9 1.37 2.1 2.02 3s1.61 2.1 2.31 3c.71.9 1.66 2.1 2.38 3 .73.9 1.72 2.1 2.45 3 .72.9 1.62 2.1 2.36 3 .75.9 1.87 2.1 2.62 3 .74.9 1.68 2.1 2.36 3 .67.9 1.76 2.1 2.13 3s.57 2.15.36 2.97c-.21.83-1.07 1.91-1.77 2.56-.7.64-2.01 1.22-2.89 1.72-.88.49-2.1 1.06-3 1.56s-2.1 1.29-3 1.8c-.9.52-2.1 1.16-3 1.64-.9.47-2.1 1.03-3 1.5-.9.48-2.1 1.12-3 1.64-.9.51-2.1 1.3-3 1.8s-2.1 1.1-3 1.56-2.1 1.04-3 1.5-2.1 1.06-3 1.56-2.1 1.29-3 1.8c-.9.52-2.1 1.16-3 1.64-.9.47-2.1 1.05-3 1.5s-2.1 1.03-3 1.52-2.1 1.21-3 1.73-2.1 1.24-3 1.73-2.1 1.07-3 1.52l-3 1.5c-.9.45-2.1 1.03-3 1.52s-2.1 1.21-3 1.73-2.1 1.24-3 1.73-2.1 1.07-3 1.52l-3 1.5-3 1.5-3 1.5-3 1.5-3 1.5c-.9.45-2.1 1.08-3 1.49-.9.42-2.1 1.04-3 1.28-.9.25-2.1.43-3 .37s-2.1-.4-3-.79c-.9-.38-2.1-1.21-3-1.77-.9-.57-2.1-1.4-3-2l-3-2-3-2c-.9-.59-2.1-1.37-3-1.94s-2.1-1.24-3-1.83c-.9-.6-2.1-1.52-3-2.12-.9-.59-2.1-1.26-3-1.83s-2.1-1.35-3-1.94l-3-2-3-2c-.9-.6-2.1-1.42-3-2s-2.1-1.33-3-1.88-2.1-1.24-3-1.81-2.1-1.39-3-1.98-2.1-1.41-3-1.98-2.1-1.26-3-1.81-2.1-1.3-3-1.88-2.1-1.4-3-2l-3-2-3-2c-.9-.59-2.1-1.38-3-1.94s-2.1-1.22-3-1.78-2.1-1.35-3-1.94l-3-2-3-2-3-2-3-2-3-2-3-2c-.9-.61-2.1-1.41-3-2.06-.9-.64-2.1-1.57-3-2.24s-2.1-1.58-3-2.25-2.1-1.57-3-2.24-2.1-1.57-3-2.25-2.1-1.57-3-2.26c-.9-.7-2.1-1.66-3-2.37s-2.1-1.65-3-2.39-2.1-1.8-3-2.55-2.1-1.69-3-2.45-2.1-1.79-3-2.63c-.9-.85-2.1-2.08-3-2.98l-3-3-3-3c-.9-.9-2.13-2.1-2.98-3a78 78 0 0 1-2.63-3c-.75-.9-1.68-2.1-2.39-3s-1.67-2.1-2.37-3c-.69-.9-1.6-2.1-2.24-3s-1.45-2.1-2-3c-.54-.9-1.16-2.1-1.64-3-.47-.9-1.05-2.1-1.5-3s-1.07-2.1-1.5-3c-.42-.9-.98-2.1-1.36-3s-.84-2.1-1.18-3c-.33-.9-.79-2.1-1.07-3-.27-.9-.55-2.1-.75-3s-.39-2.1-.56-3c-.18-.9-.5-2.1-.63-3-.14-.9-.15-2.1-.27-3-.13-.9-.41-2.1-.54-3-.14-.9-.31-2.1-.37-3-.05-.9-.03-2.1-.02-3s-.01-2.1.08-3 .39-2.1.53-3 .27-2.1.39-3 .24-2.1.39-3 .42-2.1.61-3c.2-.9.44-2.1.69-3s.68-2.1.98-3c.29-.9.68-2.1 1-3s.76-2.1 1.14-3 .98-2.1 1.39-3c.4-.9.88-2.1 1.33-3s1.17-2.1 1.67-3c.49-.9 1.09-2.1 1.61-3 .53-.9 1.26-2.1 1.89-3 .62-.9 1.6-2.1 2.3-3 .71-.9 1.64-2.1 2.39-3s1.79-2.1 2.63-3c.85-.9 2.08-2.11 2.98-3s2.1-2.11 3-2.92 2.1-1.73 3-2.46c.9-.74 2.1-1.73 3-2.44s2.1-1.64 3-2.29c.9-.66 2.1-1.5 3-2.08s2.1-1.28 3-1.81 2.1-1.24 3-1.73 2.1-1.07 3-1.52 2.1-1.06 3-1.5 2.1-1.05 3-1.44 2.1-.82 3-1.14 2.1-.71 3-1c.9-.3 2.1-.72 3-.98.9-.27 2.1-.57 3-.81.9-.23 2.1-.54 3-.76s2.1-.54 3-.73c.9-.2 2.1-.39 3-.56.9-.18 2.1-.5 3-.63.9-.14 2.1-.15 3-.27.9-.13 2.1-.41 3-.54.9-.14 2.1-.31 3-.37.9-.05 2.1-.02 3-.02h6c.9 0 2.1-.01 3 0s2.1-.01 3 .08 2.1.4 3 .53c.9.14 2.1.31 3 .37.9.05 2.1.05 3 0 .9-.06 2.1-.19 3-.39.9-.21 2.1-.62 3-.99.9-.36 2.13-.89 2.99-1.44.87-.55 2.08-1.47 2.79-2.25.7-.77 1.44-2.02 1.92-2.91s.96-2.1 1.27-3c.32-.9.7-2.1.82-3s.12-2.1 0-3-.5-2.1-.82-3c-.31-.9-.79-2.1-1.27-3s-1.22-2.15-1.92-2.97c-.71-.83-1.92-1.93-2.79-2.55-.86-.63-2.09-1.28-2.99-1.64s-2.1-.6-3-.76-2.1-.15-3-.28-2.1-.48-3-.6-2.1-.16-3-.19-2.1-.01-3-.01h-18c-.9 0-2.1-.03-3 .02-.9.06-2.1.23-3 .37-.9.13-2.1.43-3 .53s-2.1.05-3 .16c-.9.1-2.1.37-3 .54-.9.16-2.1.37-3 .56s-2.1.48-3 .7-2.1.53-3 .75-2.1.52-3 .74-2.1.51-3 .76c-.9.24-2.1.59-3 .87-.9.29-2.1.7-3 1l-3 1c-.9.3-2.1.68-3 1.02s-2.1.86-3 1.24c-.9.39-2.1.97-3 1.35s-2.1.8-3 1.2-2.1.99-3 1.44-2.1 1.06-3 1.56-2.1 1.27-3 1.81c-.9.53-2.1 1.21-3 1.77s-2.1 1.35-3 1.94l-3 2c-.9.61-2.1 1.41-3 2.06-.9.64-2.1 1.57-3 2.24s-2.1 1.56-3 2.25-2.1 1.55-3 2.32-2.1 1.94-3 2.81-2.1 2.09-3 2.99-2.13 2.1-2.98 3c-.84.9-1.88 2.1-2.63 3s-1.68 2.1-2.39 3-1.67 2.1-2.37 3c-.69.9-1.6 2.1-2.24 3-.65.9-1.46 2.1-2.06 3-.59.9-1.4 2.1-1.94 3s-1.15 2.1-1.65 3c-.51.9-1.24 2.1-1.74 3-.49.9-1.17 2.1-1.59 3s-.83 2.1-1.22 3-1 2.1-1.38 3-.82 2.1-1.14 3-.71 2.1-1 3c-.3.9-.72 2.1-.98 3-.27.9-.57 2.1-.81 3-.23.9-.54 2.1-.76 3s-.55 2.1-.73 3c-.17.9-.29 2.1-.45 3-.15.9-.41 2.1-.55 3s-.3 2.1-.37 3c-.06.9.02 2.1-.04 3-.07.9-.23 2.1-.37 3-.13.9-.44 2.1-.53 3s-.08 2.1-.08 3-.01 2.1.08 3 .4 2.1.53 3c.14.9.3 2.1.37 3s0 2.1.1 3c.09.9.39 2.1.53 3 .15.9.29 2.1.45 3 .15.9.39 2.1.56 3s.35 2.1.56 3 .57 2.1.82 3c.26.9.62 2.1.88 3 .25.9.52 2.1.81 3s.75 2.1 1.1 3 .84 2.1 1.21 3 .86 2.1 1.27 3 1.03 2.1 1.48 3 1.04 2.1 1.5 3 1.05 2.1 1.56 3 1.28 2.1 1.86 3 1.4 2.1 2 3 1.39 2.1 2 3c.6.9 1.37 2.1 2.02 3s1.61 2.1 2.31 3c.71.9 1.64 2.1 2.39 3s1.8 2.1 2.63 3 2.1 2.1 2.9 3c.81.9 1.7 2.1 2.47 3 .76.9 1.79 2.13 2.63 2.98.85.84 2.08 1.87 2.98 2.63.9.77 2.1 1.66 3 2.47.9.8 2.1 2.07 3 2.9s2.1 1.87 3 2.63 2.1 1.7 3 2.45 2.1 1.81 3 2.55 2.1 1.68 3 2.39 2.1 1.67 3 2.37c.9.69 2.1 1.59 3 2.24s2.1 1.43 3 2.07c.9.65 2.1 1.54 3 2.2.9.67 2.1 1.57 3 2.24.9.66 2.1 1.56 3 2.19.9.64 2.1 1.42 3 2.02.9.61 2.1 1.4 3 2l3 2 3 2 3 2 3 2 3 2 3 2c.9.6 2.1 1.42 3 2s2.1 1.33 3 1.88 2.1 1.24 3 1.81c.9.56 2.1 1.4 3 1.96.9.57 2.1 1.26 3 1.81s2.1 1.31 3 1.88 2.1 1.38 3 1.94 2.1 1.22 3 1.78 2.1 1.35 3 1.94 2.1 1.42 3 2 2.1 1.33 3 1.88 2.1 1.25 3 1.79 2.1 1.24 3 1.79 2.1 1.3 3 1.88 2.1 1.4 3 2l3 2c.9.59 2.1 1.38 3 1.94s2.14 1.21 2.99 1.78c.86.57 2.12 1.33 2.7 2.02.58.7 1.08 1.8 1.17 2.61.09.8-.13 2.05-.56 2.76-.43.7-1.54 1.42-2.33 1.94-.8.53-2.07 1.07-2.97 1.55s-2.1 1.19-3 1.67c-.9.49-2.1 1.08-3 1.57s-2.1 1.2-3 1.68c-.9.49-2.1 1.1-3 1.56s-2.1 1.05-3 1.5-2.1 1.03-3 1.5c-.9.48-2.1 1.12-3 1.64-.9.51-2.1 1.3-3 1.8s-2.1 1.08-3 1.56-2.1 1.12-3 1.64-2.1 1.28-3 1.82-2.1 1.25-3 1.79-2.1 1.25-3 1.79-2.1 1.29-3 1.83-2.1 1.21-3 1.77-2.1 1.35-3 1.94l-3 2-3 2-3 2-3 2-3 2-3 2c-.9.61-2.1 1.41-3 2.06-.9.64-2.1 1.55-3 2.24-.9.7-2.1 1.66-3 2.37s-2.1 1.66-3 2.38c-.9.73-2.1 1.73-3 2.45-.9.71-2.1 1.63-3 2.34-.9.72-2.1 1.71-3 2.45-.9.73-2.1 1.66-3 2.46s-2.1 2.07-3 2.9-2.1 1.87-3 2.63c-.9.77-2.1 1.66-3 2.47s-2.1 2.03-3 2.92-2.1 2.1-3 3l-3 3-3 3-3 3c-.9.9-2.12 2.1-2.99 3s-2.03 2.1-2.81 3-1.63 2.1-2.4 3-1.95 2.1-2.73 3c-.77.9-1.71 2.1-2.46 3s-1.81 2.1-2.55 3c-.75.9-1.71 2.1-2.44 3-.74.9-1.73 2.1-2.44 3s-1.62 2.1-2.3 3-1.58 2.1-2.25 3-1.6 2.1-2.24 3c-.65.9-1.45 2.1-2.06 3l-2 3c-.59.9-1.38 2.1-1.94 3s-1.23 2.1-1.77 3-1.29 2.1-1.83 3-1.25 2.1-1.79 3-1.25 2.1-1.79 3-1.3 2.1-1.82 3-1.16 2.1-1.64 3c-.47.9-1.05 2.1-1.5 3l-1.5 3c-.45.9-1.06 2.1-1.5 3s-1.04 2.1-1.44 3-.81 2.1-1.2 3c-.38.9-.94 2.1-1.36 3s-1.05 2.1-1.44 3-.81 2.1-1.14 3-.72 2.1-1.06 3-.88 2.1-1.22 3-.75 2.1-1.06 3l-1 3c-.29.9-.68 2.1-.94 3s-.52 2.1-.78 3c-.25.9-.67 2.1-.93 3-.25.9-.57 2.1-.8 3s-.51 2.1-.7 3-.39 2.1-.56 3c-.18.9-.44 2.1-.62 3s-.45 2.1-.61 3-.3 2.1-.45 3-.41 2.1-.55 3-.3 2.1-.37 3c-.06.9.02 2.1-.04 3-.07.9-.23 2.1-.37 3-.13.9-.44 2.1-.53 3s-.07 2.1-.08 3-.01 2.1 0 3-.01 2.1.08 3 .4 2.1.53 3c.14.9.3 2.1.37 3 .06.9-.02 2.1.04 3 .07.9.23 2.1.37 3s.4 2.1.55 3 .29 2.1.45 3 .42 2.1.61 3 .43 2.1.63 3c.21.9.52 2.1.74 3s.51 2.1.76 3c.24.9.59 2.1.87 3 .29.9.7 2.1 1 3s.69 2.1 1.02 3 .83 2.1 1.19 3 .8 2.1 1.18 3 .94 2.1 1.36 3c.43.9 1.05 2.1 1.5 3l1.5 3c.45.9 1.04 2.1 1.5 3s1.05 2.1 1.56 3 1.28 2.1 1.86 3 1.38 2.1 2.02 3c.63.9 1.52 2.1 2.19 3s1.59 2.1 2.3 3 1.7 2.1 2.44 3c.73.9 1.65 2.1 2.46 3s2.03 2.1 2.92 3 2.1 2.1 3 3 2.1 2.12 3 2.99 2.1 2.03 3 2.81 2.1 1.65 3 2.37c.9.73 2.1 1.74 3 2.44.9.71 2.1 1.61 3 2.26.9.66 2.1 1.52 3 2.11.9.58 2.1 1.26 3 1.81s2.1 1.29 3 1.83c.9.53 2.1 1.23 3 1.76.9.54 2.1 1.31 3 1.81s2.1 1.11 3 1.56 2.1 1.04 3 1.44 2.1.82 3 1.2 2.1.96 3 1.35c.9.38 2.1.9 3 1.24s2.1.72 3 1.02l3 1 3 1c.9.3 2.1.71 3 1 .9.28 2.1.63 3 .87.9.25 2.1.54 3 .76s2.1.53 3 .74c.9.2 2.1.44 3 .63s2.1.44 3 .62c.9.17 2.1.38 3 .55.9.18 2.1.48 3 .64.9.15 2.1.23 3 .38s2.1.49 3 .61 2.1.13 3 .22 2.1.23 3 .37c.9.13 2.1.44 3 .53s2.1.07 3 .08 2.1 0 3 0 2.1-.03 3 .02c.9.06 2.1.23 3 .37.9.13 2.1.44 3 .53s2.1.07 3 .08 2.1 0 3 0h3c.9 0 2.1.03 3-.02.9-.06 2.1-.23 3-.37.9-.13 2.1-.44 3-.53s2.1-.07 3-.08 2.1 0 3 0 2.1.03 3-.02c.9-.06 2.1-.23 3-.37.9-.13 2.1-.43 3-.53s2.1-.06 3-.16 2.1-.4 3-.53c.9-.14 2.1-.28 3-.37s2.1-.09 3-.22 2.1-.45 3-.63c.9-.17 2.1-.38 3-.55.9-.18 2.1-.44 3-.62s2.1-.44 3-.62c.9-.17 2.1-.37 3-.55.9-.19 2.1-.47 3-.66.9-.18 2.1-.35 3-.58.9-.22 2.1-.65 3-.91.9-.25 2.1-.55 3-.8.9-.26 2.1-.62 3-.88s2.1-.62 3-.88c.9-.25 2.1-.54 3-.81.9-.26 2.1-.68 3-.98.9-.29 2.1-.68 3-1s2.1-.77 3-1.12 2.1-.85 3-1.21 2.1-.85 3-1.21 2.1-.8 3-1.18 2.1-.95 3-1.35c.9-.39 2.1-.88 3-1.26s2.1-.89 3-1.26c.9-.38 2.1-1.01 3-1.27.9-.25 2.1-.42 3-.42s2.1.17 3 .42c.9.26 2.1.87 3 1.29.9.41 2.1 1.06 3 1.49.9.42 2.1.98 3 1.36s2.1.82 3 1.18 2.1.85 3 1.21 2.1.86 3 1.21 2.1.8 3 1.12 2.1.7 3 1l3 1c.9.3 2.1.71 3 1 .9.3 2.1.72 3 .98.9.27 2.1.57 3 .81.9.23 2.1.53 3 .76.9.24 2.1.55 3 .8.9.26 2.1.68 3 .93s2.1.55 3 .76c.9.2 2.1.44 3 .63s2.1.44 3 .62c.9.17 2.1.37 3 .55.9.19 2.1.47 3 .66.9.18 2.1.39 3 .55.9.17 2.1.42 3 .55.9.12 2.1.14 3 .27s2.1.47 3 .6 2.1.15 3 .27c.9.13 2.1.41 3 .54.9.14 2.1.3 3 .37s2.1 0 3 .1c.9.09 2.1.4 3 .53.9.14 2.1.31 3 .37.9.05 2.1.02 3 .02h3c.9 0 2.1-.01 3 0s2.1-.01 3 .08 2.1.4 3 .53c.9.14 2.1.31 3 .37.9.05 2.1.02 3 .02s2.1.02 3-.01 2.1-.07 3-.19 2.1-.48 3-.6 2.1-.16 3-.19 2.1-.01 3-.01 2.1.01 3 0 2.1.01 3-.08 2.1-.4 3-.53c.9-.14 2.1-.3 3-.37s2.1 0 3-.1c.9-.09 2.1-.39 3-.53.9-.15 2.1-.29 3-.45.9-.15 2.1-.39 3-.56.9-.16 2.1-.37 3-.55.9-.19 2.1-.47 3-.66.9-.18 2.1-.36 3-.56.9-.19 2.1-.51 3-.73s2.1-.53 3-.76 2.1-.52 3-.75 2.1-.5 3-.76c.9-.25 2.1-.65 3-.94l3-1c.9-.31 2.1-.72 3-1.06s2.1-.87 3-1.23 2.1-.81 3-1.17 2.1-.84 3-1.21 2.1-.86 3-1.27 2.1-1.03 3-1.48l3-1.5 3-1.5c.9-.45 2.1-1.04 3-1.5s2.1-1.06 3-1.56 2.1-1.27 3-1.81c.9-.53 2.1-1.21 3-1.77s2.1-1.35 3-1.94c.9-.6 2.1-1.39 3-2 .9-.62 2.1-1.4 3-2.08.9-.67 2.1-1.7 3-2.42.9-.71 2.1-1.63 3-2.34.9-.72 2.1-1.71 3-2.45.9-.73 2.1-1.65 3-2.46s2.1-2.03 3-2.92 2.11-2.1 3-3 2.11-2.1 2.92-3 1.71-2.1 2.47-3c.75-.9 1.81-2.1 2.55-3 .75-.9 1.72-2.1 2.42-3 .71-.9 1.59-2.1 2.27-3s1.59-2.1 2.24-3c.66-.9 1.52-2.1 2.11-3 .58-.9 1.26-2.1 1.81-3s1.29-2.1 1.83-3c.53-.9 1.23-2.1 1.76-3 .54-.9 1.31-2.1 1.81-3s1.1-2.1 1.56-3 1.05-2.1 1.5-3 1.07-2.1 1.48-3 .9-2.1 1.27-3 .86-2.1 1.21-3 .79-2.1 1.12-3 .72-2.1 1.06-3 .89-2.1 1.22-3 .73-2.1 1-3 .52-2.1.78-3c.25-.9.67-2.1.93-3 .25-.9.57-2.1.8-3s.51-2.1.7-3 .4-2.1.56-3c.17-.9.41-2.1.56-3 .16-.9.3-2.1.45-3 .14-.9.43-2.1.53-3s.06-2.1.16-3 .4-2.1.53-3c.14-.9.31-2.1.37-3 .05-.9.02-2.1.02-3v-18c0-.9.01-2.1 0-3s.01-2.1-.08-3-.4-2.1-.53-3c-.14-.9-.28-2.1-.37-3s-.1-2.1-.22-3-.47-2.1-.6-3-.15-2.1-.27-3c-.13-.9-.37-2.1-.57-3-.19-.9-.51-2.1-.73-3s-.52-2.1-.75-3-.53-2.1-.76-3-.52-2.1-.75-3-.5-2.1-.76-3c-.25-.9-.65-2.1-.94-3l-1-3-1-3-1-3c-.31-.9-.72-2.1-1.06-3s-.87-2.1-1.23-3-.81-2.1-1.17-3-.84-2.1-1.21-3-.87-2.1-1.26-3c-.4-.9-.97-2.1-1.35-3s-.8-2.1-1.2-3-.99-2.1-1.44-3-1.06-2.1-1.56-3-1.29-2.1-1.8-3c-.52-.9-1.16-2.1-1.64-3-.47-.9-1.03-2.1-1.5-3-.48-.9-1.12-2.1-1.64-3s-1.28-2.1-1.82-3-1.24-2.1-1.81-3c-.56-.9-1.4-2.1-1.96-3-.57-.9-1.26-2.1-1.81-3s-1.3-2.1-1.88-3-1.4-2.1-2-3-1.39-2.1-2-3c-.6-.9-1.38-2.1-2.02-3-.63-.9-1.53-2.1-2.19-3-.67-.9-1.57-2.1-2.24-3s-1.57-2.1-2.25-3-1.57-2.1-2.26-3c-.7-.9-1.66-2.1-2.37-3s-1.66-2.1-2.38-3c-.73-.9-1.72-2.1-2.45-3-.72-.9-1.62-2.1-2.36-3-.75-.9-1.87-2.1-2.62-3s-1.63-2.1-2.38-3-1.87-2.1-2.62-3-1.61-2.1-2.39-3-1.99-2.1-2.78-3c-.8-.9-1.96-2.1-2.52-3s-1.12-2.1-1.24-3 .03-2.14.45-2.98c.41-.83 1.53-1.9 2.32-2.61.8-.7 2.07-1.46 2.97-2.08.9-.61 2.1-1.4 3-2l3-2c.9-.6 2.1-1.39 3-2 .9-.6 2.1-1.38 3-2.02.9-.63 2.1-1.54 3-2.19.9-.64 2.1-1.5 3-2.12.9-.61 2.1-1.4 3-2s2.1-1.39 3-2c.9-.62 2.1-1.48 3-2.12.9-.65 2.1-1.56 3-2.2.9-.63 2.1-1.42 3-2.07s2.1-1.57 3-2.24 2.1-1.59 3-2.24c.9-.66 2.1-1.49 3-2.13s2.1-1.47 3-2.13c.9-.65 2.1-1.56 3-2.24s2.1-1.57 3-2.26c.9-.7 2.1-1.66 3-2.37s2.1-1.67 3-2.37c.9-.69 2.1-1.56 3-2.27.9-.7 2.1-1.67 3-2.42.9-.74 2.1-1.8 3-2.55s2.1-1.69 3-2.46c.9-.78 2.1-1.96 3-2.73s2.1-1.62 3-2.4 2.1-1.96 3-2.8 2.1-2.02 3-2.8 2.1-1.62 3-2.4 2.1-1.94 3-2.81 2.1-2.09 3-2.99l3-3c.9-.9 2.1-2.12 3-2.99s2.11-2.03 3-2.81 2.11-1.62 2.92-2.4 1.7-1.94 2.47-2.81c.76-.87 1.79-2.09 2.63-2.99.85-.9 2.08-2.1 2.98-3l3-3 3-3 3-3c.9-.9 2.12-2.1 2.99-3s2.03-2.1 2.81-3 1.62-2.1 2.4-3 1.95-2.1 2.8-3c.86-.9 2.11-2.1 2.92-3s1.71-2.1 2.47-3 1.83-2.1 2.61-3 1.85-2.1 2.61-3 1.7-2.1 2.45-3 1.8-2.1 2.55-3 1.7-2.1 2.45-3c.74-.9 1.82-2.1 2.55-3 .72-.9 1.58-2.1 2.27-3s1.58-2.1 2.31-3c.74-.9 1.87-2.1 2.62-3s1.63-2.1 2.38-3 1.88-2.1 2.62-3c.73-.9 1.62-2.1 2.31-3 .68-.9 1.57-2.1 2.25-3s1.57-2.1 2.26-3c.7-.9 1.66-2.1 2.37-3s1.66-2.1 2.38-3c.73-.9 1.73-2.1 2.44-3s1.62-2.1 2.3-3 1.57-2.1 2.25-3 1.58-2.1 2.26-3 1.57-2.1 2.25-3 1.59-2.1 2.3-3c.7-.9 1.74-2.1 2.41-3 .68-.9 1.45-2.1 2.09-3 .65-.9 1.54-2.1 2.2-3 .67-.9 1.57-2.1 2.24-3s1.57-2.1 2.25-3 1.58-2.1 2.26-3 1.59-2.1 2.24-3c.66-.9 1.49-2.1 2.13-3s1.47-2.1 2.13-3c.65-.9 1.56-2.1 2.24-3s1.58-2.1 2.26-3 1.58-2.1 2.25-3 1.57-2.1 2.24-3 1.58-2.1 2.25-3 1.59-2.1 2.24-3 1.43-2.1 2.07-3c.65-.9 1.54-2.1 2.2-3 .67-.9 1.57-2.1 2.24-3 .66-.9 1.55-2.1 2.2-3 .64-.9 1.42-2.1 2.07-3s1.57-2.1 2.24-3 1.59-2.1 2.24-3c.66-.9 1.49-2.1 2.13-3s1.47-2.1 2.13-3c.65-.9 1.57-2.1 2.24-3s1.59-2.1 2.24-3 1.43-2.1 2.07-3c.65-.9 1.54-2.1 2.2-3 .67-.9 1.57-2.1 2.24-3s1.57-2.1 2.25-3 1.58-2.1 2.26-3 1.58-2.1 2.25-3 1.58-2.1 2.24-3 1.59-2.1 2.19-3 1.38-2.1 1.8-3 .75-2.1 1-3 .59-2.1.67-3c.07-.9-.04-2.1-.18-3s-.44-2.1-.75-3c-.32-.9-.77-2.11-1.35-3s-1.7-2.14-2.53-2.91c-.82-.78-2.07-1.71-2.97-2.25s-2.1-1.09-3-1.36c-.9-.28-2.1-.38-3-.45-.9-.08-2.1-.03-3-.03H556c-.9 0-2.1-.03-3 .01-.9.03-2.1.04-3 .2-.9.15-2.1.48-3 .82s-2.11.87-3 1.46c-.89.6-2.14 1.71-2.91 2.54-.78.82-1.71 2.07-2.25 2.97s-1.09 2.1-1.36 3c-.28.9-.4 2.1-.45 3-.06.9-.07 2.1.06 3 .12.9.39 2.1.75 3s1.01 2.13 1.64 2.99c.62.87 1.72 2.08 2.55 2.79.82.7 2.07 1.47 2.97 1.92s2.1.88 3 1.08c.9.19 2.1.18 3 .21.9.04 2.1.01 3 .01h165c.9 0 2.12-.04 3 .01.88.04 2.19-.02 2.89.3s1.55 1.1 1.77 1.8.02 2.01-.29 2.89c-.3.88-1.17 2.1-1.77 3-.59.9-1.57 2.1-2.21 3s-1.43 2.1-2.07 3c-.65.9-1.54 2.1-2.2 3-.67.9-1.57 2.1-2.24 3s-1.58 2.1-2.25 3-1.59 2.1-2.24 3-1.43 2.1-2.07 3c-.65.9-1.54 2.1-2.2 3-.67.9-1.57 2.1-2.24 3s-1.58 2.1-2.25 3-1.59 2.1-2.24 3-1.42 2.1-2.08 3-1.61 2.1-2.31 3-1.67 2.1-2.37 3c-.69.9-1.59 2.1-2.24 3s-1.43 2.1-2.07 3c-.65.9-1.54 2.1-2.2 3-.67.9-1.57 2.1-2.24 3s-1.57 2.1-2.25 3-1.58 2.1-2.26 3-1.58 2.1-2.25 3-1.56 2.1-2.24 3-1.56 2.1-2.27 3c-.7.9-1.72 2.1-2.43 3s-1.61 2.1-2.3 3c-.68.9-1.56 2.1-2.27 3-.7.9-1.72 2.1-2.44 3-.71.9-1.63 2.1-2.34 3-.72.9-1.74 2.1-2.44 3-.71.9-1.59 2.1-2.27 3-.69.9-1.59 2.1-2.3 3s-1.7 2.1-2.44 3c-.73.9-1.69 2.1-2.44 3-.74.9-1.81 2.1-2.55 3s-1.67 2.1-2.39 3-1.64 2.1-2.39 3-1.83 2.1-2.61 3-1.85 2.1-2.61 3-1.7 2.1-2.45 3-1.8 2.1-2.55 3-1.69 2.1-2.46 3c-.78.9-1.96 2.1-2.73 3s-1.62 2.1-2.4 3-1.96 2.1-2.8 3-2.02 2.1-2.8 3-1.62 2.1-2.4 3-1.94 2.1-2.81 3-2.09 2.1-2.99 3-2.13 2.1-2.98 3c-.84.9-1.87 2.1-2.63 3-.77.9-1.66 2.1-2.47 3s-2.03 2.1-2.92 3-2.1 2.1-3 3l-3 3-3 3-3 3c-.9.9-2.1 2.13-3 2.98-.9.84-2.1 1.87-3 2.63-.9.77-2.1 1.66-3 2.47s-2.1 2.03-3 2.92-2.1 2.11-3 3-2.1 2.11-3 2.92-2.1 1.7-3 2.47c-.9.76-2.1 1.8-3 2.63s-2.1 2.1-3 2.9c-.9.81-2.1 1.71-3 2.47s-2.1 1.83-3 2.61-2.1 1.85-3 2.61-2.1 1.69-3 2.46c-.9.78-2.1 1.97-3 2.73-.9.77-2.1 1.65-3 2.37-.9.73-2.1 1.71-3 2.45-.9.73-2.1 1.69-3 2.44-.9.74-2.1 1.81-3 2.55s-2.1 1.67-3 2.39-2.1 1.66-3 2.38c-.9.73-2.1 1.73-3 2.45-.9.71-2.1 1.63-3 2.34-.9.72-2.1 1.74-3 2.44-.9.71-2.1 1.59-3 2.27s-2.1 1.57-3 2.24c-.9.66-2.1 1.55-3 2.2-.9.64-2.1 1.42-3 2.07-.9.64-2.1 1.58-3 2.22s-2.1 1.45-3 2.06l-3 2-3 2-3 2c-.9.59-2.1 1.38-3 1.94s-2.1 1.23-3 1.78-2.1 1.42-3 1.91c-.9.5-2.12 1.23-2.99 1.38s-2.03.02-2.81-.39c-.78-.4-1.62-1.53-2.4-2.32-.78-.8-1.94-2.07-2.81-2.97s-2.09-2.1-2.99-3l-3-3-3-3-3-3-3-3-3-3-3-3-3-3-3-3-3-3-3-3-3-3c-.9-.9-2.1-2.13-3-2.98-.9-.84-2.1-1.87-3-2.63-.9-.77-2.1-1.66-3-2.47s-2.1-2.03-3-2.92-2.1-2.1-3-3-2.1-2.13-3-2.98c-.9-.84-2.1-1.87-3-2.63-.9-.77-2.14-1.66-2.99-2.47-.86-.81-2.13-2.04-2.7-2.92-.57-.89-1.09-2.15-1.09-2.97 0-.83.52-1.91 1.09-2.56.57-.64 1.84-1.21 2.7-1.73.85-.53 2.09-1.21 2.99-1.74s2.1-1.25 3-1.79 2.1-1.29 3-1.83c.9-.53 2.1-1.23 3-1.76.9-.54 2.1-1.28 3-1.83.9-.54 2.1-1.24 3-1.81s2.1-1.39 3-1.98 2.1-1.41 3-1.98 2.1-1.26 3-1.81 2.1-1.3 3-1.88 2.1-1.39 3-2c.9-.6 2.1-1.38 3-2.02.9-.63 2.1-1.54 3-2.19.9-.64 2.1-1.48 3-2.12s2.1-1.47 3-2.13c.9-.65 2.1-1.56 3-2.24s2.1-1.58 3-2.26 2.1-1.57 3-2.25 2.1-1.59 3-2.3 2.1-1.7 3-2.44c.9-.73 2.1-1.66 3-2.46.9-.79 2.1-2.04 3-2.84s2.1-1.7 3-2.47c.9-.76 2.1-1.79 3-2.63.9-.85 2.1-2.08 3-2.98l3-3c.9-.9 2.11-2.1 3-3s2.11-2.1 2.92-3 1.71-2.1 2.47-3 1.83-2.1 2.61-3 1.87-2.1 2.61-3c.73-.9 1.61-2.1 2.26-3 .66-.9 1.51-2.1 2.13-3 .61-.9 1.4-2.1 2-3s1.42-2.1 1.98-3 1.25-2.1 1.75-3c.51-.9 1.16-2.1 1.64-3s1.14-2.1 1.57-3 .91-2.1 1.33-3 1.05-2.1 1.46-3 .91-2.1 1.25-3 .73-2.1 1.02-3c.28-.9.63-2.1.87-3 .25-.9.54-2.1.76-3s.54-2.1.73-3c.2-.9.43-2.1.58-3 .16-.9.3-2.1.45-3 .14-.9.44-2.1.53-3s.07-2.1.08-3 0-2.1 0-3v-6c0-.9.02-2.1-.01-3s-.07-2.1-.19-3-.45-2.1-.63-3c-.17-.9-.38-2.1-.55-3-.18-.9-.43-2.1-.62-3-.2-.9-.44-2.1-.69-3s-.68-2.1-.98-3c-.29-.9-.7-2.1-1-3s-.68-2.1-1-3-.75-2.1-1.14-3-1-2.1-1.44-3-1.03-2.1-1.5-3c-.48-.9-1.12-2.1-1.64-3s-1.26-2.1-1.82-3c-.57-.9-1.31-2.1-1.93-3-.63-.9-1.56-2.1-2.23-3s-1.56-2.1-2.27-3c-.7-.9-1.63-2.1-2.44-3-.8-.9-2.03-2.1-2.92-3s-2.1-2.13-3-2.98c-.9-.84-2.1-1.89-3-2.63-.9-.73-2.1-1.61-3-2.26-.9-.66-2.1-1.51-3-2.13-.9-.61-2.1-1.4-3-2s-2.1-1.42-3-1.98-2.1-1.26-3-1.75-2.1-1.07-3-1.52-2.1-1.07-3-1.48-2.1-.91-3-1.25-2.1-.71-3-1.04-2.1-.85-3-1.17-2.1-.66-3-.93-2.1-.62-3-.88c-.9-.25-2.1-.61-3-.82s-2.1-.39-3-.56-2.1-.41-3-.56c-.9-.16-2.1-.3-3-.45-.9-.14-2.1-.44-3-.53s-2.1-.04-3-.08c-.9-.05-2.1-.08-3-.2s-2.1-.48-3-.6-2.1-.16-3-.19-2.1-.01-3-.01-2.1-.01-3 0-2.25.02-3 .08-1.25.18-2 .31M257 343.84c.6-.16 2.1-.7 3-.64.9.05 2.1.55 3 1.03s2.1 1.47 3 2.16 2.1 1.71 3 2.44c.9.72 2.1 1.62 3 2.36.9.75 2.1 1.87 3 2.62s2.1 1.62 3 2.39 2.1 1.95 3 2.73c.9.77 2.1 1.69 3 2.46.9.76 2.1 1.79 3 2.63.9.85 2.1 2.08 3 2.98l3 3 3 3 3 3 3 3c.9.9 2.11 2.1 3 3s2.11 2.1 2.92 3 1.71 2.1 2.47 3c.75.9 1.81 2.1 2.55 3 .75.9 1.71 2.1 2.44 3 .74.9 1.73 2.1 2.44 3s1.62 2.1 2.3 3 1.58 2.1 2.25 3 1.59 2.1 2.24 3 1.44 2.1 2.07 3c.64.9 1.57 2.1 2.18 3 .6.9 1.41 2.1 1.84 3s.95 2.11 1.04 3-.03 2.12-.45 2.92c-.41.8-1.53 1.72-2.32 2.39-.8.67-2.07 1.43-2.97 2.08-.9.64-2.1 1.58-3 2.22s-2.1 1.44-3 2.06c-.9.61-2.1 1.37-3 2.02s-2.1 1.61-3 2.31-2.1 1.67-3 2.37c-.9.69-2.1 1.57-3 2.26-.9.7-2.1 1.66-3 2.37s-2.1 1.67-3 2.37c-.9.69-2.1 1.56-3 2.27-.9.7-2.1 1.67-3 2.42-.9.74-2.1 1.8-3 2.55-.9.76-2.1 1.66-3 2.47-.9.8-2.1 2.07-3 2.9s-2.1 1.87-3 2.63c-.9.77-2.1 1.66-3 2.47s-2.1 2.03-3 2.92-2.1 2.1-3 3l-3 3c-.9.9-2.12 2.1-2.99 3s-2.03 2.1-2.81 3-1.62 2.1-2.4 3-1.97 2.1-2.78 3-1.88 2.1-2.63 3-1.68 2.1-2.39 3-1.67 2.1-2.37 3c-.69.9-1.58 2.1-2.26 3s-1.59 2.1-2.24 3c-.66.9-1.51 2.1-2.13 3-.61.9-1.4 2.1-2 3s-1.42 2.1-1.98 3-1.24 2.1-1.76 3c-.51.9-1.13 2.1-1.65 3s-1.3 2.1-1.8 3-1.1 2.1-1.56 3-1.05 2.1-1.5 3-1.07 2.1-1.48 3-.9 2.1-1.27 3-.86 2.1-1.21 3-.8 2.1-1.12 3-.71 2.1-1 3c-.3.9-.72 2.1-.98 3-.27.9-.58 2.1-.81 3-.22.9-.52 2.1-.69 3-.16.9-.23 2.1-.38 3s-.49 2.1-.61 3-.16 2.1-.19 3-.01 2.1-.01 3v9c0 .9-.03 2.1.02 3 .06.9.22 2.1.37 3s.42 2.1.61 3 .43 2.1.63 3c.21.9.51 2.1.74 3s.5 2.1.77 3c.28.9.74 2.1 1.07 3 .34.9.8 2.1 1.18 3s.94 2.1 1.36 3c.43.9 1.04 2.1 1.5 3s1.06 2.1 1.56 3 1.26 2.1 1.81 3c.54.9 1.22 2.1 1.83 3 .6.9 1.52 2.1 2.18 3 .67.9 1.57 2.1 2.25 3 .69.9 1.55 2.1 2.32 3s1.94 2.1 2.81 3 2.1 2.1 2.99 3 2.17 2.1 2.97 3c.79.9 1.9 2.1 2.33 3s.65 2.16.56 2.97-.59 1.86-1.17 2.41-1.84.95-2.7 1.28c-.85.33-2.09.69-2.99.95s-2.1.52-3 .78c-.9.25-2.1.67-3 .93-.9.25-2.1.56-3 .8-.9.23-2.1.54-3 .76s-2.1.54-3 .73c-.9.2-2.1.39-3 .56-.9.18-2.1.48-3 .64-.9.15-2.1.23-3 .38s-2.1.47-3 .62-2.1.23-3 .38-2.1.49-3 .61-2.1.14-3 .2-2.1.08-3 .2-2.1.48-3 .6-2.1.16-3 .19-2.1.01-3 .01h-24c-.9 0-2.1.03-3-.02-.9-.06-2.1-.23-3-.37-.9-.13-2.1-.41-3-.54-.9-.12-2.1-.14-3-.27s-2.1-.46-3-.61-2.1-.23-3-.38c-.9-.16-2.1-.46-3-.64-.9-.17-2.1-.36-3-.56-.9-.19-2.1-.51-3-.73s-2.1-.53-3-.76c-.9-.24-2.1-.54-3-.81-.9-.26-2.1-.68-3-.98-.9-.29-2.1-.68-3-1s-2.1-.77-3-1.12-2.1-.84-3-1.21-2.1-.86-3-1.27-2.1-1.03-3-1.48-2.1-1.03-3-1.52-2.1-1.19-3-1.75-2.1-1.38-3-1.98-2.1-1.38-3-2.01c-.9-.62-2.1-1.48-3-2.17s-2.1-1.7-3-2.44c-.9-.73-2.1-1.65-3-2.46s-2.13-2.03-2.98-2.92c-.84-.89-1.87-2.1-2.63-3s-1.7-2.1-2.45-3c-.74-.9-1.84-2.1-2.53-3s-1.47-2.1-2.08-3c-.6-.9-1.4-2.1-1.94-3-.53-.9-1.16-2.1-1.64-3-.47-.9-1.05-2.1-1.5-3l-1.5-3c-.45-.9-1.07-2.1-1.48-3s-.91-2.1-1.25-3-.73-2.1-1.02-3c-.28-.9-.63-2.1-.87-3-.25-.9-.54-2.1-.76-3s-.54-2.1-.73-3c-.2-.9-.43-2.1-.58-3-.16-.9-.3-2.1-.45-3-.14-.9-.44-2.1-.53-3s-.07-2.1-.08-3 0-2.1 0-3v-12c0-.9-.02-2.1.01-3s.07-2.1.19-3 .47-2.1.6-3 .15-2.1.27-3c.13-.9.38-2.1.55-3 .16-.9.37-2.1.56-3s.47-2.1.7-3 .55-2.1.8-3c.26-.9.67-2.1.93-3 .27-.9.54-2.1.84-3s.83-2.1 1.16-3c.34-.9.73-2.1 1.06-3s.77-2.1 1.12-3 .84-2.1 1.21-3 .86-2.1 1.27-3 1.04-2.1 1.48-3 1.04-2.1 1.44-3 .81-2.1 1.2-3 .94-2.1 1.42-3c.49-.9 1.28-2.1 1.8-3s1.14-2.1 1.65-3c.52-.9 1.2-2.1 1.76-3s1.4-2.1 1.96-3c.57-.9 1.25-2.1 1.81-3s1.29-2.1 1.9-3 1.54-2.1 2.19-3c.64-.9 1.48-2.1 2.12-3s1.47-2.1 2.13-3c.65-.9 1.55-2.1 2.26-3 .7-.9 1.71-2.1 2.44-3 .72-.9 1.62-2.1 2.36-3 .75-.9 1.87-2.1 2.62-3s1.61-2.1 2.39-3 1.97-2.1 2.78-3 1.87-2.1 2.63-3c.77-.9 1.66-2.1 2.47-3s2.03-2.1 2.92-3 2.1-2.1 3-3l3-3 3-3 3-3 3-3 3-3c.9-.9 2.1-2.12 3-2.99s2.1-2.03 3-2.81 2.1-1.62 3-2.4 2.1-1.96 3-2.8 2.1-2.03 3-2.8 2.1-1.63 3-2.32 2.1-1.56 3-2.27c.9-.7 2.1-1.72 3-2.43s2.1-1.62 3-2.3 2.1-1.58 3-2.25 2.1-1.6 3-2.24c.9-.65 2.1-1.45 3-2.06l3-2c.9-.6 2.1-1.39 3-2 .9-.6 2.1-1.39 3-2.02.9-.62 2.1-1.55 3-2.17.9-.61 2.1-1.36 3-1.93.9-.56 2.1-1.28 3-1.83.9-.54 2.1-1.21 3-1.77s2.1-1.37 3-1.94 2.1-1.34 3-1.86 2.1-1.11 3-1.62 2.1-1.27 3-1.81c.9-.53 2.1-1.23 3-1.76.9-.54 2.1-1.29 3-1.83s2.1-1.26 3-1.79 2.1-1.23 3-1.74c.9-.5 2.1-1.13 3-1.65s2.1-1.29 3-1.8 2.1-1.11 3-1.62 2.1-1.28 3-1.8 2.1-1.15 3-1.65c.9-.51 2.1-1.22 3-1.74s2.4-1.38 3-1.7c.6-.33.4-.29 1-.46m210 30.06c.75-.27 2.1-.77 3-.7.9.06 2.12.54 2.99 1.11s2.03 1.84 2.81 2.7c.78.85 1.65 2.09 2.37 2.99.73.9 1.74 2.1 2.44 3 .71.9 1.59 2.1 2.27 3s1.57 2.1 2.24 3c.66.9 1.55 2.1 2.2 3 .64.9 1.41 2.1 2.09 3 .67.9 1.72 2.1 2.41 3s1.53 2.1 2.18 3c.64.9 1.48 2.1 2.12 3 .65.9 1.56 2.1 2.2 3 .63.9 1.42 2.1 2.07 3 .64.9 1.58 2.1 2.22 3s1.45 2.1 2.06 3l2 3c.59.9 1.38 2.1 1.94 3s1.22 2.1 1.78 3 1.37 2.1 1.94 3 1.35 2.1 1.86 3 1.1 2.1 1.56 3 1.05 2.1 1.5 3l1.5 3 1.5 3c.45.9 1.07 2.1 1.48 3s.89 2.1 1.27 3 .87 2.1 1.26 3c.4.9.97 2.1 1.35 3s.82 2.1 1.18 3 .85 2.1 1.21 3 .87 2.1 1.19 3 .65 2.1.93 3c.27.9.59 2.1.9 3 .32.9.85 2.1 1.19 3s.81 2.1 1.1 3 .57 2.1.81 3 .53 2.1.76 3 .53 2.1.75 3 .52 2.1.74 3 .53 2.1.75 3 .51 2.1.7 3 .4 2.1.56 3c.17.9.44 2.1.54 3s.03 2.1.1 3 .23 2.1.37 3c.13.9.44 2.1.53 3s.07 2.1.08 3 0 2.1 0 3v12c0 .9.02 2.1-.01 3s-.07 2.1-.19 3-.48 2.1-.6 3-.13 2.1-.22 3-.22 2.1-.37 3-.42 2.1-.61 3-.43 2.1-.63 3c-.21.9-.51 2.1-.76 3s-.66 2.1-.93 3c-.26.9-.55 2.1-.8 3-.26.9-.6 2.1-.88 3-.29.9-.69 2.1-1.02 3s-.83 2.1-1.19 3-.8 2.1-1.18 3-.94 2.1-1.36 3c-.43.9-1.05 2.1-1.5 3l-1.5 3c-.45.9-1.03 2.1-1.52 3s-1.19 2.1-1.75 3-1.38 2.1-1.98 3-1.39 2.1-2 3c-.62.9-1.47 2.1-2.13 3-.65.9-1.54 2.1-2.26 3-.73.9-1.81 2.1-2.55 3-.75.9-1.69 2.1-2.45 3s-1.79 2.12-2.63 2.99c-.85.87-2.08 2.03-2.98 2.81s-2.1 1.63-3 2.4-2.1 1.95-3 2.73c-.9.77-2.1 1.73-3 2.43-.9.71-2.1 1.6-3 2.27s-2.1 1.6-3 2.23c-.9.62-2.1 1.36-3 1.93-.9.56-2.1 1.3-3 1.82s-2.1 1.16-3 1.64c-.9.47-2.1 1.05-3 1.5l-3 1.5c-.9.45-2.1 1.06-3 1.5s-2.1 1.05-3 1.44-2.1.82-3 1.14-2.1.7-3 1l-3 1c-.9.3-2.1.71-3 1-.9.3-2.1.72-3 .98-.9.27-2.1.57-3 .81-.9.23-2.1.54-3 .76s-2.1.54-3 .73c-.9.2-2.1.39-3 .56-.9.18-2.1.5-3 .63-.9.14-2.1.15-3 .27-.9.13-2.1.4-3 .54s-2.1.28-3 .37-2.1.1-3 .22-2.1.48-3 .6-2.1.16-3 .19-2.1.01-3 .01h-24c-.9 0-2.1.02-3-.01s-2.1-.07-3-.19-2.1-.48-3-.6-2.1-.13-3-.22-2.1-.23-3-.37-2.1-.41-3-.54c-.9-.12-2.1-.14-3-.27s-2.1-.46-3-.61-2.1-.23-3-.38c-.9-.16-2.1-.46-3-.64-.9-.17-2.1-.36-3-.56-.9-.19-2.1-.51-3-.73s-2.1-.53-3-.76-2.1-.52-3-.75-2.1-.5-3-.76c-.9-.25-2.1-.66-3-.94-.9-.29-2.1-.71-3-.98-.9-.28-2.14-.51-2.99-.84-.86-.33-2.13-.77-2.7-1.35s-1.09-1.71-1.09-2.52c0-.82.52-2.1 1.09-2.9.57-.81 1.84-1.7 2.7-2.47.85-.76 2.09-1.79 2.99-2.63.9-.85 2.1-2.08 3-2.98l3-3c.9-.9 2.13-2.1 2.98-3 .84-.9 1.87-2.1 2.63-3 .77-.9 1.69-2.1 2.46-3 .78-.9 1.97-2.1 2.73-3s1.63-2.1 2.32-3c.68-.9 1.58-2.1 2.25-3s1.6-2.1 2.24-3 1.43-2.1 2-3 1.22-2.1 1.78-3 1.37-2.1 1.94-3 1.35-2.1 1.86-3 1.1-2.1 1.56-3 1.05-2.1 1.5-3 1.06-2.1 1.5-3 1.04-2.1 1.44-3 .83-2.1 1.19-3c.37-.9.87-2.1 1.24-3 .36-.9.82-2.1 1.17-3 .36-.9.86-2.1 1.19-3s.73-2.1 1.02-3c.28-.9.63-2.1.87-3 .25-.9.53-2.1.76-3s.51-2.1.76-3 .68-2.1.92-3 .49-2.1.69-3c.19-.9.45-2.1.61-3s.3-2.1.45-3 .41-2.1.55-3 .27-2.1.39-3 .25-2.1.39-3 .44-2.1.53-3 .07-2.1.08-3 0-2.1 0-3v-21c0-.9.03-2.1-.02-3-.06-.9-.23-2.1-.37-3-.13-.9-.43-2.1-.53-3s-.06-2.1-.16-3-.39-2.1-.53-3c-.15-.9-.29-2.1-.45-3-.15-.9-.39-2.1-.56-3-.16-.9-.37-2.1-.56-3s-.48-2.1-.7-3-.53-2.1-.75-3-.52-2.1-.74-3-.52-2.1-.75-3-.53-2.1-.76-3c-.24-.9-.54-2.1-.81-3-.26-.9-.68-2.1-.98-3-.29-.9-.7-2.1-1-3s-.68-2.1-1-3-.78-2.1-1.12-3c-.35-.9-.89-2.1-1.19-3-.29-.9-.74-2.1-.78-3-.05-.9.05-2.14.46-2.98.42-.83 1.54-1.9 2.33-2.61.8-.7 2.07-1.46 2.97-2.08.9-.61 2.1-1.4 3-2l3-2c.9-.59 2.1-1.38 3-1.94s2.1-1.22 3-1.78 2.1-1.37 3-1.94 2.1-1.33 3-1.88 2.1-1.24 3-1.81 2.1-1.38 3-1.98l3-2c.9-.6 2.1-1.41 3-1.98s2.1-1.26 3-1.81 2.1-1.3 3-1.88 2.1-1.41 3-2 2.1-1.4 3-1.94 2.1-1.14 3-1.65c.9-.52 2.1-1.2 3-1.76s2.1-1.38 3-1.98l3-2 3-2c.9-.6 2.1-1.41 3-1.98s2.1-1.27 3-1.81c.9-.55 2.1-1.29 3-1.83s2.1-1.21 3-1.77 2.1-1.35 3-1.94 2.1-1.42 3-2 2.1-1.33 3-1.88 2.25-1.35 3-1.78c.75-.44 1.25-.84 2-1.11M421 66.61c.75-.13 2.1-.44 3-.53s2.1-.07 3-.08 2.1 0 3 0 2.1-.02 3 .01 2.1.07 3 .19 2.1.47 3 .6 2.1.15 3 .27c.9.13 2.1.38 3 .55.9.16 2.1.37 3 .56s2.1.47 3 .7 2.1.54 3 .81c.9.26 2.1.66 3 .98s2.1.75 3 1.14 2.1 1 3 1.44 2.1 1.03 3 1.5c.9.48 2.1 1.1 3 1.64.9.55 2.1 1.36 3 2s2.1 1.54 3 2.25c.9.7 2.11 1.63 3 2.44.89.8 2.12 2.03 2.92 2.92.81.89 1.74 2.1 2.44 3 .71.9 1.61 2.1 2.25 3s1.45 2.1 2 3c.54.9 1.16 2.1 1.64 3 .47.9 1.06 2.1 1.5 3s1.06 2.1 1.42 3 .68 2.1.95 3 .63 2.1.88 3 .63 2.1.8 3c.16.9.15 2.1.27 3 .13.9.41 2.1.54 3 .14.9.33 2.1.36 3s-.05 2.1-.17 3c-.11.9-.48 2.1-.6 3s-.13 2.1-.22 3-.21 2.1-.37 3c-.17.9-.49 2.1-.74 3-.24.9-.59 2.1-.87 3-.29.9-.69 2.1-1.02 3s-.83 2.1-1.19 3-.79 2.1-1.18 3-.93 2.1-1.43 3c-.49.9-1.28 2.1-1.85 3s-1.38 2.1-1.94 3c-.57.9-1.23 2.1-1.84 3-.6.9-1.5 2.1-2.19 3-.68.9-1.65 2.1-2.36 3s-1.64 2.1-2.39 3-1.79 2.1-2.63 3c-.85.9-2.08 2.1-2.98 3l-3 3c-.9.9-2.1 2.12-3 2.99s-2.1 2.03-3 2.81-2.1 1.63-3 2.4-2.1 1.95-3 2.73c-.9.77-2.1 1.72-3 2.45-.9.74-2.1 1.73-3 2.44s-2.1 1.61-3 2.3c-.9.68-2.1 1.56-3 2.27-.9.7-2.1 1.74-3 2.43s-2.1 1.53-3 2.18c-.9.64-2.1 1.48-3 2.12-.9.65-2.1 1.56-3 2.2-.9.63-2.1 1.42-3 2.07-.9.64-2.1 1.58-3 2.22s-2.1 1.45-3 2.06l-3 2-3 2c-.9.59-2.1 1.38-3 1.94s-2.1 1.22-3 1.78-2.1 1.35-3 1.94-2.1 1.42-3 2-2.1 1.33-3 1.88-2.1 1.25-3 1.79-2.1 1.25-3 1.79-2.1 1.29-3 1.83c-.9.53-2.1 1.28-3 1.74s-2.1 1.15-3 1.35-2.1.25-3-.03c-.9-.27-2.12-1.09-2.99-1.79s-2.03-2.01-2.81-2.89-1.62-2.1-2.4-3-1.96-2.1-2.8-3-2.03-2.1-2.8-3-1.63-2.1-2.32-3-1.58-2.1-2.25-3-1.6-2.1-2.24-3c-.65-.9-1.45-2.1-2.06-3l-2-3c-.6-.9-1.41-2.1-2-3s-1.4-2.1-1.94-3c-.53-.9-1.16-2.1-1.64-3-.47-.9-1.05-2.1-1.5-3l-1.5-3c-.45-.9-1.06-2.1-1.5-3s-1.04-2.1-1.44-3-.84-2.1-1.19-3c-.36-.9-.87-2.1-1.17-3-.31-.9-.57-2.1-.84-3-.26-.9-.68-2.1-.92-3s-.49-2.1-.69-3c-.19-.9-.44-2.1-.62-3-.17-.9-.38-2.1-.55-3-.18-.9-.51-2.1-.63-3s-.16-2.1-.19-3-.01-2.1-.01-3v-9c0-.9-.02-2.1.01-3s.07-2.1.19-3 .45-2.1.63-3c.17-.9.36-2.1.56-3 .19-.9.49-2.1.74-3 .24-.9.59-2.1.87-3 .29-.9.7-2.1 1-3s.68-2.1 1.02-3 .84-2.1 1.25-3 1.03-2.1 1.48-3 1.03-2.1 1.52-3 1.2-2.1 1.73-3 1.24-2.1 1.79-3c.56-.9 1.27-2.1 1.91-3 .63-.9 1.6-2.1 2.3-3 .71-.9 1.64-2.1 2.39-3s1.79-2.1 2.63-3c.85-.9 2.08-2.1 2.98-3s2.1-2.12 3-2.99 2.1-2.03 3-2.81 2.1-1.66 3-2.37c.9-.72 2.1-1.76 3-2.42.9-.67 2.1-1.45 3-2.02s2.1-1.24 3-1.77c.9-.54 2.1-1.31 3-1.81s2.1-1.1 3-1.56 2.1-1.05 3-1.5 2.1-1.07 3-1.48 2.1-.91 3-1.25 2.1-.72 3-1.02 2.1-.71 3-1c.9-.28 2.1-.63 3-.87.9-.25 2.1-.55 3-.74.9-.2 2.1-.39 3-.56.9-.18 2.1-.5 3-.63.9-.14 2.25-.19 3-.27.75-.09 1.25-.19 2-.32m-48 211.23c.9-.34 2.1-.7 3-.72s2.1.14 3 .58 2.1 1.54 3 2.33c.9.8 2.1 2.07 3 2.97l3 3 3 3 3 3 3 3c.9.9 2.1 2.11 3 3s2.1 2.11 3 2.92 2.1 1.7 3 2.47c.9.76 2.1 1.79 3 2.63.9.85 2.1 2.08 3 2.98l3 3 3 3 3 3 3 3 3 3 3 3 3 3 3 3 3 3 3 3c.9.9 2.17 2.1 2.97 3 .79.9 1.9 2.1 2.33 3s.65 2.15.56 2.97c-.09.83-.59 1.91-1.17 2.56-.58.64-1.84 1.21-2.7 1.73-.85.53-2.09 1.22-2.99 1.74s-2.1 1.23-3 1.74c-.9.5-2.1 1.13-3 1.65s-2.1 1.29-3 1.8-2.1 1.11-3 1.62-2.1 1.28-3 1.8-2.1 1.15-3 1.65c-.9.51-2.1 1.21-3 1.74s-2.1 1.25-3 1.79-2.1 1.29-3 1.83c-.9.53-2.1 1.23-3 1.76-.9.54-2.1 1.29-3 1.83s-2.1 1.25-3 1.79-2.1 1.24-3 1.79-2.1 1.31-3 1.88-2.1 1.4-3 1.94-2.1 1.14-3 1.65c-.9.52-2.1 1.2-3 1.76s-2.1 1.39-3 1.98-2.1 1.41-3 1.98-2.1 1.27-3 1.81c-.9.55-2.1 1.29-3 1.83-.9.53-2.1 1.23-3 1.76-.9.54-2.1 1.28-3 1.83-.9.54-2.1 1.26-3 1.81s-2.1 1.46-3 1.87c-.9.42-2.13.92-2.99.89-.87-.03-2.06-.52-2.81-1.09s-1.56-1.84-2.19-2.7c-.64-.85-1.41-2.09-2.01-2.99l-2-3c-.6-.9-1.39-2.1-2-3-.62-.9-1.47-2.1-2.13-3-.65-.9-1.55-2.1-2.26-3-.7-.9-1.71-2.1-2.44-3-.72-.9-1.62-2.1-2.36-3-.75-.9-1.87-2.1-2.62-3s-1.63-2.1-2.38-3-1.87-2.1-2.62-3-1.61-2.1-2.39-3-1.94-2.1-2.81-3-2.09-2.1-2.99-3l-3-3-3-3-3-3c-.9-.9-2.1-2.12-3-2.99s-2.1-2.03-3-2.81-2.1-1.62-3-2.4-2.1-1.97-3-2.78-2.1-1.87-3-2.63-2.1-1.7-3-2.45-2.17-1.8-2.97-2.55c-.79-.76-1.9-1.66-2.33-2.47-.43-.8-.65-2.08-.56-2.9.09-.81.59-1.89 1.17-2.55s1.84-1.3 2.7-1.85c.85-.55 2.09-1.3 2.99-1.81s2.1-1.08 3-1.56 2.1-1.12 3-1.64c.9-.51 2.1-1.29 3-1.8s2.1-1.11 3-1.62 2.1-1.29 3-1.8c.9-.52 2.1-1.16 3-1.64s2.1-1.06 3-1.56 2.1-1.29 3-1.8c.9-.52 2.1-1.16 3-1.64.9-.47 2.1-1.03 3-1.5.9-.48 2.1-1.12 3-1.64.9-.51 2.1-1.3 3-1.8s2.1-1.08 3-1.56 2.1-1.12 3-1.64 2.1-1.28 3-1.82 2.1-1.26 3-1.79 2.1-1.24 3-1.73 2.1-1.06 3-1.52 2.1-1.06 3-1.56 2.1-1.29 3-1.8c.9-.52 2.1-1.16 3-1.64s2.1-1.06 3-1.56 2.1-1.3 3-1.8 2.1-1.21 3-1.55m-29 177.08c.75-.3 2.16-.78 2.97-.72s1.87.54 2.41 1.11c.55.57.93 1.84 1.22 2.7.3.85.54 2.09.77 2.99s.52 2.1.75 3 .54 2.1.76 3 .54 2.1.73 3c.2.9.38 2.1.56 3 .19.9.47 2.1.66 3 .18.9.39 2.1.55 3 .17.9.44 2.1.54 3 .11.9.06 2.1.16 3s.4 2.1.53 3c.14.9.31 2.1.37 3 .05.9.02 2.1.02 3v15c0 .9.02 2.1-.01 3s-.07 2.1-.19 3-.46 2.1-.61 3-.23 2.1-.38 3-.47 2.1-.62 3-.23 2.1-.38 3c-.16.9-.46 2.1-.64 3-.17.9-.36 2.1-.56 3-.19.9-.49 2.1-.74 3-.24.9-.59 2.1-.87 3-.29.9-.7 2.1-1 3s-.69 2.1-1.02 3-.84 2.1-1.19 3-.79 2.1-1.12 3-.7 2.1-1.06 3c-.37.9-.94 2.1-1.36 3-.43.9-1.05 2.1-1.5 3s-1.03 2.1-1.5 3c-.48.9-1.12 2.1-1.64 3s-1.28 2.1-1.82 3-1.24 2.1-1.81 3-1.37 2.1-1.98 3c-.62.9-1.47 2.1-2.13 3-.65.9-1.54 2.1-2.26 3-.73.9-1.81 2.1-2.55 3-.75.9-1.69 2.1-2.45 3s-1.79 2.1-2.63 3c-.85.9-2.08 2.1-2.98 3s-2.1 2.12-3 2.99-2.1 2.03-3 2.81-2.1 1.65-3 2.37c-.9.73-2.1 1.72-3 2.45-.9.72-2.1 1.68-3 2.38s-2.1 1.72-3 2.28-2.1 1.19-3 1.43-2.1.32-3 .17c-.9-.14-2.1-.62-3-1.11s-2.1-1.45-3-2.17-2.1-1.78-3-2.62c-.9-.85-2.11-2.08-3-2.98s-2.12-2.1-2.92-3c-.81-.9-1.74-2.1-2.44-3-.71-.9-1.61-2.1-2.25-3s-1.45-2.1-2-3c-.54-.9-1.17-2.1-1.64-3-.46-.9-1.07-2.1-1.48-3s-.91-2.1-1.25-3-.72-2.1-1.02-3-.72-2.1-.99-3-.63-2.1-.81-3-.24-2.1-.39-3-.49-2.1-.61-3-.17-2.1-.19-3c-.03-.9-.03-2.1 0-3 .02-.9.07-2.1.19-3s.47-2.1.6-3 .15-2.1.27-3c.13-.9.37-2.1.57-3 .19-.9.5-2.1.73-3s.5-2.1.77-3c.28-.9.74-2.1 1.07-3 .34-.9.81-2.1 1.17-3s.86-2.1 1.24-3c.37-.9.8-2.1 1.25-3s1.23-2.1 1.74-3 1.15-2.1 1.65-3c.51-.9 1.21-2.1 1.74-3s1.23-2.1 1.81-3 1.43-2.1 2.08-3c.64-.9 1.56-2.1 2.23-3s1.57-2.1 2.25-3 1.56-2.1 2.27-3c.7-.9 1.66-2.1 2.43-3 .78-.9 1.96-2.1 2.73-3s1.62-2.1 2.4-3 1.94-2.1 2.81-3 2.09-2.1 2.99-3l3-3 3-3c.9-.9 2.1-2.13 3-2.98.9-.84 2.1-1.87 3-2.63.9-.77 2.1-1.67 3-2.47s2.1-2.04 3-2.84 2.1-1.71 3-2.47c.9-.75 2.1-1.81 3-2.55.9-.75 2.1-1.71 3-2.44.9-.74 2.1-1.73 3-2.44s2.1-1.61 3-2.3c.9-.68 2.1-1.57 3-2.27s2.25-1.85 3-2.4c.75-.56 1.25-.99 2-1.29"/></svg></svg>