<svg xmlns="http://www.w3.org/2000/svg" width="811" height="715" viewBox="0 0 811 715" role="img" aria-label="887 Studio logo">
  <title>887 Studio</title>
  <path d="M 421.00 36.39 C 420.25 36.52, 418.90 36.83, 418.00 36.92 C 417.10 37.01, 415.90 36.96, 415.00 37.00 C 414.10 37.05, 412.90 37.08, 412.00 37.20 C 411.10 37.32, 409.90 37.66, 409.00 37.81 C 408.10 37.96, 406.90 38.04, 406.00 38.19 C 405.10 38.35, 403.90 38.65, 403.00 38.83 C 402.10 39.00, 400.90 39.19, 400.00 39.39 C 399.10 39.58, 397.90 39.88, 397.00 40.13 C 396.10 40.37, 394.90 40.72, 394.00 41.00 C 393.10 41.29, 391.90 41.70, 391.00 42.00 C 390.10 42.30, 388.90 42.70, 388.00 43.00 C 387.10 43.30, 385.90 43.70, 385.00 44.00 C 384.10 44.30, 382.90 44.68, 382.00 45.02 C 381.10 45.36, 379.90 45.86, 379.00 46.27 C 378.10 46.68, 376.90 47.30, 376.00 47.75 C 375.10 48.20, 373.90 48.79, 373.00 49.25 C 372.10 49.71, 370.90 50.31, 370.00 50.81 C 369.10 51.31, 367.90 52.09, 367.00 52.61 C 366.10 53.13, 364.90 53.74, 364.00 54.27 C 363.10 54.80, 361.90 55.54, 361.00 56.14 C 360.10 56.75, 358.90 57.68, 358.00 58.32 C 357.10 58.95, 355.90 59.73, 355.00 60.41 C 354.10 61.08, 352.90 62.11, 352.00 62.83 C 351.10 63.54, 349.90 64.43, 349.00 65.20 C 348.10 65.97, 346.90 67.17, 346.00 67.98 C 345.10 68.79, 343.88 69.85, 343.01 70.61 C 342.14 71.38, 340.98 72.27, 340.20 73.08 C 339.42 73.89, 338.58 75.11, 337.80 76.00 C 337.02 76.89, 335.83 78.10, 335.02 79.00 C 334.21 79.90, 333.13 81.10, 332.39 82.00 C 331.66 82.90, 330.80 84.10, 330.12 85.00 C 329.44 85.90, 328.55 87.10, 327.88 88.00 C 327.22 88.90, 326.32 90.10, 325.69 91.00 C 325.05 91.90, 324.25 93.10, 323.67 94.00 C 323.09 94.90, 322.33 96.10, 321.81 97.00 C 321.29 97.90, 320.70 99.10, 320.19 100.00 C 319.68 100.90, 318.90 102.10, 318.39 103.00 C 317.88 103.90, 317.23 105.10, 316.81 106.00 C 316.40 106.90, 315.98 108.10, 315.62 109.00 C 315.25 109.90, 314.75 111.10, 314.38 112.00 C 314.02 112.90, 313.56 114.10, 313.21 115.00 C 312.86 115.90, 312.34 117.10, 312.02 118.00 C 311.71 118.90, 311.38 120.10, 311.12 121.00 C 310.87 121.90, 310.57 123.10, 310.32 124.00 C 310.06 124.90, 309.62 126.10, 309.41 127.00 C 309.21 127.90, 309.10 129.10, 308.94 130.00 C 308.79 130.90, 308.53 132.10, 308.39 133.00 C 308.25 133.90, 308.11 135.10, 308.02 136.00 C 307.93 136.90, 307.92 138.10, 307.80 139.00 C 307.68 139.90, 307.32 141.10, 307.20 142.00 C 307.08 142.90, 307.04 144.10, 307.01 145.00 C 306.98 145.90, 307.00 147.10, 307.00 148.00 C 307.00 148.90, 307.00 150.10, 307.00 151.00 C 307.00 151.90, 306.98 153.10, 307.01 154.00 C 307.04 154.90, 307.08 156.10, 307.20 157.00 C 307.32 157.90, 307.68 159.10, 307.80 160.00 C 307.92 160.90, 307.93 162.10, 308.02 163.00 C 308.11 163.90, 308.24 165.10, 308.39 166.00 C 308.54 166.90, 308.82 168.10, 309.00 169.00 C 309.18 169.90, 309.44 171.10, 309.62 172.00 C 309.79 172.90, 309.97 174.10, 310.18 175.00 C 310.39 175.90, 310.75 177.10, 311.00 178.00 C 311.26 178.90, 311.62 180.10, 311.88 181.00 C 312.13 181.90, 312.42 183.10, 312.69 184.00 C 312.96 184.90, 313.35 186.10, 313.67 187.00 C 313.99 187.90, 314.43 189.10, 314.81 190.00 C 315.19 190.90, 315.80 192.10, 316.19 193.00 C 316.58 193.90, 317.00 195.10, 317.39 196.00 C 317.77 196.90, 318.33 198.10, 318.75 199.00 C 319.18 199.90, 319.80 201.10, 320.25 202.00 C 320.70 202.90, 321.30 204.10, 321.75 205.00 C 322.20 205.90, 322.78 207.10, 323.27 208.00 C 323.76 208.90, 324.47 210.10, 325.00 211.00 C 325.53 211.90, 326.24 213.10, 326.79 214.00 C 327.34 214.90, 328.09 216.10, 328.67 217.00 C 329.25 217.90, 330.07 219.10, 330.67 220.00 C 331.27 220.90, 332.07 222.10, 332.67 223.00 C 333.27 223.90, 334.06 225.10, 334.67 226.00 C 335.27 226.90, 336.04 228.10, 336.69 229.00 C 337.34 229.90, 338.30 231.10, 339.00 232.00 C 339.71 232.90, 340.66 234.10, 341.38 235.00 C 342.11 235.90, 343.10 237.10, 343.83 238.00 C 344.55 238.90, 345.45 240.10, 346.19 241.00 C 346.94 241.90, 348.06 243.10, 348.81 244.00 C 349.55 244.90, 350.49 246.10, 351.17 247.00 C 351.84 247.90, 352.93 249.10, 353.30 250.00 C 353.67 250.90, 353.87 252.15, 353.66 252.97 C 353.45 253.80, 352.59 254.88, 351.89 255.53 C 351.19 256.17, 349.88 256.75, 349.00 257.25 C 348.12 257.74, 346.90 258.31, 346.00 258.81 C 345.10 259.31, 343.90 260.10, 343.00 260.61 C 342.10 261.13, 340.90 261.77, 340.00 262.25 C 339.10 262.72, 337.90 263.28, 337.00 263.75 C 336.10 264.23, 334.90 264.87, 334.00 265.39 C 333.10 265.90, 331.90 266.69, 331.00 267.19 C 330.10 267.69, 328.90 268.29, 328.00 268.75 C 327.10 269.21, 325.90 269.79, 325.00 270.25 C 324.10 270.71, 322.90 271.31, 322.00 271.81 C 321.10 272.31, 319.90 273.10, 319.00 273.61 C 318.10 274.13, 316.90 274.77, 316.00 275.25 C 315.10 275.72, 313.90 276.30, 313.00 276.75 C 312.10 277.20, 310.90 277.78, 310.00 278.27 C 309.10 278.76, 307.90 279.48, 307.00 280.00 C 306.10 280.52, 304.90 281.24, 304.00 281.73 C 303.10 282.22, 301.90 282.80, 301.00 283.25 C 300.10 283.70, 298.90 284.30, 298.00 284.75 C 297.10 285.20, 295.90 285.78, 295.00 286.27 C 294.10 286.76, 292.90 287.48, 292.00 288.00 C 291.10 288.52, 289.90 289.24, 289.00 289.73 C 288.10 290.22, 286.90 290.80, 286.00 291.25 C 285.10 291.70, 283.90 292.30, 283.00 292.75 C 282.10 293.20, 280.90 293.80, 280.00 294.25 C 279.10 294.70, 277.90 295.30, 277.00 295.75 C 276.10 296.20, 274.90 296.80, 274.00 297.25 C 273.10 297.70, 271.90 298.30, 271.00 298.75 C 270.10 299.20, 268.90 299.83, 268.00 300.24 C 267.10 300.66, 265.90 301.28, 265.00 301.52 C 264.10 301.77, 262.90 301.95, 262.00 301.89 C 261.10 301.83, 259.90 301.49, 259.00 301.10 C 258.10 300.72, 256.90 299.89, 256.00 299.33 C 255.10 298.76, 253.90 297.93, 253.00 297.33 C 252.10 296.73, 250.90 295.93, 250.00 295.33 C 249.10 294.73, 247.90 293.93, 247.00 293.33 C 246.10 292.74, 244.90 291.96, 244.00 291.39 C 243.10 290.82, 241.90 290.15, 241.00 289.56 C 240.10 288.96, 238.90 288.04, 238.00 287.44 C 237.10 286.85, 235.90 286.18, 235.00 285.61 C 234.10 285.04, 232.90 284.26, 232.00 283.67 C 231.10 283.07, 229.90 282.27, 229.00 281.67 C 228.10 281.07, 226.90 280.27, 226.00 279.67 C 225.10 279.07, 223.90 278.25, 223.00 277.67 C 222.10 277.09, 220.90 276.34, 220.00 275.79 C 219.10 275.24, 217.90 274.55, 217.00 273.98 C 216.10 273.41, 214.90 272.59, 214.00 272.00 C 213.10 271.41, 211.90 270.59, 211.00 270.02 C 210.10 269.45, 208.90 268.76, 208.00 268.21 C 207.10 267.66, 205.90 266.91, 205.00 266.33 C 204.10 265.75, 202.90 264.93, 202.00 264.33 C 201.10 263.73, 199.90 262.93, 199.00 262.33 C 198.10 261.73, 196.90 260.93, 196.00 260.33 C 195.10 259.74, 193.90 258.95, 193.00 258.39 C 192.10 257.83, 190.90 257.17, 190.00 256.61 C 189.10 256.05, 187.90 255.26, 187.00 254.67 C 186.10 254.07, 184.90 253.27, 184.00 252.67 C 183.10 252.07, 181.90 251.27, 181.00 250.67 C 180.10 250.07, 178.90 249.27, 178.00 248.67 C 177.10 248.07, 175.90 247.27, 175.00 246.67 C 174.10 246.07, 172.90 245.27, 172.00 244.67 C 171.10 244.07, 169.90 243.27, 169.00 242.67 C 168.10 242.06, 166.90 241.26, 166.00 240.61 C 165.10 239.97, 163.90 239.04, 163.00 238.37 C 162.10 237.70, 160.90 236.79, 160.00 236.12 C 159.10 235.45, 157.90 234.55, 157.00 233.88 C 156.10 233.21, 154.90 232.31, 154.00 231.63 C 153.10 230.95, 151.90 230.06, 151.00 229.37 C 150.10 228.67, 148.90 227.71, 148.00 227.00 C 147.10 226.29, 145.90 225.35, 145.00 224.61 C 144.10 223.87, 142.90 222.81, 142.00 222.06 C 141.10 221.31, 139.90 220.37, 139.00 219.61 C 138.10 218.85, 136.90 217.82, 136.00 216.98 C 135.10 216.13, 133.90 214.90, 133.00 214.00 C 132.10 213.10, 130.90 211.90, 130.00 211.00 C 129.10 210.10, 127.90 208.90, 127.00 208.00 C 126.10 207.10, 124.87 205.90, 124.02 205.00 C 123.18 204.10, 122.14 202.90, 121.39 202.00 C 120.64 201.10, 119.71 199.90, 119.00 199.00 C 118.29 198.10, 117.33 196.90, 116.63 196.00 C 115.94 195.10, 115.03 193.90, 114.39 193.00 C 113.75 192.10, 112.94 190.90, 112.39 190.00 C 111.85 189.10, 111.23 187.90, 110.75 187.00 C 110.28 186.10, 109.70 184.90, 109.25 184.00 C 108.80 183.10, 108.18 181.90, 107.75 181.00 C 107.33 180.10, 106.77 178.90, 106.39 178.00 C 106.01 177.10, 105.55 175.90, 105.21 175.00 C 104.88 174.10, 104.42 172.90, 104.14 172.00 C 103.87 171.10, 103.59 169.90, 103.39 169.00 C 103.19 168.10, 103.00 166.90, 102.83 166.00 C 102.65 165.10, 102.33 163.90, 102.20 163.00 C 102.06 162.10, 102.05 160.90, 101.93 160.00 C 101.80 159.10, 101.52 157.90, 101.39 157.00 C 101.25 156.10, 101.08 154.90, 101.02 154.00 C 100.97 153.10, 100.99 151.90, 101.00 151.00 C 101.01 150.10, 100.99 148.90, 101.08 148.00 C 101.17 147.10, 101.47 145.90, 101.61 145.00 C 101.75 144.10, 101.88 142.90, 102.00 142.00 C 102.12 141.10, 102.24 139.90, 102.39 139.00 C 102.54 138.10, 102.81 136.90, 103.00 136.00 C 103.20 135.10, 103.44 133.90, 103.69 133.00 C 103.94 132.10, 104.37 130.90, 104.67 130.00 C 104.96 129.10, 105.35 127.90, 105.67 127.00 C 105.99 126.10, 106.43 124.90, 106.81 124.00 C 107.19 123.10, 107.79 121.90, 108.20 121.00 C 108.60 120.10, 109.08 118.90, 109.53 118.00 C 109.98 117.10, 110.70 115.90, 111.20 115.00 C 111.69 114.10, 112.29 112.90, 112.81 112.00 C 113.34 111.10, 114.07 109.90, 114.70 109.00 C 115.32 108.10, 116.30 106.90, 117.00 106.00 C 117.71 105.10, 118.64 103.90, 119.39 103.00 C 120.14 102.10, 121.18 100.90, 122.02 100.00 C 122.87 99.10, 124.10 97.89, 125.00 97.00 C 125.90 96.11, 127.10 94.89, 128.00 94.08 C 128.90 93.27, 130.10 92.35, 131.00 91.62 C 131.90 90.88, 133.10 89.89, 134.00 89.18 C 134.90 88.47, 136.10 87.54, 137.00 86.89 C 137.90 86.23, 139.10 85.39, 140.00 84.81 C 140.90 84.23, 142.10 83.53, 143.00 83.00 C 143.90 82.47, 145.10 81.76, 146.00 81.27 C 146.90 80.78, 148.10 80.20, 149.00 79.75 C 149.90 79.30, 151.10 78.69, 152.00 78.25 C 152.90 77.81, 154.10 77.20, 155.00 76.81 C 155.90 76.42, 157.10 75.99, 158.00 75.67 C 158.90 75.35, 160.10 74.96, 161.00 74.67 C 161.90 74.37, 163.10 73.95, 164.00 73.69 C 164.90 73.42, 166.10 73.12, 167.00 72.88 C 167.90 72.65, 169.10 72.34, 170.00 72.12 C 170.90 71.90, 172.10 71.58, 173.00 71.39 C 173.90 71.19, 175.10 71.00, 176.00 70.83 C 176.90 70.65, 178.10 70.33, 179.00 70.20 C 179.90 70.06, 181.10 70.05, 182.00 69.93 C 182.90 69.80, 184.10 69.52, 185.00 69.39 C 185.90 69.25, 187.10 69.08, 188.00 69.02 C 188.90 68.97, 190.10 69.00, 191.00 69.00 C 191.90 69.00, 193.10 69.00, 194.00 69.00 C 194.90 69.00, 196.10 69.00, 197.00 69.00 C 197.90 69.00, 199.10 68.99, 200.00 69.00 C 200.90 69.01, 202.10 68.99, 203.00 69.08 C 203.90 69.17, 205.10 69.48, 206.00 69.61 C 206.90 69.75, 208.10 69.92, 209.00 69.98 C 209.90 70.03, 211.10 70.03, 212.00 69.98 C 212.90 69.92, 214.10 69.79, 215.00 69.59 C 215.90 69.38, 217.10 68.97, 218.00 68.60 C 218.90 68.24, 220.13 67.71, 220.99 67.16 C 221.86 66.61, 223.07 65.69, 223.78 64.91 C 224.48 64.14, 225.22 62.89, 225.70 62.00 C 226.18 61.11, 226.66 59.90, 226.97 59.00 C 227.29 58.10, 227.67 56.90, 227.79 56.00 C 227.91 55.10, 227.91 53.90, 227.79 53.00 C 227.67 52.10, 227.29 50.90, 226.97 50.00 C 226.66 49.10, 226.18 47.90, 225.70 47.00 C 225.22 46.10, 224.48 44.85, 223.78 44.03 C 223.07 43.20, 221.86 42.10, 220.99 41.48 C 220.13 40.85, 218.90 40.20, 218.00 39.84 C 217.10 39.48, 215.90 39.24, 215.00 39.08 C 214.10 38.92, 212.90 38.93, 212.00 38.80 C 211.10 38.67, 209.90 38.32, 209.00 38.20 C 208.10 38.08, 206.90 38.04, 206.00 38.01 C 205.10 37.98, 203.90 38.00, 203.00 38.00 C 202.10 38.00, 200.90 38.00, 200.00 38.00 C 199.10 38.00, 197.90 38.00, 197.00 38.00 C 196.10 38.00, 194.90 38.00, 194.00 38.00 C 193.10 38.00, 191.90 38.00, 191.00 38.00 C 190.10 38.00, 188.90 38.00, 188.00 38.00 C 187.10 38.00, 185.90 38.00, 185.00 38.00 C 184.10 38.00, 182.90 37.97, 182.00 38.02 C 181.10 38.08, 179.90 38.25, 179.00 38.39 C 178.10 38.52, 176.90 38.82, 176.00 38.92 C 175.10 39.02, 173.90 38.97, 173.00 39.08 C 172.10 39.18, 170.90 39.45, 170.00 39.62 C 169.10 39.78, 167.90 39.99, 167.00 40.18 C 166.10 40.37, 164.90 40.66, 164.00 40.88 C 163.10 41.10, 161.90 41.41, 161.00 41.63 C 160.10 41.85, 158.90 42.15, 158.00 42.37 C 157.10 42.59, 155.90 42.88, 155.00 43.13 C 154.10 43.37, 152.90 43.72, 152.00 44.00 C 151.10 44.29, 149.90 44.70, 149.00 45.00 C 148.10 45.30, 146.90 45.70, 146.00 46.00 C 145.10 46.30, 143.90 46.68, 143.00 47.02 C 142.10 47.36, 140.90 47.88, 140.00 48.26 C 139.10 48.65, 137.90 49.23, 137.00 49.61 C 136.10 49.99, 134.90 50.41, 134.00 50.81 C 133.10 51.21, 131.90 51.80, 131.00 52.25 C 130.10 52.70, 128.90 53.31, 128.00 53.81 C 127.10 54.31, 125.90 55.08, 125.00 55.62 C 124.10 56.15, 122.90 56.83, 122.00 57.39 C 121.10 57.95, 119.90 58.74, 119.00 59.33 C 118.10 59.93, 116.90 60.73, 116.00 61.33 C 115.10 61.94, 113.90 62.74, 113.00 63.39 C 112.10 64.03, 110.90 64.96, 110.00 65.63 C 109.10 66.30, 107.90 67.19, 107.00 67.88 C 106.10 68.57, 104.90 69.43, 104.00 70.20 C 103.10 70.97, 101.90 72.14, 101.00 73.01 C 100.10 73.88, 98.90 75.10, 98.00 76.00 C 97.10 76.90, 95.87 78.10, 95.02 79.00 C 94.18 79.90, 93.14 81.10, 92.39 82.00 C 91.64 82.90, 90.71 84.10, 90.00 85.00 C 89.29 85.90, 88.33 87.10, 87.63 88.00 C 86.94 88.90, 86.03 90.10, 85.39 91.00 C 84.74 91.90, 83.93 93.10, 83.33 94.00 C 82.74 94.90, 81.93 96.10, 81.39 97.00 C 80.85 97.90, 80.24 99.10, 79.74 100.00 C 79.23 100.90, 78.50 102.10, 78.00 103.00 C 77.51 103.90, 76.83 105.10, 76.41 106.00 C 75.99 106.90, 75.58 108.10, 75.19 109.00 C 74.80 109.90, 74.19 111.10, 73.81 112.00 C 73.43 112.90, 72.99 114.10, 72.67 115.00 C 72.35 115.90, 71.96 117.10, 71.67 118.00 C 71.37 118.90, 70.95 120.10, 70.69 121.00 C 70.42 121.90, 70.12 123.10, 69.88 124.00 C 69.65 124.90, 69.34 126.10, 69.12 127.00 C 68.90 127.90, 68.57 129.10, 68.39 130.00 C 68.22 130.90, 68.10 132.10, 67.94 133.00 C 67.79 133.90, 67.53 135.10, 67.39 136.00 C 67.25 136.90, 67.09 138.10, 67.02 139.00 C 66.96 139.90, 67.04 141.10, 66.98 142.00 C 66.91 142.90, 66.75 144.10, 66.61 145.00 C 66.48 145.90, 66.17 147.10, 66.08 148.00 C 65.99 148.90, 66.00 150.10, 66.00 151.00 C 66.00 151.90, 65.99 153.10, 66.08 154.00 C 66.17 154.90, 66.48 156.10, 66.61 157.00 C 66.75 157.90, 66.91 159.10, 66.98 160.00 C 67.05 160.90, 66.98 162.10, 67.08 163.00 C 67.17 163.90, 67.47 165.10, 67.61 166.00 C 67.76 166.90, 67.90 168.10, 68.06 169.00 C 68.21 169.90, 68.45 171.10, 68.62 172.00 C 68.79 172.90, 68.97 174.10, 69.18 175.00 C 69.39 175.90, 69.75 177.10, 70.00 178.00 C 70.26 178.90, 70.62 180.10, 70.88 181.00 C 71.13 181.90, 71.40 183.10, 71.69 184.00 C 71.98 184.90, 72.44 186.10, 72.79 187.00 C 73.14 187.90, 73.63 189.10, 74.00 190.00 C 74.37 190.90, 74.86 192.10, 75.27 193.00 C 75.68 193.90, 76.30 195.10, 76.75 196.00 C 77.20 196.90, 77.79 198.10, 78.25 199.00 C 78.71 199.90, 79.30 201.10, 79.81 202.00 C 80.32 202.90, 81.09 204.10, 81.67 205.00 C 82.25 205.90, 83.07 207.10, 83.67 208.00 C 84.27 208.90, 85.06 210.10, 85.67 211.00 C 86.27 211.90, 87.04 213.10, 87.69 214.00 C 88.34 214.90, 89.30 216.10, 90.00 217.00 C 90.71 217.90, 91.64 219.10, 92.39 220.00 C 93.14 220.90, 94.19 222.10, 95.02 223.00 C 95.85 223.90, 97.12 225.10, 97.92 226.00 C 98.73 226.90, 99.62 228.10, 100.39 229.00 C 101.15 229.90, 102.18 231.13, 103.02 231.98 C 103.87 232.82, 105.10 233.85, 106.00 234.61 C 106.90 235.38, 108.10 236.27, 109.00 237.08 C 109.90 237.88, 111.10 239.15, 112.00 239.98 C 112.90 240.81, 114.10 241.85, 115.00 242.61 C 115.90 243.37, 117.10 244.31, 118.00 245.06 C 118.90 245.81, 120.10 246.87, 121.00 247.61 C 121.90 248.35, 123.10 249.29, 124.00 250.00 C 124.90 250.71, 126.10 251.67, 127.00 252.37 C 127.90 253.06, 129.10 253.96, 130.00 254.61 C 130.90 255.26, 132.10 256.04, 133.00 256.68 C 133.90 257.33, 135.10 258.22, 136.00 258.88 C 136.90 259.55, 138.10 260.45, 139.00 261.12 C 139.90 261.78, 141.10 262.68, 142.00 263.31 C 142.90 263.95, 144.10 264.73, 145.00 265.33 C 145.90 265.94, 147.10 266.73, 148.00 267.33 C 148.90 267.93, 150.10 268.73, 151.00 269.33 C 151.90 269.93, 153.10 270.73, 154.00 271.33 C 154.90 271.93, 156.10 272.73, 157.00 273.33 C 157.90 273.93, 159.10 274.73, 160.00 275.33 C 160.90 275.93, 162.10 276.73, 163.00 277.33 C 163.90 277.93, 165.10 278.73, 166.00 279.33 C 166.90 279.93, 168.10 280.75, 169.00 281.33 C 169.90 281.91, 171.10 282.66, 172.00 283.21 C 172.90 283.76, 174.10 284.45, 175.00 285.02 C 175.90 285.58, 177.10 286.42, 178.00 286.98 C 178.90 287.55, 180.10 288.24, 181.00 288.79 C 181.90 289.34, 183.10 290.10, 184.00 290.67 C 184.90 291.24, 186.10 292.05, 187.00 292.61 C 187.90 293.17, 189.10 293.83, 190.00 294.39 C 190.90 294.95, 192.10 295.74, 193.00 296.33 C 193.90 296.92, 195.10 297.75, 196.00 298.33 C 196.90 298.91, 198.10 299.66, 199.00 300.21 C 199.90 300.76, 201.10 301.46, 202.00 302.00 C 202.90 302.54, 204.10 303.24, 205.00 303.79 C 205.90 304.34, 207.10 305.09, 208.00 305.67 C 208.90 306.25, 210.10 307.07, 211.00 307.67 C 211.90 308.27, 213.10 309.07, 214.00 309.67 C 214.90 310.26, 216.10 311.05, 217.00 311.61 C 217.90 312.17, 219.14 312.82, 219.99 313.39 C 220.85 313.96, 222.11 314.72, 222.69 315.41 C 223.27 316.11, 223.77 317.21, 223.86 318.02 C 223.95 318.82, 223.73 320.07, 223.30 320.78 C 222.87 321.48, 221.76 322.20, 220.97 322.72 C 220.17 323.25, 218.90 323.79, 218.00 324.27 C 217.10 324.75, 215.90 325.46, 215.00 325.94 C 214.10 326.43, 212.90 327.02, 212.00 327.51 C 211.10 328.00, 209.90 328.71, 209.00 329.19 C 208.10 329.68, 206.90 330.29, 206.00 330.75 C 205.10 331.21, 203.90 331.80, 203.00 332.25 C 202.10 332.70, 200.90 333.28, 200.00 333.75 C 199.10 334.23, 197.90 334.87, 197.00 335.39 C 196.10 335.90, 194.90 336.69, 194.00 337.19 C 193.10 337.69, 191.90 338.27, 191.00 338.75 C 190.10 339.23, 188.90 339.87, 188.00 340.39 C 187.10 340.91, 185.90 341.67, 185.00 342.21 C 184.10 342.75, 182.90 343.46, 182.00 344.00 C 181.10 344.54, 179.90 345.25, 179.00 345.79 C 178.10 346.33, 176.90 347.08, 176.00 347.62 C 175.10 348.16, 173.90 348.83, 173.00 349.39 C 172.10 349.95, 170.90 350.74, 170.00 351.33 C 169.10 351.93, 167.90 352.73, 167.00 353.33 C 166.10 353.93, 164.90 354.73, 164.00 355.33 C 163.10 355.93, 161.90 356.73, 161.00 357.33 C 160.10 357.93, 158.90 358.73, 158.00 359.33 C 157.10 359.93, 155.90 360.73, 155.00 361.33 C 154.10 361.93, 152.90 362.73, 152.00 363.33 C 151.10 363.94, 149.90 364.74, 149.00 365.39 C 148.10 366.03, 146.90 366.94, 146.00 367.63 C 145.10 368.33, 143.90 369.29, 143.00 370.00 C 142.10 370.71, 140.90 371.66, 140.00 372.38 C 139.10 373.11, 137.90 374.11, 137.00 374.83 C 136.10 375.54, 134.90 376.46, 134.00 377.17 C 133.10 377.89, 131.90 378.88, 131.00 379.62 C 130.10 380.35, 128.90 381.28, 128.00 382.08 C 127.10 382.88, 125.90 384.15, 125.00 384.98 C 124.10 385.81, 122.90 386.85, 122.00 387.61 C 121.10 388.38, 119.90 389.27, 119.00 390.08 C 118.10 390.89, 116.90 392.11, 116.00 393.00 C 115.10 393.89, 113.90 395.10, 113.00 396.00 C 112.10 396.90, 110.90 398.10, 110.00 399.00 C 109.10 399.90, 107.90 401.10, 107.00 402.00 C 106.10 402.90, 104.90 404.10, 104.00 405.00 C 103.10 405.90, 101.88 407.10, 101.01 408.00 C 100.14 408.90, 98.98 410.10, 98.20 411.00 C 97.42 411.90, 96.57 413.10, 95.80 414.00 C 95.03 414.90, 93.85 416.10, 93.07 417.00 C 92.30 417.90, 91.36 419.10, 90.61 420.00 C 89.86 420.90, 88.80 422.10, 88.06 423.00 C 87.31 423.90, 86.35 425.10, 85.62 426.00 C 84.88 426.90, 83.89 428.10, 83.18 429.00 C 82.47 429.90, 81.56 431.10, 80.88 432.00 C 80.20 432.90, 79.30 434.10, 78.63 435.00 C 77.96 435.90, 77.03 437.10, 76.39 438.00 C 75.74 438.90, 74.94 440.10, 74.33 441.00 C 73.73 441.90, 72.93 443.10, 72.33 444.00 C 71.74 444.90, 70.95 446.10, 70.39 447.00 C 69.83 447.90, 69.16 449.10, 68.62 450.00 C 68.08 450.90, 67.33 452.10, 66.79 453.00 C 66.25 453.90, 65.54 455.10, 65.00 456.00 C 64.46 456.90, 63.75 458.10, 63.21 459.00 C 62.67 459.90, 61.91 461.10, 61.39 462.00 C 60.87 462.90, 60.23 464.10, 59.75 465.00 C 59.28 465.90, 58.70 467.10, 58.25 468.00 C 57.80 468.90, 57.20 470.10, 56.75 471.00 C 56.30 471.90, 55.69 473.10, 55.25 474.00 C 54.81 474.90, 54.21 476.10, 53.81 477.00 C 53.41 477.90, 53.00 479.10, 52.61 480.00 C 52.23 480.90, 51.67 482.10, 51.25 483.00 C 50.83 483.90, 50.20 485.10, 49.81 486.00 C 49.42 486.90, 49.00 488.10, 48.67 489.00 C 48.34 489.90, 47.95 491.10, 47.61 492.00 C 47.27 492.90, 46.73 494.10, 46.39 495.00 C 46.05 495.90, 45.64 497.10, 45.33 498.00 C 45.03 498.90, 44.63 500.10, 44.33 501.00 C 44.04 501.90, 43.65 503.10, 43.39 504.00 C 43.13 504.90, 42.87 506.10, 42.61 507.00 C 42.36 507.90, 41.94 509.10, 41.68 510.00 C 41.43 510.90, 41.11 512.10, 40.88 513.00 C 40.65 513.90, 40.37 515.10, 40.18 516.00 C 39.99 516.90, 39.79 518.10, 39.62 519.00 C 39.44 519.90, 39.18 521.10, 39.00 522.00 C 38.82 522.90, 38.55 524.10, 38.39 525.00 C 38.23 525.90, 38.09 527.10, 37.94 528.00 C 37.79 528.90, 37.53 530.10, 37.39 531.00 C 37.25 531.90, 37.09 533.10, 37.02 534.00 C 36.96 534.90, 37.04 536.10, 36.98 537.00 C 36.91 537.90, 36.75 539.10, 36.61 540.00 C 36.48 540.90, 36.17 542.10, 36.08 543.00 C 35.99 543.90, 36.01 545.10, 36.00 546.00 C 35.99 546.90, 35.99 548.10, 36.00 549.00 C 36.01 549.90, 35.99 551.10, 36.08 552.00 C 36.17 552.90, 36.48 554.10, 36.61 555.00 C 36.75 555.90, 36.91 557.10, 36.98 558.00 C 37.04 558.90, 36.96 560.10, 37.02 561.00 C 37.09 561.90, 37.25 563.10, 37.39 564.00 C 37.53 564.90, 37.79 566.10, 37.94 567.00 C 38.09 567.90, 38.23 569.10, 38.39 570.00 C 38.55 570.90, 38.81 572.10, 39.00 573.00 C 39.19 573.90, 39.43 575.10, 39.63 576.00 C 39.84 576.90, 40.15 578.10, 40.37 579.00 C 40.59 579.90, 40.88 581.10, 41.13 582.00 C 41.37 582.90, 41.72 584.10, 42.00 585.00 C 42.29 585.90, 42.70 587.10, 43.00 588.00 C 43.30 588.90, 43.69 590.10, 44.02 591.00 C 44.35 591.90, 44.85 593.10, 45.21 594.00 C 45.57 594.90, 46.01 596.10, 46.39 597.00 C 46.77 597.90, 47.33 599.10, 47.75 600.00 C 48.18 600.90, 48.80 602.10, 49.25 603.00 C 49.70 603.90, 50.30 605.10, 50.75 606.00 C 51.20 606.90, 51.79 608.10, 52.25 609.00 C 52.71 609.90, 53.30 611.10, 53.81 612.00 C 54.32 612.90, 55.09 614.10, 55.67 615.00 C 56.25 615.90, 57.05 617.10, 57.69 618.00 C 58.32 618.90, 59.21 620.10, 59.88 621.00 C 60.55 621.90, 61.47 623.10, 62.18 624.00 C 62.89 624.90, 63.88 626.10, 64.62 627.00 C 65.35 627.90, 66.27 629.10, 67.08 630.00 C 67.89 630.90, 69.11 632.10, 70.00 633.00 C 70.89 633.90, 72.10 635.10, 73.00 636.00 C 73.90 636.90, 75.10 638.12, 76.00 638.99 C 76.90 639.86, 78.10 641.02, 79.00 641.80 C 79.90 642.58, 81.10 643.45, 82.00 644.17 C 82.90 644.90, 84.10 645.91, 85.00 646.61 C 85.90 647.32, 87.10 648.22, 88.00 648.87 C 88.90 649.53, 90.10 650.39, 91.00 650.98 C 91.90 651.56, 93.10 652.24, 94.00 652.79 C 94.90 653.34, 96.10 654.08, 97.00 654.62 C 97.90 655.15, 99.10 655.85, 100.00 656.38 C 100.90 656.92, 102.10 657.69, 103.00 658.19 C 103.90 658.69, 105.10 659.30, 106.00 659.75 C 106.90 660.20, 108.10 660.79, 109.00 661.19 C 109.90 661.59, 111.10 662.01, 112.00 662.39 C 112.90 662.77, 114.10 663.35, 115.00 663.74 C 115.90 664.12, 117.10 664.64, 118.00 664.98 C 118.90 665.32, 120.10 665.70, 121.00 666.00 C 121.90 666.30, 123.10 666.70, 124.00 667.00 C 124.90 667.30, 126.10 667.70, 127.00 668.00 C 127.90 668.30, 129.10 668.71, 130.00 669.00 C 130.90 669.28, 132.10 669.63, 133.00 669.87 C 133.90 670.12, 135.10 670.41, 136.00 670.63 C 136.90 670.85, 138.10 671.16, 139.00 671.37 C 139.90 671.57, 141.10 671.81, 142.00 672.00 C 142.90 672.19, 144.10 672.44, 145.00 672.62 C 145.90 672.79, 147.10 673.00, 148.00 673.17 C 148.90 673.35, 150.10 673.65, 151.00 673.81 C 151.90 673.96, 153.10 674.04, 154.00 674.19 C 154.90 674.34, 156.10 674.68, 157.00 674.80 C 157.90 674.92, 159.10 674.93, 160.00 675.02 C 160.90 675.11, 162.10 675.25, 163.00 675.39 C 163.90 675.52, 165.10 675.83, 166.00 675.92 C 166.90 676.01, 168.10 675.99, 169.00 676.00 C 169.90 676.01, 171.10 676.00, 172.00 676.00 C 172.90 676.00, 174.10 675.97, 175.00 676.02 C 175.90 676.08, 177.10 676.25, 178.00 676.39 C 178.90 676.52, 180.10 676.83, 181.00 676.92 C 181.90 677.01, 183.10 676.99, 184.00 677.00 C 184.90 677.01, 186.10 677.00, 187.00 677.00 C 187.90 677.00, 189.10 677.00, 190.00 677.00 C 190.90 677.00, 192.10 677.03, 193.00 676.98 C 193.90 676.92, 195.10 676.75, 196.00 676.61 C 196.90 676.48, 198.10 676.17, 199.00 676.08 C 199.90 675.99, 201.10 676.01, 202.00 676.00 C 202.90 675.99, 204.10 676.00, 205.00 676.00 C 205.90 676.00, 207.10 676.03, 208.00 675.98 C 208.90 675.92, 210.10 675.75, 211.00 675.61 C 211.90 675.48, 213.10 675.18, 214.00 675.08 C 214.90 674.98, 216.10 675.02, 217.00 674.92 C 217.90 674.82, 219.10 674.52, 220.00 674.39 C 220.90 674.25, 222.10 674.11, 223.00 674.02 C 223.90 673.93, 225.10 673.93, 226.00 673.80 C 226.90 673.67, 228.10 673.35, 229.00 673.17 C 229.90 673.00, 231.10 672.79, 232.00 672.62 C 232.90 672.44, 234.10 672.18, 235.00 672.00 C 235.90 671.82, 237.10 671.56, 238.00 671.38 C 238.90 671.21, 240.10 671.01, 241.00 670.83 C 241.90 670.64, 243.10 670.36, 244.00 670.17 C 244.90 669.99, 246.10 669.82, 247.00 669.59 C 247.90 669.37, 249.10 668.94, 250.00 668.68 C 250.90 668.43, 252.10 668.13, 253.00 667.88 C 253.90 667.62, 255.10 667.26, 256.00 667.00 C 256.90 666.74, 258.10 666.38, 259.00 666.12 C 259.90 665.87, 261.10 665.58, 262.00 665.31 C 262.90 665.05, 264.10 664.63, 265.00 664.33 C 265.90 664.04, 267.10 663.65, 268.00 663.33 C 268.90 663.01, 270.10 662.56, 271.00 662.21 C 271.90 661.86, 273.10 661.36, 274.00 661.00 C 274.90 660.64, 276.10 660.15, 277.00 659.79 C 277.90 659.43, 279.10 658.99, 280.00 658.61 C 280.90 658.23, 282.10 657.66, 283.00 657.26 C 283.90 656.87, 285.10 656.38, 286.00 656.00 C 286.90 655.62, 288.10 655.11, 289.00 654.74 C 289.90 654.36, 291.10 653.73, 292.00 653.47 C 292.90 653.22, 294.10 653.05, 295.00 653.05 C 295.90 653.05, 297.10 653.22, 298.00 653.47 C 298.90 653.73, 300.10 654.34, 301.00 654.76 C 301.90 655.17, 303.10 655.82, 304.00 656.25 C 304.90 656.67, 306.10 657.23, 307.00 657.61 C 307.90 657.99, 309.10 658.43, 310.00 658.79 C 310.90 659.15, 312.10 659.64, 313.00 660.00 C 313.90 660.36, 315.10 660.86, 316.00 661.21 C 316.90 661.56, 318.10 662.01, 319.00 662.33 C 319.90 662.65, 321.10 663.03, 322.00 663.33 C 322.90 663.63, 324.10 664.03, 325.00 664.33 C 325.90 664.63, 327.10 665.04, 328.00 665.33 C 328.90 665.63, 330.10 666.05, 331.00 666.31 C 331.90 666.58, 333.10 666.88, 334.00 667.12 C 334.90 667.35, 336.10 667.65, 337.00 667.88 C 337.90 668.12, 339.10 668.43, 340.00 668.68 C 340.90 668.94, 342.10 669.36, 343.00 669.61 C 343.90 669.86, 345.10 670.16, 346.00 670.37 C 346.90 670.57, 348.10 670.81, 349.00 671.00 C 349.90 671.19, 351.10 671.44, 352.00 671.62 C 352.90 671.79, 354.10 671.99, 355.00 672.17 C 355.90 672.36, 357.10 672.64, 358.00 672.83 C 358.90 673.01, 360.10 673.22, 361.00 673.38 C 361.90 673.55, 363.10 673.80, 364.00 673.93 C 364.90 674.05, 366.10 674.07, 367.00 674.20 C 367.90 674.33, 369.10 674.67, 370.00 674.80 C 370.90 674.93, 372.10 674.95, 373.00 675.07 C 373.90 675.20, 375.10 675.48, 376.00 675.61 C 376.90 675.75, 378.10 675.91, 379.00 675.98 C 379.90 676.05, 381.10 675.98, 382.00 676.08 C 382.90 676.17, 384.10 676.48, 385.00 676.61 C 385.90 676.75, 387.10 676.92, 388.00 676.98 C 388.90 677.03, 390.10 677.00, 391.00 677.00 C 391.90 677.00, 393.10 677.00, 394.00 677.00 C 394.90 677.00, 396.10 676.99, 397.00 677.00 C 397.90 677.01, 399.10 676.99, 400.00 677.08 C 400.90 677.17, 402.10 677.48, 403.00 677.61 C 403.90 677.75, 405.10 677.92, 406.00 677.98 C 406.90 678.03, 408.10 678.00, 409.00 678.00 C 409.90 678.00, 411.10 678.02, 412.00 677.99 C 412.90 677.96, 414.10 677.92, 415.00 677.80 C 415.90 677.68, 417.10 677.32, 418.00 677.20 C 418.90 677.08, 420.10 677.04, 421.00 677.01 C 421.90 676.98, 423.10 677.00, 424.00 677.00 C 424.90 677.00, 426.10 677.01, 427.00 677.00 C 427.90 676.99, 429.10 677.01, 430.00 676.92 C 430.90 676.83, 432.10 676.52, 433.00 676.39 C 433.90 676.25, 435.10 676.09, 436.00 676.02 C 436.90 675.95, 438.10 676.02, 439.00 675.92 C 439.90 675.83, 441.10 675.53, 442.00 675.39 C 442.90 675.24, 444.10 675.10, 445.00 674.94 C 445.90 674.79, 447.10 674.55, 448.00 674.38 C 448.90 674.22, 450.10 674.01, 451.00 673.83 C 451.90 673.64, 453.10 673.36, 454.00 673.17 C 454.90 672.99, 456.10 672.81, 457.00 672.61 C 457.90 672.42, 459.10 672.10, 460.00 671.88 C 460.90 671.66, 462.10 671.35, 463.00 671.12 C 463.90 670.89, 465.10 670.60, 466.00 670.37 C 466.90 670.14, 468.10 669.87, 469.00 669.61 C 469.90 669.36, 471.10 668.96, 472.00 668.67 C 472.90 668.37, 474.10 667.97, 475.00 667.67 C 475.90 667.36, 477.10 666.95, 478.00 666.61 C 478.90 666.27, 480.10 665.74, 481.00 665.38 C 481.90 665.02, 483.10 664.57, 484.00 664.21 C 484.90 663.85, 486.10 663.37, 487.00 663.00 C 487.90 662.63, 489.10 662.14, 490.00 661.73 C 490.90 661.32, 492.10 660.70, 493.00 660.25 C 493.90 659.80, 495.10 659.20, 496.00 658.75 C 496.90 658.30, 498.10 657.70, 499.00 657.25 C 499.90 656.80, 501.10 656.21, 502.00 655.75 C 502.90 655.29, 504.10 654.69, 505.00 654.19 C 505.90 653.69, 507.10 652.92, 508.00 652.38 C 508.90 651.85, 510.10 651.17, 511.00 650.61 C 511.90 650.05, 513.10 649.26, 514.00 648.67 C 514.90 648.07, 516.10 647.28, 517.00 646.67 C 517.90 646.05, 519.10 645.27, 520.00 644.59 C 520.90 643.92, 522.10 642.89, 523.00 642.17 C 523.90 641.46, 525.10 640.54, 526.00 639.83 C 526.90 639.11, 528.10 638.12, 529.00 637.38 C 529.90 636.65, 531.10 635.73, 532.00 634.92 C 532.90 634.11, 534.10 632.89, 535.00 632.00 C 535.90 631.11, 537.11 629.90, 538.00 629.00 C 538.89 628.10, 540.11 626.90, 540.92 626.00 C 541.73 625.10, 542.63 623.90, 543.39 623.00 C 544.14 622.10, 545.20 620.90, 545.94 620.00 C 546.69 619.10, 547.66 617.90, 548.36 617.00 C 549.07 616.10, 549.95 614.90, 550.63 614.00 C 551.31 613.10, 552.22 611.90, 552.87 611.00 C 553.53 610.10, 554.39 608.90, 554.98 608.00 C 555.56 607.10, 556.24 605.90, 556.79 605.00 C 557.34 604.10, 558.08 602.90, 558.62 602.00 C 559.15 601.10, 559.85 599.90, 560.38 599.00 C 560.92 598.10, 561.69 596.90, 562.19 596.00 C 562.69 595.10, 563.29 593.90, 563.75 593.00 C 564.21 592.10, 564.80 590.90, 565.25 590.00 C 565.70 589.10, 566.32 587.90, 566.73 587.00 C 567.14 586.10, 567.63 584.90, 568.00 584.00 C 568.37 583.10, 568.86 581.90, 569.21 581.00 C 569.56 580.10, 570.00 578.90, 570.33 578.00 C 570.66 577.10, 571.05 575.90, 571.39 575.00 C 571.73 574.10, 572.28 572.90, 572.61 572.00 C 572.94 571.10, 573.34 569.90, 573.61 569.00 C 573.88 568.10, 574.13 566.90, 574.39 566.00 C 574.64 565.10, 575.06 563.90, 575.32 563.00 C 575.57 562.10, 575.89 560.90, 576.12 560.00 C 576.35 559.10, 576.63 557.90, 576.82 557.00 C 577.01 556.10, 577.22 554.90, 577.38 554.00 C 577.55 553.10, 577.79 551.90, 577.94 551.00 C 578.10 550.10, 578.24 548.90, 578.39 548.00 C 578.53 547.10, 578.82 545.90, 578.92 545.00 C 579.02 544.10, 578.98 542.90, 579.08 542.00 C 579.18 541.10, 579.48 539.90, 579.61 539.00 C 579.75 538.10, 579.92 536.90, 579.98 536.00 C 580.03 535.10, 580.00 533.90, 580.00 533.00 C 580.00 532.10, 580.00 530.90, 580.00 530.00 C 580.00 529.10, 580.00 527.90, 580.00 527.00 C 580.00 526.10, 580.00 524.90, 580.00 524.00 C 580.00 523.10, 580.00 521.90, 580.00 521.00 C 580.00 520.10, 580.00 518.90, 580.00 518.00 C 580.00 517.10, 580.00 515.90, 580.00 515.00 C 580.00 514.10, 580.01 512.90, 580.00 512.00 C 579.99 511.10, 580.01 509.90, 579.92 509.00 C 579.83 508.10, 579.52 506.90, 579.39 506.00 C 579.25 505.10, 579.11 503.90, 579.02 503.00 C 578.93 502.10, 578.92 500.90, 578.80 500.00 C 578.68 499.10, 578.33 497.90, 578.20 497.00 C 578.07 496.10, 578.05 494.90, 577.93 494.00 C 577.80 493.10, 577.56 491.90, 577.36 491.00 C 577.17 490.10, 576.85 488.90, 576.63 488.00 C 576.41 487.10, 576.11 485.90, 575.88 485.00 C 575.65 484.10, 575.35 482.90, 575.12 482.00 C 574.89 481.10, 574.60 479.90, 574.37 479.00 C 574.14 478.10, 573.87 476.90, 573.61 476.00 C 573.36 475.10, 572.96 473.90, 572.67 473.00 C 572.37 472.10, 571.97 470.90, 571.67 470.00 C 571.37 469.10, 570.97 467.90, 570.67 467.00 C 570.37 466.10, 569.97 464.90, 569.67 464.00 C 569.36 463.10, 568.95 461.90, 568.61 461.00 C 568.27 460.10, 567.74 458.90, 567.38 458.00 C 567.02 457.10, 566.57 455.90, 566.21 455.00 C 565.85 454.10, 565.37 452.90, 565.00 452.00 C 564.63 451.10, 564.13 449.90, 563.74 449.00 C 563.34 448.10, 562.77 446.90, 562.39 446.00 C 562.01 445.10, 561.59 443.90, 561.19 443.00 C 560.79 442.10, 560.20 440.90, 559.75 440.00 C 559.30 439.10, 558.69 437.90, 558.19 437.00 C 557.69 436.10, 556.90 434.90, 556.39 434.00 C 555.87 433.10, 555.23 431.90, 554.75 431.00 C 554.28 430.10, 553.72 428.90, 553.25 428.00 C 552.77 427.10, 552.13 425.90, 551.61 425.00 C 551.09 424.10, 550.33 422.90, 549.79 422.00 C 549.25 421.10, 548.55 419.90, 547.98 419.00 C 547.42 418.10, 546.58 416.90, 546.02 416.00 C 545.45 415.10, 544.76 413.90, 544.21 413.00 C 543.66 412.10, 542.91 410.90, 542.33 410.00 C 541.75 409.10, 540.93 407.90, 540.33 407.00 C 539.73 406.10, 538.94 404.90, 538.33 404.00 C 537.73 403.10, 536.95 401.90, 536.31 401.00 C 535.68 400.10, 534.78 398.90, 534.12 398.00 C 533.45 397.10, 532.55 395.90, 531.88 395.00 C 531.21 394.10, 530.31 392.90, 529.63 392.00 C 528.95 391.10, 528.06 389.90, 527.37 389.00 C 526.67 388.10, 525.71 386.90, 525.00 386.00 C 524.29 385.10, 523.34 383.90, 522.62 383.00 C 521.89 382.10, 520.90 380.90, 520.17 380.00 C 519.45 379.10, 518.55 377.90, 517.81 377.00 C 517.06 376.10, 515.94 374.90, 515.19 374.00 C 514.44 373.10, 513.56 371.90, 512.81 371.00 C 512.06 370.10, 510.94 368.90, 510.19 368.00 C 509.44 367.10, 508.58 365.90, 507.80 365.00 C 507.02 364.10, 505.81 362.90, 505.02 362.00 C 504.22 361.10, 503.06 359.90, 502.50 359.00 C 501.94 358.10, 501.38 356.90, 501.26 356.00 C 501.14 355.10, 501.29 353.86, 501.71 353.02 C 502.12 352.19, 503.24 351.12, 504.03 350.41 C 504.83 349.71, 506.10 348.95, 507.00 348.33 C 507.90 347.72, 509.10 346.93, 510.00 346.33 C 510.90 345.73, 512.10 344.93, 513.00 344.33 C 513.90 343.73, 515.10 342.94, 516.00 342.33 C 516.90 341.73, 518.10 340.95, 519.00 340.31 C 519.90 339.68, 521.10 338.77, 522.00 338.12 C 522.90 337.48, 524.10 336.62, 525.00 336.00 C 525.90 335.39, 527.10 334.60, 528.00 334.00 C 528.90 333.40, 530.10 332.61, 531.00 332.00 C 531.90 331.38, 533.10 330.52, 534.00 329.88 C 534.90 329.23, 536.10 328.32, 537.00 327.68 C 537.90 327.05, 539.10 326.26, 540.00 325.61 C 540.90 324.96, 542.10 324.04, 543.00 323.37 C 543.90 322.70, 545.10 321.78, 546.00 321.13 C 546.90 320.47, 548.10 319.64, 549.00 319.00 C 549.90 318.36, 551.10 317.53, 552.00 316.87 C 552.90 316.22, 554.10 315.31, 555.00 314.63 C 555.90 313.95, 557.10 313.06, 558.00 312.37 C 558.90 311.67, 560.10 310.71, 561.00 310.00 C 561.90 309.29, 563.10 308.33, 564.00 307.63 C 564.90 306.94, 566.10 306.07, 567.00 305.36 C 567.90 304.66, 569.10 303.69, 570.00 302.94 C 570.90 302.20, 572.10 301.14, 573.00 300.39 C 573.90 299.64, 575.10 298.70, 576.00 297.93 C 576.90 297.15, 578.10 295.97, 579.00 295.20 C 579.90 294.43, 581.10 293.58, 582.00 292.80 C 582.90 292.02, 584.10 290.84, 585.00 290.00 C 585.90 289.16, 587.10 287.98, 588.00 287.20 C 588.90 286.42, 590.10 285.58, 591.00 284.80 C 591.90 284.02, 593.10 282.86, 594.00 281.99 C 594.90 281.12, 596.10 279.90, 597.00 279.00 C 597.90 278.10, 599.10 276.90, 600.00 276.00 C 600.90 275.10, 602.10 273.88, 603.00 273.01 C 603.90 272.14, 605.11 270.98, 606.00 270.20 C 606.89 269.42, 608.11 268.58, 608.92 267.80 C 609.73 267.02, 610.62 265.86, 611.39 264.99 C 612.15 264.12, 613.18 262.90, 614.02 262.00 C 614.87 261.10, 616.10 259.90, 617.00 259.00 C 617.90 258.10, 619.10 256.90, 620.00 256.00 C 620.90 255.10, 622.10 253.90, 623.00 253.00 C 623.90 252.10, 625.10 250.90, 626.00 250.00 C 626.90 249.10, 628.12 247.90, 628.99 247.00 C 629.86 246.10, 631.02 244.90, 631.80 244.00 C 632.58 243.10, 633.42 241.90, 634.20 241.00 C 634.98 240.10, 636.15 238.90, 637.00 238.00 C 637.86 237.10, 639.11 235.90, 639.92 235.00 C 640.73 234.10, 641.63 232.90, 642.39 232.00 C 643.15 231.10, 644.22 229.90, 645.00 229.00 C 645.78 228.10, 646.85 226.90, 647.61 226.00 C 648.37 225.10, 649.31 223.90, 650.06 223.00 C 650.81 222.10, 651.86 220.90, 652.61 220.00 C 653.36 219.10, 654.31 217.90, 655.06 217.00 C 655.80 216.10, 656.88 214.90, 657.61 214.00 C 658.33 213.10, 659.19 211.90, 659.88 211.00 C 660.57 210.10, 661.46 208.90, 662.19 208.00 C 662.93 207.10, 664.06 205.90, 664.81 205.00 C 665.56 204.10, 666.44 202.90, 667.19 202.00 C 667.94 201.10, 669.07 199.90, 669.81 199.00 C 670.54 198.10, 671.43 196.90, 672.12 196.00 C 672.80 195.10, 673.69 193.90, 674.37 193.00 C 675.05 192.10, 675.94 190.90, 676.63 190.00 C 677.33 189.10, 678.29 187.90, 679.00 187.00 C 679.71 186.10, 680.66 184.90, 681.38 184.00 C 682.11 183.10, 683.11 181.90, 683.82 181.00 C 684.53 180.10, 685.44 178.90, 686.12 178.00 C 686.80 177.10, 687.69 175.90, 688.37 175.00 C 689.05 174.10, 689.95 172.90, 690.63 172.00 C 691.31 171.10, 692.20 169.90, 692.88 169.00 C 693.56 168.10, 694.47 166.90, 695.18 166.00 C 695.88 165.10, 696.92 163.90, 697.59 163.00 C 698.27 162.10, 699.04 160.90, 699.68 160.00 C 700.33 159.10, 701.22 157.90, 701.88 157.00 C 702.55 156.10, 703.45 154.90, 704.12 154.00 C 704.79 153.10, 705.69 151.90, 706.37 151.00 C 707.05 150.10, 707.95 148.90, 708.63 148.00 C 709.31 147.10, 710.22 145.90, 710.87 145.00 C 711.53 144.10, 712.36 142.90, 713.00 142.00 C 713.64 141.10, 714.47 139.90, 715.13 139.00 C 715.78 138.10, 716.69 136.90, 717.37 136.00 C 718.05 135.10, 718.95 133.90, 719.63 133.00 C 720.31 132.10, 721.21 130.90, 721.88 130.00 C 722.55 129.10, 723.45 127.90, 724.12 127.00 C 724.79 126.10, 725.70 124.90, 726.37 124.00 C 727.04 123.10, 727.96 121.90, 728.61 121.00 C 729.26 120.10, 730.04 118.90, 730.68 118.00 C 731.33 117.10, 732.22 115.90, 732.88 115.00 C 733.55 114.10, 734.45 112.90, 735.12 112.00 C 735.78 111.10, 736.67 109.90, 737.32 109.00 C 737.96 108.10, 738.74 106.90, 739.39 106.00 C 740.04 105.10, 740.96 103.90, 741.63 103.00 C 742.30 102.10, 743.22 100.90, 743.87 100.00 C 744.53 99.10, 745.36 97.90, 746.00 97.00 C 746.64 96.10, 747.47 94.90, 748.13 94.00 C 748.78 93.10, 749.70 91.90, 750.37 91.00 C 751.04 90.10, 751.96 88.90, 752.61 88.00 C 753.26 87.10, 754.04 85.90, 754.68 85.00 C 755.33 84.10, 756.22 82.90, 756.88 82.00 C 757.55 81.10, 758.45 79.90, 759.12 79.00 C 759.79 78.10, 760.69 76.90, 761.37 76.00 C 762.05 75.10, 762.95 73.90, 763.63 73.00 C 764.31 72.10, 765.21 70.90, 765.88 70.00 C 766.55 69.10, 767.46 67.90, 768.12 67.00 C 768.78 66.10, 769.71 64.90, 770.31 64.00 C 770.91 63.10, 771.69 61.90, 772.11 61.00 C 772.53 60.10, 772.86 58.90, 773.11 58.00 C 773.36 57.10, 773.70 55.90, 773.78 55.00 C 773.85 54.10, 773.74 52.90, 773.60 52.00 C 773.46 51.10, 773.16 49.90, 772.85 49.00 C 772.53 48.10, 772.08 46.89, 771.50 46.00 C 770.92 45.11, 769.80 43.86, 768.97 43.09 C 768.15 42.31, 766.90 41.38, 766.00 40.84 C 765.10 40.30, 763.90 39.75, 763.00 39.48 C 762.10 39.20, 760.90 39.10, 760.00 39.03 C 759.10 38.95, 757.90 39.00, 757.00 39.00 C 756.10 39.00, 754.90 39.00, 754.00 39.00 C 753.10 39.00, 751.90 39.00, 751.00 39.00 C 750.10 39.00, 748.90 39.00, 748.00 39.00 C 747.10 39.00, 745.90 39.00, 745.00 39.00 C 744.10 39.00, 742.90 39.00, 742.00 39.00 C 741.10 39.00, 739.90 39.00, 739.00 39.00 C 738.10 39.00, 736.90 39.00, 736.00 39.00 C 735.10 39.00, 733.90 39.00, 733.00 39.00 C 732.10 39.00, 730.90 39.00, 730.00 39.00 C 729.10 39.00, 727.90 39.00, 727.00 39.00 C 726.10 39.00, 724.90 39.00, 724.00 39.00 C 723.10 39.00, 721.90 39.00, 721.00 39.00 C 720.10 39.00, 718.90 39.00, 718.00 39.00 C 717.10 39.00, 715.90 39.00, 715.00 39.00 C 714.10 39.00, 712.90 39.00, 712.00 39.00 C 711.10 39.00, 709.90 39.00, 709.00 39.00 C 708.10 39.00, 706.90 39.00, 706.00 39.00 C 705.10 39.00, 703.90 39.00, 703.00 39.00 C 702.10 39.00, 700.90 39.00, 700.00 39.00 C 699.10 39.00, 697.90 39.00, 697.00 39.00 C 696.10 39.00, 694.90 39.00, 694.00 39.00 C 693.10 39.00, 691.90 39.00, 691.00 39.00 C 690.10 39.00, 688.90 39.00, 688.00 39.00 C 687.10 39.00, 685.90 39.00, 685.00 39.00 C 684.10 39.00, 682.90 39.00, 682.00 39.00 C 681.10 39.00, 679.90 39.00, 679.00 39.00 C 678.10 39.00, 676.90 39.00, 676.00 39.00 C 675.10 39.00, 673.90 39.00, 673.00 39.00 C 672.10 39.00, 670.90 39.00, 670.00 39.00 C 669.10 39.00, 667.90 39.00, 667.00 39.00 C 666.10 39.00, 664.90 39.00, 664.00 39.00 C 663.10 39.00, 661.90 39.00, 661.00 39.00 C 660.10 39.00, 658.90 39.00, 658.00 39.00 C 657.10 39.00, 655.90 39.00, 655.00 39.00 C 654.10 39.00, 652.90 39.00, 652.00 39.00 C 651.10 39.00, 649.90 39.00, 649.00 39.00 C 648.10 39.00, 646.90 39.00, 646.00 39.00 C 645.10 39.00, 643.90 39.00, 643.00 39.00 C 642.10 39.00, 640.90 39.00, 640.00 39.00 C 639.10 39.00, 637.90 39.00, 637.00 39.00 C 636.10 39.00, 634.90 39.00, 634.00 39.00 C 633.10 39.00, 631.90 39.00, 631.00 39.00 C 630.10 39.00, 628.90 39.00, 628.00 39.00 C 627.10 39.00, 625.90 39.00, 625.00 39.00 C 624.10 39.00, 622.90 39.00, 622.00 39.00 C 621.10 39.00, 619.90 39.00, 619.00 39.00 C 618.10 39.00, 616.90 39.00, 616.00 39.00 C 615.10 39.00, 613.90 39.00, 613.00 39.00 C 612.10 39.00, 610.90 39.00, 610.00 39.00 C 609.10 39.00, 607.90 39.00, 607.00 39.00 C 606.10 39.00, 604.90 39.00, 604.00 39.00 C 603.10 39.00, 601.90 39.00, 601.00 39.00 C 600.10 39.00, 598.90 39.00, 598.00 39.00 C 597.10 39.00, 595.90 39.00, 595.00 39.00 C 594.10 39.00, 592.90 39.00, 592.00 39.00 C 591.10 39.00, 589.90 39.00, 589.00 39.00 C 588.10 39.00, 586.90 39.00, 586.00 39.00 C 585.10 39.00, 583.90 39.00, 583.00 39.00 C 582.10 39.00, 580.90 39.00, 580.00 39.00 C 579.10 39.00, 577.90 39.00, 577.00 39.00 C 576.10 39.00, 574.90 39.00, 574.00 39.00 C 573.10 39.00, 571.90 39.00, 571.00 39.00 C 570.10 39.00, 568.90 39.00, 568.00 39.00 C 567.10 39.00, 565.90 39.00, 565.00 39.00 C 564.10 39.00, 562.90 39.00, 562.00 39.00 C 561.10 39.00, 559.90 39.00, 559.00 39.00 C 558.10 39.00, 556.90 39.00, 556.00 39.00 C 555.10 39.00, 553.90 38.97, 553.00 39.01 C 552.10 39.04, 550.90 39.05, 550.00 39.21 C 549.10 39.36, 547.90 39.69, 547.00 40.03 C 546.10 40.37, 544.89 40.90, 544.00 41.49 C 543.11 42.09, 541.86 43.20, 541.09 44.03 C 540.31 44.85, 539.38 46.10, 538.84 47.00 C 538.30 47.90, 537.75 49.10, 537.48 50.00 C 537.20 50.90, 537.08 52.10, 537.03 53.00 C 536.97 53.90, 536.96 55.10, 537.09 56.00 C 537.21 56.90, 537.48 58.10, 537.84 59.00 C 538.20 59.90, 538.85 61.13, 539.48 61.99 C 540.10 62.86, 541.20 64.07, 542.03 64.78 C 542.85 65.48, 544.10 66.25, 545.00 66.70 C 545.90 67.15, 547.10 67.58, 548.00 67.78 C 548.90 67.97, 550.10 67.96, 551.00 67.99 C 551.90 68.03, 553.10 68.00, 554.00 68.00 C 554.90 68.00, 556.10 68.00, 557.00 68.00 C 557.90 68.00, 559.10 68.00, 560.00 68.00 C 560.90 68.00, 562.10 68.00, 563.00 68.00 C 563.90 68.00, 565.10 68.00, 566.00 68.00 C 566.90 68.00, 568.10 68.00, 569.00 68.00 C 569.90 68.00, 571.10 68.00, 572.00 68.00 C 572.90 68.00, 574.10 68.00, 575.00 68.00 C 575.90 68.00, 577.10 68.00, 578.00 68.00 C 578.90 68.00, 580.10 68.00, 581.00 68.00 C 581.90 68.00, 583.10 68.00, 584.00 68.00 C 584.90 68.00, 586.10 68.00, 587.00 68.00 C 587.90 68.00, 589.10 68.00, 590.00 68.00 C 590.90 68.00, 592.10 68.00, 593.00 68.00 C 593.90 68.00, 595.10 68.00, 596.00 68.00 C 596.90 68.00, 598.10 68.00, 599.00 68.00 C 599.90 68.00, 601.10 68.00, 602.00 68.00 C 602.90 68.00, 604.10 68.00, 605.00 68.00 C 605.90 68.00, 607.10 68.00, 608.00 68.00 C 608.90 68.00, 610.10 68.00, 611.00 68.00 C 611.90 68.00, 613.10 68.00, 614.00 68.00 C 614.90 68.00, 616.10 68.00, 617.00 68.00 C 617.90 68.00, 619.10 68.00, 620.00 68.00 C 620.90 68.00, 622.10 68.00, 623.00 68.00 C 623.90 68.00, 625.10 68.00, 626.00 68.00 C 626.90 68.00, 628.10 68.00, 629.00 68.00 C 629.90 68.00, 631.10 68.00, 632.00 68.00 C 632.90 68.00, 634.10 68.00, 635.00 68.00 C 635.90 68.00, 637.10 68.00, 638.00 68.00 C 638.90 68.00, 640.10 68.00, 641.00 68.00 C 641.90 68.00, 643.10 68.00, 644.00 68.00 C 644.90 68.00, 646.10 68.00, 647.00 68.00 C 647.90 68.00, 649.10 68.00, 650.00 68.00 C 650.90 68.00, 652.10 68.00, 653.00 68.00 C 653.90 68.00, 655.10 68.00, 656.00 68.00 C 656.90 68.00, 658.10 68.00, 659.00 68.00 C 659.90 68.00, 661.10 68.00, 662.00 68.00 C 662.90 68.00, 664.10 68.00, 665.00 68.00 C 665.90 68.00, 667.10 68.00, 668.00 68.00 C 668.90 68.00, 670.10 68.00, 671.00 68.00 C 671.90 68.00, 673.10 68.00, 674.00 68.00 C 674.90 68.00, 676.10 68.00, 677.00 68.00 C 677.90 68.00, 679.10 68.00, 680.00 68.00 C 680.90 68.00, 682.10 68.00, 683.00 68.00 C 683.90 68.00, 685.10 68.00, 686.00 68.00 C 686.90 68.00, 688.10 68.00, 689.00 68.00 C 689.90 68.00, 691.10 68.00, 692.00 68.00 C 692.90 68.00, 694.10 68.00, 695.00 68.00 C 695.90 68.00, 697.10 68.00, 698.00 68.00 C 698.90 68.00, 700.10 68.00, 701.00 68.00 C 701.90 68.00, 703.10 68.00, 704.00 68.00 C 704.90 68.00, 706.10 68.00, 707.00 68.00 C 707.90 68.00, 709.10 68.00, 710.00 68.00 C 710.90 68.00, 712.10 68.00, 713.00 68.00 C 713.90 68.00, 715.10 68.00, 716.00 68.00 C 716.90 68.00, 718.10 68.00, 719.00 68.00 C 719.90 68.00, 721.12 67.96, 722.00 68.01 C 722.88 68.05, 724.19 67.99, 724.89 68.31 C 725.59 68.63, 726.44 69.41, 726.66 70.11 C 726.88 70.81, 726.68 72.12, 726.37 73.00 C 726.07 73.88, 725.20 75.10, 724.60 76.00 C 724.01 76.90, 723.03 78.10, 722.39 79.00 C 721.75 79.90, 720.96 81.10, 720.32 82.00 C 719.67 82.90, 718.78 84.10, 718.12 85.00 C 717.45 85.90, 716.55 87.10, 715.88 88.00 C 715.21 88.90, 714.30 90.10, 713.63 91.00 C 712.96 91.90, 712.04 93.10, 711.39 94.00 C 710.74 94.90, 709.96 96.10, 709.32 97.00 C 708.67 97.90, 707.78 99.10, 707.12 100.00 C 706.45 100.90, 705.55 102.10, 704.88 103.00 C 704.21 103.90, 703.30 105.10, 702.63 106.00 C 701.96 106.90, 701.04 108.10, 700.39 109.00 C 699.74 109.90, 698.97 111.10, 698.31 112.00 C 697.65 112.90, 696.70 114.10, 696.00 115.00 C 695.30 115.90, 694.33 117.10, 693.63 118.00 C 692.94 118.90, 692.04 120.10, 691.39 121.00 C 690.74 121.90, 689.96 123.10, 689.32 124.00 C 688.67 124.90, 687.78 126.10, 687.12 127.00 C 686.45 127.90, 685.55 129.10, 684.88 130.00 C 684.21 130.90, 683.31 132.10, 682.63 133.00 C 681.95 133.90, 681.05 135.10, 680.37 136.00 C 679.69 136.90, 678.79 138.10, 678.12 139.00 C 677.45 139.90, 676.56 141.10, 675.88 142.00 C 675.20 142.90, 674.32 144.10, 673.61 145.00 C 672.91 145.90, 671.89 147.10, 671.18 148.00 C 670.47 148.90, 669.57 150.10, 668.88 151.00 C 668.20 151.90, 667.32 153.10, 666.61 154.00 C 665.91 154.90, 664.89 156.10, 664.17 157.00 C 663.46 157.90, 662.54 159.10, 661.83 160.00 C 661.11 160.90, 660.09 162.10, 659.39 163.00 C 658.68 163.90, 657.80 165.10, 657.12 166.00 C 656.43 166.90, 655.53 168.10, 654.82 169.00 C 654.11 169.90, 653.12 171.10, 652.38 172.00 C 651.65 172.90, 650.69 174.10, 649.94 175.00 C 649.20 175.90, 648.13 177.10, 647.39 178.00 C 646.65 178.90, 645.72 180.10, 645.00 181.00 C 644.28 181.90, 643.36 183.10, 642.61 184.00 C 641.86 184.90, 640.78 186.10, 640.00 187.00 C 639.22 187.90, 638.15 189.10, 637.39 190.00 C 636.63 190.90, 635.69 192.10, 634.94 193.00 C 634.19 193.90, 633.14 195.10, 632.39 196.00 C 631.64 196.90, 630.70 198.10, 629.93 199.00 C 629.15 199.90, 627.97 201.10, 627.20 202.00 C 626.43 202.90, 625.58 204.10, 624.80 205.00 C 624.02 205.90, 622.84 207.10, 622.00 208.00 C 621.16 208.90, 619.98 210.10, 619.20 211.00 C 618.42 211.90, 617.58 213.10, 616.80 214.00 C 616.02 214.90, 614.86 216.10, 613.99 217.00 C 613.12 217.90, 611.90 219.10, 611.00 220.00 C 610.10 220.90, 608.87 222.10, 608.02 223.00 C 607.18 223.90, 606.15 225.10, 605.39 226.00 C 604.62 226.90, 603.73 228.10, 602.92 229.00 C 602.11 229.90, 600.89 231.10, 600.00 232.00 C 599.11 232.90, 597.90 234.10, 597.00 235.00 C 596.10 235.90, 594.90 237.10, 594.00 238.00 C 593.10 238.90, 591.90 240.10, 591.00 241.00 C 590.10 241.90, 588.90 243.10, 588.00 244.00 C 587.10 244.90, 585.90 246.13, 585.00 246.98 C 584.10 247.82, 582.90 248.85, 582.00 249.61 C 581.10 250.38, 579.90 251.27, 579.00 252.08 C 578.10 252.89, 576.90 254.11, 576.00 255.00 C 575.10 255.89, 573.90 257.11, 573.00 258.00 C 572.10 258.89, 570.90 260.11, 570.00 260.92 C 569.10 261.73, 567.90 262.62, 567.00 263.39 C 566.10 264.15, 564.90 265.19, 564.00 266.02 C 563.10 266.85, 561.90 268.12, 561.00 268.92 C 560.10 269.73, 558.90 270.63, 558.00 271.39 C 557.10 272.15, 555.90 273.22, 555.00 274.00 C 554.10 274.78, 552.90 275.85, 552.00 276.61 C 551.10 277.37, 549.90 278.30, 549.00 279.07 C 548.10 279.85, 546.90 281.04, 546.00 281.80 C 545.10 282.57, 543.90 283.45, 543.00 284.17 C 542.10 284.90, 540.90 285.88, 540.00 286.62 C 539.10 287.35, 537.90 288.31, 537.00 289.06 C 536.10 289.80, 534.90 290.87, 534.00 291.61 C 533.10 292.35, 531.90 293.28, 531.00 294.00 C 530.10 294.72, 528.90 295.66, 528.00 296.38 C 527.10 297.11, 525.90 298.11, 525.00 298.83 C 524.10 299.54, 522.90 300.46, 522.00 301.17 C 521.10 301.89, 519.90 302.91, 519.00 303.61 C 518.10 304.32, 516.90 305.20, 516.00 305.88 C 515.10 306.56, 513.90 307.45, 513.00 308.12 C 512.10 308.78, 510.90 309.67, 510.00 310.32 C 509.10 310.96, 507.90 311.74, 507.00 312.39 C 506.10 313.03, 504.90 313.97, 504.00 314.61 C 503.10 315.25, 501.90 316.06, 501.00 316.67 C 500.10 317.27, 498.90 318.07, 498.00 318.67 C 497.10 319.27, 495.90 320.07, 495.00 320.67 C 494.10 321.27, 492.90 322.07, 492.00 322.67 C 491.10 323.26, 489.90 324.05, 489.00 324.61 C 488.10 325.17, 486.90 325.84, 486.00 326.39 C 485.10 326.94, 483.90 327.81, 483.00 328.30 C 482.10 328.80, 480.88 329.53, 480.01 329.68 C 479.14 329.83, 477.98 329.70, 477.20 329.29 C 476.42 328.89, 475.58 327.76, 474.80 326.97 C 474.02 326.17, 472.86 324.90, 471.99 324.00 C 471.12 323.10, 469.90 321.90, 469.00 321.00 C 468.10 320.10, 466.90 318.90, 466.00 318.00 C 465.10 317.10, 463.90 315.90, 463.00 315.00 C 462.10 314.10, 460.90 312.90, 460.00 312.00 C 459.10 311.10, 457.90 309.90, 457.00 309.00 C 456.10 308.10, 454.90 306.90, 454.00 306.00 C 453.10 305.10, 451.90 303.90, 451.00 303.00 C 450.10 302.10, 448.90 300.90, 448.00 300.00 C 447.10 299.10, 445.90 297.90, 445.00 297.00 C 444.10 296.10, 442.90 294.90, 442.00 294.00 C 441.10 293.10, 439.90 291.90, 439.00 291.00 C 438.10 290.10, 436.90 288.90, 436.00 288.00 C 435.10 287.10, 433.90 285.87, 433.00 285.02 C 432.10 284.18, 430.90 283.15, 430.00 282.39 C 429.10 281.62, 427.90 280.73, 427.00 279.92 C 426.10 279.11, 424.90 277.89, 424.00 277.00 C 423.10 276.11, 421.90 274.90, 421.00 274.00 C 420.10 273.10, 418.90 271.87, 418.00 271.02 C 417.10 270.18, 415.90 269.15, 415.00 268.39 C 414.10 267.62, 412.86 266.73, 412.01 265.92 C 411.15 265.11, 409.88 263.88, 409.31 263.00 C 408.74 262.11, 408.22 260.85, 408.22 260.03 C 408.22 259.20, 408.74 258.12, 409.31 257.47 C 409.88 256.83, 411.15 256.26, 412.01 255.74 C 412.86 255.21, 414.10 254.53, 415.00 254.00 C 415.90 253.47, 417.10 252.75, 418.00 252.21 C 418.90 251.67, 420.10 250.92, 421.00 250.38 C 421.90 249.85, 423.10 249.15, 424.00 248.62 C 424.90 248.08, 426.10 247.34, 427.00 246.79 C 427.90 246.25, 429.10 245.55, 430.00 244.98 C 430.90 244.41, 432.10 243.59, 433.00 243.00 C 433.90 242.41, 435.10 241.59, 436.00 241.02 C 436.90 240.45, 438.10 239.76, 439.00 239.21 C 439.90 238.66, 441.10 237.91, 442.00 237.33 C 442.90 236.75, 444.10 235.94, 445.00 235.33 C 445.90 234.73, 447.10 233.95, 448.00 233.31 C 448.90 232.68, 450.10 231.77, 451.00 231.12 C 451.90 230.48, 453.10 229.64, 454.00 229.00 C 454.90 228.36, 456.10 227.53, 457.00 226.87 C 457.90 226.22, 459.10 225.31, 460.00 224.63 C 460.90 223.95, 462.10 223.05, 463.00 222.37 C 463.90 221.69, 465.10 220.80, 466.00 220.12 C 466.90 219.44, 468.10 218.53, 469.00 217.82 C 469.90 217.11, 471.10 216.12, 472.00 215.38 C 472.90 214.65, 474.10 213.72, 475.00 212.92 C 475.90 212.13, 477.10 210.88, 478.00 210.08 C 478.90 209.28, 480.10 208.38, 481.00 207.61 C 481.90 206.85, 483.10 205.82, 484.00 204.98 C 484.90 204.13, 486.10 202.90, 487.00 202.00 C 487.90 201.10, 489.10 199.90, 490.00 199.00 C 490.90 198.10, 492.11 196.90, 493.00 196.00 C 493.89 195.10, 495.11 193.90, 495.92 193.00 C 496.73 192.10, 497.63 190.90, 498.39 190.00 C 499.15 189.10, 500.22 187.90, 501.00 187.00 C 501.78 186.10, 502.87 184.90, 503.61 184.00 C 504.34 183.10, 505.22 181.90, 505.87 181.00 C 506.53 180.10, 507.38 178.90, 508.00 178.00 C 508.61 177.10, 509.40 175.90, 510.00 175.00 C 510.60 174.10, 511.42 172.90, 511.98 172.00 C 512.54 171.10, 513.23 169.90, 513.73 169.00 C 514.24 168.10, 514.89 166.90, 515.37 166.00 C 515.85 165.10, 516.51 163.90, 516.94 163.00 C 517.37 162.10, 517.85 160.90, 518.27 160.00 C 518.69 159.10, 519.32 157.90, 519.73 157.00 C 520.14 156.10, 520.64 154.90, 520.98 154.00 C 521.32 153.10, 521.71 151.90, 522.00 151.00 C 522.28 150.10, 522.63 148.90, 522.87 148.00 C 523.12 147.10, 523.41 145.90, 523.63 145.00 C 523.85 144.10, 524.17 142.90, 524.36 142.00 C 524.56 141.10, 524.79 139.90, 524.94 139.00 C 525.10 138.10, 525.24 136.90, 525.39 136.00 C 525.53 135.10, 525.83 133.90, 525.92 133.00 C 526.01 132.10, 525.99 130.90, 526.00 130.00 C 526.01 129.10, 526.00 127.90, 526.00 127.00 C 526.00 126.10, 526.00 124.90, 526.00 124.00 C 526.00 123.10, 526.00 121.90, 526.00 121.00 C 526.00 120.10, 526.02 118.90, 525.99 118.00 C 525.96 117.10, 525.92 115.90, 525.80 115.00 C 525.68 114.10, 525.35 112.90, 525.17 112.00 C 525.00 111.10, 524.79 109.90, 524.62 109.00 C 524.44 108.10, 524.19 106.90, 524.00 106.00 C 523.80 105.10, 523.56 103.90, 523.31 103.00 C 523.06 102.10, 522.63 100.90, 522.33 100.00 C 522.04 99.10, 521.63 97.90, 521.33 97.00 C 521.03 96.10, 520.65 94.90, 520.33 94.00 C 520.01 93.10, 519.58 91.90, 519.19 91.00 C 518.80 90.10, 518.19 88.90, 517.75 88.00 C 517.31 87.10, 516.72 85.90, 516.25 85.00 C 515.77 84.10, 515.13 82.90, 514.61 82.00 C 514.09 81.10, 513.35 79.90, 512.79 79.00 C 512.22 78.10, 511.48 76.90, 510.86 76.00 C 510.23 75.10, 509.30 73.90, 508.63 73.00 C 507.96 72.10, 507.07 70.90, 506.36 70.00 C 505.66 69.10, 504.73 67.90, 503.92 67.00 C 503.12 66.10, 501.89 64.90, 501.00 64.00 C 500.11 63.10, 498.90 61.87, 498.00 61.02 C 497.10 60.18, 495.90 59.13, 495.00 58.39 C 494.10 57.66, 492.90 56.78, 492.00 56.13 C 491.10 55.47, 489.90 54.62, 489.00 54.00 C 488.10 53.39, 486.90 52.60, 486.00 52.00 C 485.10 51.40, 483.90 50.58, 483.00 50.02 C 482.10 49.46, 480.90 48.76, 480.00 48.27 C 479.10 47.78, 477.90 47.20, 477.00 46.75 C 476.10 46.30, 474.90 45.68, 474.00 45.27 C 473.10 44.86, 471.90 44.36, 471.00 44.02 C 470.10 43.68, 468.90 43.31, 468.00 42.98 C 467.10 42.65, 465.90 42.13, 465.00 41.81 C 464.10 41.49, 462.90 41.15, 462.00 40.88 C 461.10 40.61, 459.90 40.26, 459.00 40.00 C 458.10 39.75, 456.90 39.39, 456.00 39.18 C 455.10 38.97, 453.90 38.79, 453.00 38.62 C 452.10 38.45, 450.90 38.21, 450.00 38.06 C 449.10 37.90, 447.90 37.76, 447.00 37.61 C 446.10 37.47, 444.90 37.17, 444.00 37.08 C 443.10 36.99, 441.90 37.04, 441.00 37.00 C 440.10 36.95, 438.90 36.92, 438.00 36.80 C 437.10 36.68, 435.90 36.32, 435.00 36.20 C 434.10 36.08, 432.90 36.04, 432.00 36.01 C 431.10 35.98, 429.90 36.00, 429.00 36.00 C 428.10 36.00, 426.90 35.99, 426.00 36.00 C 425.10 36.01, 423.75 36.02, 423.00 36.08 C 422.25 36.14, 421.75 36.26, 421.00 36.39 Z M 257.00 343.84 C 257.60 343.68, 259.10 343.14, 260.00 343.20 C 260.90 343.25, 262.10 343.75, 263.00 344.23 C 263.90 344.71, 265.10 345.70, 266.00 346.39 C 266.90 347.08, 268.10 348.10, 269.00 348.83 C 269.90 349.55, 271.10 350.45, 272.00 351.19 C 272.90 351.94, 274.10 353.06, 275.00 353.81 C 275.90 354.56, 277.10 355.43, 278.00 356.20 C 278.90 356.97, 280.10 358.15, 281.00 358.93 C 281.90 359.70, 283.10 360.62, 284.00 361.39 C 284.90 362.15, 286.10 363.18, 287.00 364.02 C 287.90 364.87, 289.10 366.10, 290.00 367.00 C 290.90 367.90, 292.10 369.10, 293.00 370.00 C 293.90 370.90, 295.10 372.10, 296.00 373.00 C 296.90 373.90, 298.10 375.10, 299.00 376.00 C 299.90 376.90, 301.10 378.10, 302.00 379.00 C 302.90 379.90, 304.11 381.10, 305.00 382.00 C 305.89 382.90, 307.11 384.10, 307.92 385.00 C 308.73 385.90, 309.63 387.10, 310.39 388.00 C 311.14 388.90, 312.20 390.10, 312.94 391.00 C 313.69 391.90, 314.65 393.10, 315.38 394.00 C 316.12 394.90, 317.11 396.10, 317.82 397.00 C 318.53 397.90, 319.44 399.10, 320.12 400.00 C 320.80 400.90, 321.70 402.10, 322.37 403.00 C 323.04 403.90, 323.96 405.10, 324.61 406.00 C 325.26 406.90, 326.05 408.10, 326.68 409.00 C 327.32 409.90, 328.25 411.10, 328.86 412.00 C 329.46 412.90, 330.27 414.10, 330.70 415.00 C 331.13 415.90, 331.65 417.11, 331.74 418.00 C 331.83 418.89, 331.71 420.12, 331.29 420.92 C 330.88 421.72, 329.76 422.64, 328.97 423.31 C 328.17 423.98, 326.90 424.74, 326.00 425.39 C 325.10 426.03, 323.90 426.97, 323.00 427.61 C 322.10 428.25, 320.90 429.05, 320.00 429.67 C 319.10 430.28, 317.90 431.04, 317.00 431.69 C 316.10 432.34, 314.90 433.30, 314.00 434.00 C 313.10 434.70, 311.90 435.67, 311.00 436.37 C 310.10 437.06, 308.90 437.94, 308.00 438.63 C 307.10 439.33, 305.90 440.29, 305.00 441.00 C 304.10 441.71, 302.90 442.67, 302.00 443.37 C 301.10 444.06, 299.90 444.93, 299.00 445.64 C 298.10 446.34, 296.90 447.31, 296.00 448.06 C 295.10 448.80, 293.90 449.86, 293.00 450.61 C 292.10 451.37, 290.90 452.27, 290.00 453.08 C 289.10 453.88, 287.90 455.15, 287.00 455.98 C 286.10 456.81, 284.90 457.85, 284.00 458.61 C 283.10 459.38, 281.90 460.27, 281.00 461.08 C 280.10 461.89, 278.90 463.11, 278.00 464.00 C 277.10 464.89, 275.90 466.10, 275.00 467.00 C 274.10 467.90, 272.90 469.10, 272.00 470.00 C 271.10 470.90, 269.88 472.10, 269.01 473.00 C 268.14 473.90, 266.98 475.10, 266.20 476.00 C 265.42 476.90, 264.58 478.10, 263.80 479.00 C 263.02 479.90, 261.83 481.10, 261.02 482.00 C 260.21 482.90, 259.14 484.10, 258.39 485.00 C 257.64 485.90, 256.71 487.10, 256.00 488.00 C 255.29 488.90, 254.33 490.10, 253.63 491.00 C 252.94 491.90, 252.05 493.10, 251.37 494.00 C 250.69 494.90, 249.78 496.10, 249.13 497.00 C 248.47 497.90, 247.62 499.10, 247.00 500.00 C 246.39 500.90, 245.60 502.10, 245.00 503.00 C 244.40 503.90, 243.58 505.10, 243.02 506.00 C 242.46 506.90, 241.78 508.10, 241.26 509.00 C 240.75 509.90, 240.13 511.10, 239.61 512.00 C 239.09 512.90, 238.31 514.10, 237.81 515.00 C 237.31 515.90, 236.71 517.10, 236.25 518.00 C 235.79 518.90, 235.20 520.10, 234.75 521.00 C 234.30 521.90, 233.68 523.10, 233.27 524.00 C 232.86 524.90, 232.37 526.10, 232.00 527.00 C 231.63 527.90, 231.14 529.10, 230.79 530.00 C 230.44 530.90, 229.99 532.10, 229.67 533.00 C 229.35 533.90, 228.96 535.10, 228.67 536.00 C 228.37 536.90, 227.95 538.10, 227.69 539.00 C 227.42 539.90, 227.11 541.10, 226.88 542.00 C 226.66 542.90, 226.36 544.10, 226.19 545.00 C 226.03 545.90, 225.96 547.10, 225.81 548.00 C 225.66 548.90, 225.32 550.10, 225.20 551.00 C 225.08 551.90, 225.04 553.10, 225.01 554.00 C 224.98 554.90, 225.00 556.10, 225.00 557.00 C 225.00 557.90, 225.00 559.10, 225.00 560.00 C 225.00 560.90, 225.00 562.10, 225.00 563.00 C 225.00 563.90, 225.00 565.10, 225.00 566.00 C 225.00 566.90, 224.97 568.10, 225.02 569.00 C 225.08 569.90, 225.24 571.10, 225.39 572.00 C 225.54 572.90, 225.81 574.10, 226.00 575.00 C 226.19 575.90, 226.43 577.10, 226.63 578.00 C 226.84 578.90, 227.14 580.10, 227.37 581.00 C 227.60 581.90, 227.87 583.10, 228.14 584.00 C 228.42 584.90, 228.88 586.10, 229.21 587.00 C 229.55 587.90, 230.01 589.10, 230.39 590.00 C 230.77 590.90, 231.33 592.10, 231.75 593.00 C 232.18 593.90, 232.79 595.10, 233.25 596.00 C 233.71 596.90, 234.31 598.10, 234.81 599.00 C 235.31 599.90, 236.07 601.10, 236.62 602.00 C 237.16 602.90, 237.84 604.10, 238.45 605.00 C 239.05 605.90, 239.97 607.10, 240.63 608.00 C 241.30 608.90, 242.20 610.10, 242.88 611.00 C 243.57 611.90, 244.43 613.10, 245.20 614.00 C 245.97 614.90, 247.14 616.10, 248.01 617.00 C 248.88 617.90, 250.11 619.10, 251.00 620.00 C 251.89 620.90, 253.17 622.10, 253.97 623.00 C 254.76 623.90, 255.87 625.10, 256.30 626.00 C 256.73 626.90, 256.95 628.16, 256.86 628.97 C 256.77 629.78, 256.27 630.83, 255.69 631.38 C 255.11 631.93, 253.85 632.33, 252.99 632.66 C 252.14 632.99, 250.90 633.35, 250.00 633.61 C 249.10 633.87, 247.90 634.13, 247.00 634.39 C 246.10 634.64, 244.90 635.06, 244.00 635.32 C 243.10 635.57, 241.90 635.88, 241.00 636.12 C 240.10 636.35, 238.90 636.66, 238.00 636.88 C 237.10 637.10, 235.90 637.42, 235.00 637.61 C 234.10 637.81, 232.90 638.00, 232.00 638.17 C 231.10 638.35, 229.90 638.65, 229.00 638.81 C 228.10 638.96, 226.90 639.04, 226.00 639.19 C 225.10 639.34, 223.90 639.66, 223.00 639.81 C 222.10 639.96, 220.90 640.04, 220.00 640.19 C 219.10 640.34, 217.90 640.68, 217.00 640.80 C 216.10 640.92, 214.90 640.94, 214.00 641.00 C 213.10 641.06, 211.90 641.08, 211.00 641.20 C 210.10 641.32, 208.90 641.68, 208.00 641.80 C 207.10 641.92, 205.90 641.96, 205.00 641.99 C 204.10 642.02, 202.90 642.00, 202.00 642.00 C 201.10 642.00, 199.90 642.00, 199.00 642.00 C 198.10 642.00, 196.90 642.00, 196.00 642.00 C 195.10 642.00, 193.90 642.00, 193.00 642.00 C 192.10 642.00, 190.90 642.00, 190.00 642.00 C 189.10 642.00, 187.90 642.00, 187.00 642.00 C 186.10 642.00, 184.90 642.00, 184.00 642.00 C 183.10 642.00, 181.90 642.00, 181.00 642.00 C 180.10 642.00, 178.90 642.00, 178.00 642.00 C 177.10 642.00, 175.90 642.03, 175.00 641.98 C 174.10 641.92, 172.90 641.75, 172.00 641.61 C 171.10 641.48, 169.90 641.20, 169.00 641.07 C 168.10 640.95, 166.90 640.93, 166.00 640.80 C 165.10 640.67, 163.90 640.34, 163.00 640.19 C 162.10 640.04, 160.90 639.96, 160.00 639.81 C 159.10 639.65, 157.90 639.35, 157.00 639.17 C 156.10 639.00, 154.90 638.81, 154.00 638.61 C 153.10 638.42, 151.90 638.10, 151.00 637.88 C 150.10 637.66, 148.90 637.35, 148.00 637.12 C 147.10 636.88, 145.90 636.58, 145.00 636.31 C 144.10 636.05, 142.90 635.63, 142.00 635.33 C 141.10 635.04, 139.90 634.65, 139.00 634.33 C 138.10 634.01, 136.90 633.56, 136.00 633.21 C 135.10 632.86, 133.90 632.37, 133.00 632.00 C 132.10 631.63, 130.90 631.14, 130.00 630.73 C 129.10 630.32, 127.90 629.70, 127.00 629.25 C 126.10 628.80, 124.90 628.22, 124.00 627.73 C 123.10 627.24, 121.90 626.54, 121.00 625.98 C 120.10 625.42, 118.90 624.60, 118.00 624.00 C 117.10 623.40, 115.90 622.62, 115.00 621.99 C 114.10 621.37, 112.90 620.51, 112.00 619.82 C 111.10 619.13, 109.90 618.12, 109.00 617.38 C 108.10 616.65, 106.90 615.73, 106.00 614.92 C 105.10 614.11, 103.87 612.89, 103.02 612.00 C 102.18 611.11, 101.15 609.90, 100.39 609.00 C 99.63 608.10, 98.69 606.90, 97.94 606.00 C 97.20 605.10, 96.10 603.90, 95.41 603.00 C 94.72 602.10, 93.94 600.90, 93.33 600.00 C 92.73 599.10, 91.93 597.90, 91.39 597.00 C 90.86 596.10, 90.23 594.90, 89.75 594.00 C 89.28 593.10, 88.70 591.90, 88.25 591.00 C 87.80 590.10, 87.20 588.90, 86.75 588.00 C 86.30 587.10, 85.68 585.90, 85.27 585.00 C 84.86 584.10, 84.36 582.90, 84.02 582.00 C 83.68 581.10, 83.29 579.90, 83.00 579.00 C 82.72 578.10, 82.37 576.90, 82.13 576.00 C 81.88 575.10, 81.59 573.90, 81.37 573.00 C 81.15 572.10, 80.83 570.90, 80.64 570.00 C 80.44 569.10, 80.21 567.90, 80.06 567.00 C 79.90 566.10, 79.76 564.90, 79.61 564.00 C 79.47 563.10, 79.17 561.90, 79.08 561.00 C 78.99 560.10, 79.01 558.90, 79.00 558.00 C 78.99 557.10, 79.00 555.90, 79.00 555.00 C 79.00 554.10, 79.00 552.90, 79.00 552.00 C 79.00 551.10, 79.00 549.90, 79.00 549.00 C 79.00 548.10, 79.00 546.90, 79.00 546.00 C 79.00 545.10, 79.00 543.90, 79.00 543.00 C 79.00 542.10, 78.98 540.90, 79.01 540.00 C 79.04 539.10, 79.08 537.90, 79.20 537.00 C 79.32 536.10, 79.67 534.90, 79.80 534.00 C 79.93 533.10, 79.95 531.90, 80.07 531.00 C 80.20 530.10, 80.45 528.90, 80.62 528.00 C 80.78 527.10, 80.99 525.90, 81.18 525.00 C 81.37 524.10, 81.65 522.90, 81.88 522.00 C 82.11 521.10, 82.43 519.90, 82.68 519.00 C 82.94 518.10, 83.35 516.90, 83.61 516.00 C 83.88 515.10, 84.15 513.90, 84.45 513.00 C 84.75 512.10, 85.28 510.90, 85.61 510.00 C 85.95 509.10, 86.34 507.90, 86.67 507.00 C 87.00 506.10, 87.44 504.90, 87.79 504.00 C 88.14 503.10, 88.63 501.90, 89.00 501.00 C 89.37 500.10, 89.86 498.90, 90.27 498.00 C 90.68 497.10, 91.31 495.90, 91.75 495.00 C 92.19 494.10, 92.79 492.90, 93.19 492.00 C 93.59 491.10, 94.00 489.90, 94.39 489.00 C 94.78 488.10, 95.33 486.90, 95.81 486.00 C 96.30 485.10, 97.09 483.90, 97.61 483.00 C 98.13 482.10, 98.75 480.90, 99.26 480.00 C 99.78 479.10, 100.46 477.90, 101.02 477.00 C 101.58 476.10, 102.42 474.90, 102.98 474.00 C 103.55 473.10, 104.23 471.90, 104.79 471.00 C 105.35 470.10, 106.08 468.90, 106.69 468.00 C 107.30 467.10, 108.23 465.90, 108.88 465.00 C 109.52 464.10, 110.36 462.90, 111.00 462.00 C 111.64 461.10, 112.47 459.90, 113.13 459.00 C 113.78 458.10, 114.68 456.90, 115.39 456.00 C 116.09 455.10, 117.10 453.90, 117.83 453.00 C 118.55 452.10, 119.45 450.90, 120.19 450.00 C 120.94 449.10, 122.06 447.90, 122.81 447.00 C 123.56 446.10, 124.42 444.90, 125.20 444.00 C 125.98 443.10, 127.17 441.90, 127.98 441.00 C 128.79 440.10, 129.85 438.90, 130.61 438.00 C 131.38 437.10, 132.27 435.90, 133.08 435.00 C 133.89 434.10, 135.11 432.90, 136.00 432.00 C 136.89 431.10, 138.10 429.90, 139.00 429.00 C 139.90 428.10, 141.10 426.90, 142.00 426.00 C 142.90 425.10, 144.10 423.90, 145.00 423.00 C 145.90 422.10, 147.10 420.90, 148.00 420.00 C 148.90 419.10, 150.10 417.90, 151.00 417.00 C 151.90 416.10, 153.10 414.90, 154.00 414.00 C 154.90 413.10, 156.10 411.88, 157.00 411.01 C 157.90 410.14, 159.10 408.98, 160.00 408.20 C 160.90 407.42, 162.10 406.58, 163.00 405.80 C 163.90 405.02, 165.10 403.84, 166.00 403.00 C 166.90 402.16, 168.10 400.97, 169.00 400.20 C 169.90 399.43, 171.10 398.57, 172.00 397.88 C 172.90 397.19, 174.10 396.32, 175.00 395.61 C 175.90 394.91, 177.10 393.89, 178.00 393.18 C 178.90 392.47, 180.10 391.56, 181.00 390.88 C 181.90 390.20, 183.10 389.30, 184.00 388.63 C 184.90 387.96, 186.10 387.03, 187.00 386.39 C 187.90 385.74, 189.10 384.94, 190.00 384.33 C 190.90 383.73, 192.10 382.93, 193.00 382.33 C 193.90 381.73, 195.10 380.94, 196.00 380.33 C 196.90 379.73, 198.10 378.94, 199.00 378.31 C 199.90 377.69, 201.10 376.76, 202.00 376.14 C 202.90 375.53, 204.10 374.78, 205.00 374.21 C 205.90 373.65, 207.10 372.93, 208.00 372.38 C 208.90 371.84, 210.10 371.17, 211.00 370.61 C 211.90 370.05, 213.10 369.24, 214.00 368.67 C 214.90 368.10, 216.10 367.33, 217.00 366.81 C 217.90 366.29, 219.10 365.70, 220.00 365.19 C 220.90 364.68, 222.10 363.92, 223.00 363.38 C 223.90 362.85, 225.10 362.15, 226.00 361.62 C 226.90 361.08, 228.10 360.33, 229.00 359.79 C 229.90 359.25, 231.10 358.53, 232.00 358.00 C 232.90 357.47, 234.10 356.77, 235.00 356.26 C 235.90 355.76, 237.10 355.13, 238.00 354.61 C 238.90 354.09, 240.10 353.32, 241.00 352.81 C 241.90 352.30, 243.10 351.70, 244.00 351.19 C 244.90 350.68, 246.10 349.91, 247.00 349.39 C 247.90 348.87, 249.10 348.24, 250.00 347.74 C 250.90 347.23, 252.10 346.52, 253.00 346.00 C 253.90 345.48, 255.40 344.62, 256.00 344.30 C 256.60 343.97, 256.40 344.01, 257.00 343.84 Z M 467.00 373.90 C 467.75 373.63, 469.10 373.13, 470.00 373.20 C 470.90 373.26, 472.12 373.74, 472.99 374.31 C 473.86 374.88, 475.02 376.15, 475.80 377.01 C 476.58 377.86, 477.45 379.10, 478.17 380.00 C 478.90 380.90, 479.91 382.10, 480.61 383.00 C 481.32 383.90, 482.20 385.10, 482.88 386.00 C 483.56 386.90, 484.45 388.10, 485.12 389.00 C 485.78 389.90, 486.67 391.10, 487.32 392.00 C 487.96 392.90, 488.73 394.10, 489.41 395.00 C 490.08 395.90, 491.13 397.10, 491.82 398.00 C 492.51 398.90, 493.35 400.10, 494.00 401.00 C 494.64 401.90, 495.48 403.10, 496.12 404.00 C 496.77 404.90, 497.68 406.10, 498.32 407.00 C 498.95 407.90, 499.74 409.10, 500.39 410.00 C 501.03 410.90, 501.97 412.10, 502.61 413.00 C 503.25 413.90, 504.06 415.10, 504.67 416.00 C 505.27 416.90, 506.07 418.10, 506.67 419.00 C 507.26 419.90, 508.05 421.10, 508.61 422.00 C 509.17 422.90, 509.83 424.10, 510.39 425.00 C 510.95 425.90, 511.76 427.10, 512.33 428.00 C 512.90 428.90, 513.68 430.10, 514.19 431.00 C 514.70 431.90, 515.29 433.10, 515.75 434.00 C 516.21 434.90, 516.80 436.10, 517.25 437.00 C 517.70 437.90, 518.30 439.10, 518.75 440.00 C 519.20 440.90, 519.80 442.10, 520.25 443.00 C 520.70 443.90, 521.32 445.10, 521.73 446.00 C 522.14 446.90, 522.62 448.10, 523.00 449.00 C 523.38 449.90, 523.87 451.10, 524.26 452.00 C 524.66 452.90, 525.23 454.10, 525.61 455.00 C 525.99 455.90, 526.43 457.10, 526.79 458.00 C 527.15 458.90, 527.64 460.10, 528.00 461.00 C 528.36 461.90, 528.87 463.10, 529.19 464.00 C 529.51 464.90, 529.84 466.10, 530.12 467.00 C 530.39 467.90, 530.71 469.10, 531.02 470.00 C 531.34 470.90, 531.87 472.10, 532.21 473.00 C 532.55 473.90, 533.02 475.10, 533.31 476.00 C 533.60 476.90, 533.88 478.10, 534.12 479.00 C 534.36 479.90, 534.65 481.10, 534.88 482.00 C 535.11 482.90, 535.41 484.10, 535.63 485.00 C 535.85 485.90, 536.15 487.10, 536.37 488.00 C 536.59 488.90, 536.90 490.10, 537.12 491.00 C 537.34 491.90, 537.63 493.10, 537.82 494.00 C 538.01 494.90, 538.22 496.10, 538.38 497.00 C 538.55 497.90, 538.82 499.10, 538.92 500.00 C 539.02 500.90, 538.95 502.10, 539.02 503.00 C 539.09 503.90, 539.25 505.10, 539.39 506.00 C 539.52 506.90, 539.83 508.10, 539.92 509.00 C 540.01 509.90, 539.99 511.10, 540.00 512.00 C 540.01 512.90, 540.00 514.10, 540.00 515.00 C 540.00 515.90, 540.00 517.10, 540.00 518.00 C 540.00 518.90, 540.00 520.10, 540.00 521.00 C 540.00 521.90, 540.00 523.10, 540.00 524.00 C 540.00 524.90, 540.00 526.10, 540.00 527.00 C 540.00 527.90, 540.02 529.10, 539.99 530.00 C 539.96 530.90, 539.92 532.10, 539.80 533.00 C 539.68 533.90, 539.32 535.10, 539.20 536.00 C 539.08 536.90, 539.07 538.10, 538.98 539.00 C 538.89 539.90, 538.76 541.10, 538.61 542.00 C 538.46 542.90, 538.19 544.10, 538.00 545.00 C 537.81 545.90, 537.57 547.10, 537.37 548.00 C 537.16 548.90, 536.86 550.10, 536.61 551.00 C 536.36 551.90, 535.95 553.10, 535.68 554.00 C 535.42 554.90, 535.13 556.10, 534.88 557.00 C 534.62 557.90, 534.28 559.10, 534.00 560.00 C 533.71 560.90, 533.31 562.10, 532.98 563.00 C 532.65 563.90, 532.15 565.10, 531.79 566.00 C 531.43 566.90, 530.99 568.10, 530.61 569.00 C 530.23 569.90, 529.67 571.10, 529.25 572.00 C 528.82 572.90, 528.20 574.10, 527.75 575.00 C 527.30 575.90, 526.70 577.10, 526.25 578.00 C 525.80 578.90, 525.22 580.10, 524.73 581.00 C 524.24 581.90, 523.54 583.10, 522.98 584.00 C 522.42 584.90, 521.60 586.10, 521.00 587.00 C 520.40 587.90, 519.61 589.10, 519.00 590.00 C 518.38 590.90, 517.53 592.10, 516.87 593.00 C 516.22 593.90, 515.33 595.10, 514.61 596.00 C 513.88 596.90, 512.80 598.10, 512.06 599.00 C 511.31 599.90, 510.37 601.10, 509.61 602.00 C 508.85 602.90, 507.82 604.12, 506.98 604.99 C 506.13 605.86, 504.90 607.02, 504.00 607.80 C 503.10 608.58, 501.90 609.43, 501.00 610.20 C 500.10 610.97, 498.90 612.15, 498.00 612.93 C 497.10 613.70, 495.90 614.66, 495.00 615.36 C 494.10 616.07, 492.90 616.96, 492.00 617.63 C 491.10 618.30, 489.90 619.23, 489.00 619.86 C 488.10 620.48, 486.90 621.22, 486.00 621.79 C 485.10 622.35, 483.90 623.09, 483.00 623.61 C 482.10 624.13, 480.90 624.77, 480.00 625.25 C 479.10 625.72, 477.90 626.30, 477.00 626.75 C 476.10 627.20, 474.90 627.80, 474.00 628.25 C 473.10 628.70, 471.90 629.31, 471.00 629.75 C 470.10 630.19, 468.90 630.80, 468.00 631.19 C 467.10 631.58, 465.90 632.01, 465.00 632.33 C 464.10 632.65, 462.90 633.03, 462.00 633.33 C 461.10 633.63, 459.90 634.03, 459.00 634.33 C 458.10 634.63, 456.90 635.04, 456.00 635.33 C 455.10 635.63, 453.90 636.05, 453.00 636.31 C 452.10 636.58, 450.90 636.88, 450.00 637.12 C 449.10 637.35, 447.90 637.66, 447.00 637.88 C 446.10 638.10, 444.90 638.42, 444.00 638.61 C 443.10 638.81, 441.90 639.00, 441.00 639.17 C 440.10 639.35, 438.90 639.67, 438.00 639.80 C 437.10 639.94, 435.90 639.95, 435.00 640.07 C 434.10 640.20, 432.90 640.47, 432.00 640.61 C 431.10 640.75, 429.90 640.89, 429.00 640.98 C 428.10 641.07, 426.90 641.08, 426.00 641.20 C 425.10 641.32, 423.90 641.68, 423.00 641.80 C 422.10 641.92, 420.90 641.96, 420.00 641.99 C 419.10 642.02, 417.90 642.00, 417.00 642.00 C 416.10 642.00, 414.90 642.00, 414.00 642.00 C 413.10 642.00, 411.90 642.00, 411.00 642.00 C 410.10 642.00, 408.90 642.00, 408.00 642.00 C 407.10 642.00, 405.90 642.00, 405.00 642.00 C 404.10 642.00, 402.90 642.00, 402.00 642.00 C 401.10 642.00, 399.90 642.00, 399.00 642.00 C 398.10 642.00, 396.90 642.00, 396.00 642.00 C 395.10 642.00, 393.90 642.00, 393.00 642.00 C 392.10 642.00, 390.90 642.02, 390.00 641.99 C 389.10 641.96, 387.90 641.92, 387.00 641.80 C 386.10 641.68, 384.90 641.32, 384.00 641.20 C 383.10 641.08, 381.90 641.07, 381.00 640.98 C 380.10 640.89, 378.90 640.75, 378.00 640.61 C 377.10 640.47, 375.90 640.20, 375.00 640.07 C 374.10 639.95, 372.90 639.93, 372.00 639.80 C 371.10 639.67, 369.90 639.34, 369.00 639.19 C 368.10 639.04, 366.90 638.96, 366.00 638.81 C 365.10 638.65, 363.90 638.35, 363.00 638.17 C 362.10 638.00, 360.90 637.81, 360.00 637.61 C 359.10 637.42, 357.90 637.10, 357.00 636.88 C 356.10 636.66, 354.90 636.35, 354.00 636.12 C 353.10 635.89, 351.90 635.60, 351.00 635.37 C 350.10 635.14, 348.90 634.87, 348.00 634.61 C 347.10 634.36, 345.90 633.95, 345.00 633.67 C 344.10 633.38, 342.90 632.96, 342.00 632.69 C 341.10 632.41, 339.86 632.18, 339.01 631.85 C 338.15 631.52, 336.88 631.08, 336.31 630.50 C 335.74 629.92, 335.22 628.79, 335.22 627.98 C 335.22 627.16, 335.74 625.88, 336.31 625.08 C 336.88 624.27, 338.15 623.38, 339.01 622.61 C 339.86 621.85, 341.10 620.82, 342.00 619.98 C 342.90 619.13, 344.10 617.90, 345.00 617.00 C 345.90 616.10, 347.10 614.90, 348.00 614.00 C 348.90 613.10, 350.13 611.90, 350.98 611.00 C 351.82 610.10, 352.85 608.90, 353.61 608.00 C 354.38 607.10, 355.30 605.90, 356.07 605.00 C 356.85 604.10, 358.04 602.90, 358.80 602.00 C 359.56 601.10, 360.43 599.90, 361.12 599.00 C 361.80 598.10, 362.70 596.90, 363.37 596.00 C 364.04 595.10, 364.97 593.90, 365.61 593.00 C 366.25 592.10, 367.04 590.90, 367.61 590.00 C 368.18 589.10, 368.83 587.90, 369.39 587.00 C 369.95 586.10, 370.76 584.90, 371.33 584.00 C 371.90 583.10, 372.68 581.90, 373.19 581.00 C 373.70 580.10, 374.29 578.90, 374.75 578.00 C 375.21 577.10, 375.80 575.90, 376.25 575.00 C 376.70 574.10, 377.31 572.90, 377.75 572.00 C 378.19 571.10, 378.79 569.90, 379.19 569.00 C 379.59 568.10, 380.02 566.90, 380.38 566.00 C 380.75 565.10, 381.25 563.90, 381.62 563.00 C 381.98 562.10, 382.44 560.90, 382.79 560.00 C 383.15 559.10, 383.65 557.90, 383.98 557.00 C 384.31 556.10, 384.71 554.90, 385.00 554.00 C 385.28 553.10, 385.63 551.90, 385.87 551.00 C 386.12 550.10, 386.40 548.90, 386.63 548.00 C 386.86 547.10, 387.14 545.90, 387.39 545.00 C 387.64 544.10, 388.07 542.90, 388.31 542.00 C 388.55 541.10, 388.80 539.90, 389.00 539.00 C 389.19 538.10, 389.45 536.90, 389.61 536.00 C 389.77 535.10, 389.91 533.90, 390.06 533.00 C 390.21 532.10, 390.47 530.90, 390.61 530.00 C 390.75 529.10, 390.88 527.90, 391.00 527.00 C 391.12 526.10, 391.25 524.90, 391.39 524.00 C 391.53 523.10, 391.83 521.90, 391.92 521.00 C 392.01 520.10, 391.99 518.90, 392.00 518.00 C 392.01 517.10, 392.00 515.90, 392.00 515.00 C 392.00 514.10, 392.00 512.90, 392.00 512.00 C 392.00 511.10, 392.00 509.90, 392.00 509.00 C 392.00 508.10, 392.00 506.90, 392.00 506.00 C 392.00 505.10, 392.00 503.90, 392.00 503.00 C 392.00 502.10, 392.00 500.90, 392.00 500.00 C 392.00 499.10, 392.00 497.90, 392.00 497.00 C 392.00 496.10, 392.00 494.90, 392.00 494.00 C 392.00 493.10, 392.03 491.90, 391.98 491.00 C 391.92 490.10, 391.75 488.90, 391.61 488.00 C 391.48 487.10, 391.18 485.90, 391.08 485.00 C 390.98 484.10, 391.02 482.90, 390.92 482.00 C 390.82 481.10, 390.53 479.90, 390.39 479.00 C 390.24 478.10, 390.10 476.90, 389.94 476.00 C 389.79 475.10, 389.55 473.90, 389.38 473.00 C 389.22 472.10, 389.01 470.90, 388.82 470.00 C 388.63 469.10, 388.34 467.90, 388.12 467.00 C 387.90 466.10, 387.59 464.90, 387.37 464.00 C 387.15 463.10, 386.85 461.90, 386.63 461.00 C 386.41 460.10, 386.11 458.90, 385.88 458.00 C 385.65 457.10, 385.35 455.90, 385.12 455.00 C 384.88 454.10, 384.58 452.90, 384.31 452.00 C 384.05 451.10, 383.63 449.90, 383.33 449.00 C 383.04 448.10, 382.63 446.90, 382.33 446.00 C 382.03 445.10, 381.65 443.90, 381.33 443.00 C 381.01 442.10, 380.55 440.90, 380.21 440.00 C 379.86 439.10, 379.32 437.90, 379.02 437.00 C 378.73 436.10, 378.28 434.90, 378.24 434.00 C 378.19 433.10, 378.29 431.86, 378.70 431.02 C 379.12 430.19, 380.24 429.12, 381.03 428.41 C 381.83 427.71, 383.10 426.95, 384.00 426.33 C 384.90 425.72, 386.10 424.93, 387.00 424.33 C 387.90 423.73, 389.10 422.93, 390.00 422.33 C 390.90 421.74, 392.10 420.95, 393.00 420.39 C 393.90 419.83, 395.10 419.17, 396.00 418.61 C 396.90 418.05, 398.10 417.24, 399.00 416.67 C 399.90 416.10, 401.10 415.34, 402.00 414.79 C 402.90 414.24, 404.10 413.55, 405.00 412.98 C 405.90 412.41, 407.10 411.60, 408.00 411.00 C 408.90 410.40, 410.10 409.60, 411.00 409.00 C 411.90 408.40, 413.10 407.59, 414.00 407.02 C 414.90 406.45, 416.10 405.76, 417.00 405.21 C 417.90 404.66, 419.10 403.91, 420.00 403.33 C 420.90 402.75, 422.10 401.92, 423.00 401.33 C 423.90 400.74, 425.10 399.93, 426.00 399.39 C 426.90 398.85, 428.10 398.25, 429.00 397.74 C 429.90 397.22, 431.10 396.54, 432.00 395.98 C 432.90 395.42, 434.10 394.60, 435.00 394.00 C 435.90 393.40, 437.10 392.60, 438.00 392.00 C 438.90 391.40, 440.10 390.60, 441.00 390.00 C 441.90 389.40, 443.10 388.59, 444.00 388.02 C 444.90 387.45, 446.10 386.75, 447.00 386.21 C 447.90 385.66, 449.10 384.92, 450.00 384.38 C 450.90 383.84, 452.10 383.17, 453.00 382.61 C 453.90 382.05, 455.10 381.26, 456.00 380.67 C 456.90 380.08, 458.10 379.25, 459.00 378.67 C 459.90 378.09, 461.10 377.34, 462.00 376.79 C 462.90 376.24, 464.25 375.44, 465.00 375.01 C 465.75 374.57, 466.25 374.17, 467.00 373.90 Z M 421.00 66.61 C 421.75 66.48, 423.10 66.17, 424.00 66.08 C 424.90 65.99, 426.10 66.01, 427.00 66.00 C 427.90 65.99, 429.10 66.00, 430.00 66.00 C 430.90 66.00, 432.10 65.98, 433.00 66.01 C 433.90 66.04, 435.10 66.08, 436.00 66.20 C 436.90 66.32, 438.10 66.67, 439.00 66.80 C 439.90 66.93, 441.10 66.95, 442.00 67.07 C 442.90 67.20, 444.10 67.45, 445.00 67.62 C 445.90 67.78, 447.10 67.99, 448.00 68.18 C 448.90 68.37, 450.10 68.65, 451.00 68.88 C 451.90 69.11, 453.10 69.42, 454.00 69.69 C 454.90 69.95, 456.10 70.35, 457.00 70.67 C 457.90 70.99, 459.10 71.42, 460.00 71.81 C 460.90 72.20, 462.10 72.81, 463.00 73.25 C 463.90 73.69, 465.10 74.28, 466.00 74.75 C 466.90 75.23, 468.10 75.85, 469.00 76.39 C 469.90 76.94, 471.10 77.75, 472.00 78.39 C 472.90 79.03, 474.10 79.93, 475.00 80.64 C 475.90 81.34, 477.11 82.27, 478.00 83.08 C 478.89 83.88, 480.12 85.11, 480.92 86.00 C 481.73 86.89, 482.66 88.10, 483.36 89.00 C 484.07 89.90, 484.97 91.10, 485.61 92.00 C 486.25 92.90, 487.06 94.10, 487.61 95.00 C 488.15 95.90, 488.77 97.10, 489.25 98.00 C 489.72 98.90, 490.31 100.10, 490.75 101.00 C 491.19 101.90, 491.81 103.10, 492.17 104.00 C 492.53 104.90, 492.85 106.10, 493.12 107.00 C 493.39 107.90, 493.75 109.10, 494.00 110.00 C 494.25 110.90, 494.63 112.10, 494.80 113.00 C 494.96 113.90, 494.95 115.10, 495.07 116.00 C 495.20 116.90, 495.48 118.10, 495.61 119.00 C 495.75 119.90, 495.94 121.10, 495.97 122.00 C 496.00 122.90, 495.92 124.10, 495.80 125.00 C 495.69 125.90, 495.32 127.10, 495.20 128.00 C 495.08 128.90, 495.07 130.10, 494.98 131.00 C 494.89 131.90, 494.77 133.10, 494.61 134.00 C 494.44 134.90, 494.12 136.10, 493.87 137.00 C 493.63 137.90, 493.28 139.10, 493.00 140.00 C 492.71 140.90, 492.31 142.10, 491.98 143.00 C 491.65 143.90, 491.15 145.10, 490.79 146.00 C 490.43 146.90, 490.00 148.10, 489.61 149.00 C 489.22 149.90, 488.68 151.10, 488.18 152.00 C 487.69 152.90, 486.90 154.10, 486.33 155.00 C 485.76 155.90, 484.95 157.10, 484.39 158.00 C 483.82 158.90, 483.16 160.10, 482.55 161.00 C 481.95 161.90, 481.05 163.10, 480.36 164.00 C 479.68 164.90, 478.71 166.10, 478.00 167.00 C 477.29 167.90, 476.36 169.10, 475.61 170.00 C 474.86 170.90, 473.82 172.10, 472.98 173.00 C 472.13 173.90, 470.90 175.10, 470.00 176.00 C 469.10 176.90, 467.90 178.10, 467.00 179.00 C 466.10 179.90, 464.90 181.12, 464.00 181.99 C 463.10 182.86, 461.90 184.02, 461.00 184.80 C 460.10 185.58, 458.90 186.43, 458.00 187.20 C 457.10 187.97, 455.90 189.15, 455.00 189.93 C 454.10 190.70, 452.90 191.65, 452.00 192.38 C 451.10 193.12, 449.90 194.11, 449.00 194.82 C 448.10 195.53, 446.90 196.43, 446.00 197.12 C 445.10 197.80, 443.90 198.68, 443.00 199.39 C 442.10 200.09, 440.90 201.13, 440.00 201.82 C 439.10 202.51, 437.90 203.35, 437.00 204.00 C 436.10 204.64, 434.90 205.48, 434.00 206.12 C 433.10 206.77, 431.90 207.68, 431.00 208.32 C 430.10 208.95, 428.90 209.74, 428.00 210.39 C 427.10 211.03, 425.90 211.97, 425.00 212.61 C 424.10 213.25, 422.90 214.06, 422.00 214.67 C 421.10 215.27, 419.90 216.07, 419.00 216.67 C 418.10 217.27, 416.90 218.07, 416.00 218.67 C 415.10 219.26, 413.90 220.05, 413.00 220.61 C 412.10 221.17, 410.90 221.83, 410.00 222.39 C 409.10 222.95, 407.90 223.74, 407.00 224.33 C 406.10 224.92, 404.90 225.75, 404.00 226.33 C 403.10 226.91, 401.90 227.66, 401.00 228.21 C 400.10 228.76, 398.90 229.46, 398.00 230.00 C 397.10 230.54, 395.90 231.25, 395.00 231.79 C 394.10 232.33, 392.90 233.08, 392.00 233.62 C 391.10 234.15, 389.90 234.90, 389.00 235.36 C 388.10 235.82, 386.90 236.51, 386.00 236.71 C 385.10 236.91, 383.90 236.96, 383.00 236.68 C 382.10 236.41, 380.88 235.59, 380.01 234.89 C 379.14 234.19, 377.98 232.88, 377.20 232.00 C 376.42 231.12, 375.58 229.90, 374.80 229.00 C 374.02 228.10, 372.84 226.90, 372.00 226.00 C 371.16 225.10, 369.97 223.90, 369.20 223.00 C 368.43 222.10, 367.57 220.90, 366.88 220.00 C 366.19 219.10, 365.30 217.90, 364.63 217.00 C 363.96 216.10, 363.03 214.90, 362.39 214.00 C 361.74 213.10, 360.94 211.90, 360.33 211.00 C 359.73 210.10, 358.93 208.90, 358.33 208.00 C 357.73 207.10, 356.92 205.90, 356.33 205.00 C 355.74 204.10, 354.93 202.90, 354.39 202.00 C 353.86 201.10, 353.23 199.90, 352.75 199.00 C 352.28 198.10, 351.70 196.90, 351.25 196.00 C 350.80 195.10, 350.20 193.90, 349.75 193.00 C 349.30 192.10, 348.69 190.90, 348.25 190.00 C 347.81 189.10, 347.21 187.90, 346.81 187.00 C 346.41 186.10, 345.97 184.90, 345.62 184.00 C 345.26 183.10, 344.75 181.90, 344.45 181.00 C 344.14 180.10, 343.88 178.90, 343.61 178.00 C 343.35 177.10, 342.93 175.90, 342.69 175.00 C 342.45 174.10, 342.20 172.90, 342.00 172.00 C 341.81 171.10, 341.56 169.90, 341.38 169.00 C 341.21 168.10, 341.00 166.90, 340.83 166.00 C 340.65 165.10, 340.32 163.90, 340.20 163.00 C 340.08 162.10, 340.04 160.90, 340.01 160.00 C 339.98 159.10, 340.00 157.90, 340.00 157.00 C 340.00 156.10, 340.00 154.90, 340.00 154.00 C 340.00 153.10, 340.00 151.90, 340.00 151.00 C 340.00 150.10, 340.00 148.90, 340.00 148.00 C 340.00 147.10, 339.98 145.90, 340.01 145.00 C 340.04 144.10, 340.08 142.90, 340.20 142.00 C 340.32 141.10, 340.65 139.90, 340.83 139.00 C 341.00 138.10, 341.19 136.90, 341.39 136.00 C 341.58 135.10, 341.88 133.90, 342.13 133.00 C 342.37 132.10, 342.72 130.90, 343.00 130.00 C 343.29 129.10, 343.70 127.90, 344.00 127.00 C 344.30 126.10, 344.68 124.90, 345.02 124.00 C 345.36 123.10, 345.86 121.90, 346.27 121.00 C 346.68 120.10, 347.30 118.90, 347.75 118.00 C 348.20 117.10, 348.78 115.90, 349.27 115.00 C 349.76 114.10, 350.47 112.90, 351.00 112.00 C 351.53 111.10, 352.24 109.90, 352.79 109.00 C 353.35 108.10, 354.06 106.90, 354.70 106.00 C 355.33 105.10, 356.30 103.90, 357.00 103.00 C 357.71 102.10, 358.64 100.90, 359.39 100.00 C 360.14 99.10, 361.18 97.90, 362.02 97.00 C 362.87 96.10, 364.10 94.90, 365.00 94.00 C 365.90 93.10, 367.10 91.88, 368.00 91.01 C 368.90 90.14, 370.10 88.98, 371.00 88.20 C 371.90 87.42, 373.10 86.54, 374.00 85.83 C 374.90 85.11, 376.10 84.07, 377.00 83.41 C 377.90 82.74, 379.10 81.96, 380.00 81.39 C 380.90 80.82, 382.10 80.15, 383.00 79.62 C 383.90 79.08, 385.10 78.31, 386.00 77.81 C 386.90 77.31, 388.10 76.71, 389.00 76.25 C 389.90 75.79, 391.10 75.20, 392.00 74.75 C 392.90 74.30, 394.10 73.68, 395.00 73.27 C 395.90 72.86, 397.10 72.36, 398.00 72.02 C 398.90 71.68, 400.10 71.30, 401.00 71.00 C 401.90 70.70, 403.10 70.29, 404.00 70.00 C 404.90 69.72, 406.10 69.37, 407.00 69.13 C 407.90 68.88, 409.10 68.58, 410.00 68.39 C 410.90 68.19, 412.10 68.00, 413.00 67.83 C 413.90 67.65, 415.10 67.33, 416.00 67.20 C 416.90 67.06, 418.25 67.01, 419.00 66.93 C 419.75 66.84, 420.25 66.74, 421.00 66.61 Z M 373.00 277.84 C 373.90 277.50, 375.10 277.14, 376.00 277.12 C 376.90 277.10, 378.10 277.26, 379.00 277.70 C 379.90 278.14, 381.10 279.24, 382.00 280.03 C 382.90 280.83, 384.10 282.10, 385.00 283.00 C 385.90 283.90, 387.10 285.10, 388.00 286.00 C 388.90 286.90, 390.10 288.10, 391.00 289.00 C 391.90 289.90, 393.10 291.10, 394.00 292.00 C 394.90 292.90, 396.10 294.10, 397.00 295.00 C 397.90 295.90, 399.10 297.11, 400.00 298.00 C 400.90 298.89, 402.10 300.11, 403.00 300.92 C 403.90 301.73, 405.10 302.62, 406.00 303.39 C 406.90 304.15, 408.10 305.18, 409.00 306.02 C 409.90 306.87, 411.10 308.10, 412.00 309.00 C 412.90 309.90, 414.10 311.10, 415.00 312.00 C 415.90 312.90, 417.10 314.10, 418.00 315.00 C 418.90 315.90, 420.10 317.10, 421.00 318.00 C 421.90 318.90, 423.10 320.10, 424.00 321.00 C 424.90 321.90, 426.10 323.10, 427.00 324.00 C 427.90 324.90, 429.10 326.10, 430.00 327.00 C 430.90 327.90, 432.10 329.10, 433.00 330.00 C 433.90 330.90, 435.10 332.10, 436.00 333.00 C 436.90 333.90, 438.10 335.10, 439.00 336.00 C 439.90 336.90, 441.10 338.10, 442.00 339.00 C 442.90 339.90, 444.17 341.10, 444.97 342.00 C 445.76 342.90, 446.87 344.10, 447.30 345.00 C 447.73 345.90, 447.95 347.15, 447.86 347.97 C 447.77 348.80, 447.27 349.88, 446.69 350.53 C 446.11 351.17, 444.85 351.74, 443.99 352.26 C 443.14 352.79, 441.90 353.48, 441.00 354.00 C 440.10 354.52, 438.90 355.23, 438.00 355.74 C 437.10 356.24, 435.90 356.87, 435.00 357.39 C 434.10 357.91, 432.90 358.68, 432.00 359.19 C 431.10 359.70, 429.90 360.30, 429.00 360.81 C 428.10 361.32, 426.90 362.09, 426.00 362.61 C 425.10 363.13, 423.90 363.76, 423.00 364.26 C 422.10 364.77, 420.90 365.47, 420.00 366.00 C 419.10 366.53, 417.90 367.25, 417.00 367.79 C 416.10 368.33, 414.90 369.08, 414.00 369.62 C 413.10 370.15, 411.90 370.85, 411.00 371.38 C 410.10 371.92, 408.90 372.67, 408.00 373.21 C 407.10 373.75, 405.90 374.46, 405.00 375.00 C 404.10 375.54, 402.90 376.24, 402.00 376.79 C 401.10 377.34, 399.90 378.10, 399.00 378.67 C 398.10 379.24, 396.90 380.07, 396.00 380.61 C 395.10 381.15, 393.90 381.75, 393.00 382.26 C 392.10 382.78, 390.90 383.46, 390.00 384.02 C 389.10 384.58, 387.90 385.41, 387.00 386.00 C 386.10 386.59, 384.90 387.41, 384.00 387.98 C 383.10 388.55, 381.90 389.25, 381.00 389.79 C 380.10 390.34, 378.90 391.08, 378.00 391.62 C 377.10 392.15, 375.90 392.85, 375.00 393.38 C 374.10 393.92, 372.90 394.66, 372.00 395.21 C 371.10 395.75, 369.90 396.47, 369.00 397.02 C 368.10 397.57, 366.90 398.48, 366.00 398.89 C 365.10 399.31, 363.87 399.81, 363.01 399.78 C 362.14 399.75, 360.95 399.26, 360.20 398.69 C 359.45 398.12, 358.64 396.85, 358.01 395.99 C 357.37 395.14, 356.60 393.90, 356.00 393.00 C 355.40 392.10, 354.60 390.90, 354.00 390.00 C 353.40 389.10, 352.61 387.90, 352.00 387.00 C 351.38 386.10, 350.53 384.90, 349.87 384.00 C 349.22 383.10, 348.32 381.90, 347.61 381.00 C 346.91 380.10, 345.90 378.90, 345.17 378.00 C 344.45 377.10, 343.55 375.90, 342.81 375.00 C 342.06 374.10, 340.94 372.90, 340.19 372.00 C 339.44 371.10, 338.56 369.90, 337.81 369.00 C 337.06 368.10, 335.94 366.90, 335.19 366.00 C 334.44 365.10, 333.58 363.90, 332.80 363.00 C 332.02 362.10, 330.86 360.90, 329.99 360.00 C 329.12 359.10, 327.90 357.90, 327.00 357.00 C 326.10 356.10, 324.90 354.90, 324.00 354.00 C 323.10 353.10, 321.90 351.90, 321.00 351.00 C 320.10 350.10, 318.90 348.90, 318.00 348.00 C 317.10 347.10, 315.90 345.88, 315.00 345.01 C 314.10 344.14, 312.90 342.98, 312.00 342.20 C 311.10 341.42, 309.90 340.58, 309.00 339.80 C 308.10 339.02, 306.90 337.83, 306.00 337.02 C 305.10 336.21, 303.90 335.15, 303.00 334.39 C 302.10 333.63, 300.90 332.69, 300.00 331.94 C 299.10 331.19, 297.83 330.14, 297.03 329.39 C 296.24 328.63, 295.13 327.73, 294.70 326.92 C 294.27 326.12, 294.05 324.84, 294.14 324.02 C 294.23 323.21, 294.73 322.13, 295.31 321.47 C 295.89 320.81, 297.15 320.17, 298.01 319.62 C 298.86 319.07, 300.10 318.32, 301.00 317.81 C 301.90 317.30, 303.10 316.73, 304.00 316.25 C 304.90 315.77, 306.10 315.13, 307.00 314.61 C 307.90 314.10, 309.10 313.32, 310.00 312.81 C 310.90 312.30, 312.10 311.70, 313.00 311.19 C 313.90 310.68, 315.10 309.90, 316.00 309.39 C 316.90 308.87, 318.10 308.23, 319.00 307.75 C 319.90 307.27, 321.10 306.69, 322.00 306.19 C 322.90 305.69, 324.10 304.90, 325.00 304.39 C 325.90 303.87, 327.10 303.23, 328.00 302.75 C 328.90 302.28, 330.10 301.72, 331.00 301.25 C 331.90 300.77, 333.10 300.13, 334.00 299.61 C 334.90 299.10, 336.10 298.31, 337.00 297.81 C 337.90 297.31, 339.10 296.73, 340.00 296.25 C 340.90 295.77, 342.10 295.13, 343.00 294.61 C 343.90 294.09, 345.10 293.33, 346.00 292.79 C 346.90 292.25, 348.10 291.53, 349.00 291.00 C 349.90 290.47, 351.10 289.76, 352.00 289.27 C 352.90 288.78, 354.10 288.21, 355.00 287.75 C 355.90 287.29, 357.10 286.69, 358.00 286.19 C 358.90 285.69, 360.10 284.90, 361.00 284.39 C 361.90 283.87, 363.10 283.23, 364.00 282.75 C 364.90 282.27, 366.10 281.69, 367.00 281.19 C 367.90 280.69, 369.10 279.89, 370.00 279.39 C 370.90 278.89, 372.10 278.18, 373.00 277.84 Z M 344.00 454.92 C 344.75 454.62, 346.16 454.14, 346.97 454.20 C 347.78 454.26, 348.84 454.74, 349.38 455.31 C 349.93 455.88, 350.31 457.15, 350.60 458.01 C 350.90 458.86, 351.14 460.10, 351.37 461.00 C 351.60 461.90, 351.89 463.10, 352.12 464.00 C 352.35 464.90, 352.66 466.10, 352.88 467.00 C 353.10 467.90, 353.42 469.10, 353.61 470.00 C 353.81 470.90, 353.99 472.10, 354.17 473.00 C 354.36 473.90, 354.64 475.10, 354.83 476.00 C 355.01 476.90, 355.22 478.10, 355.38 479.00 C 355.55 479.90, 355.82 481.10, 355.92 482.00 C 356.03 482.90, 355.98 484.10, 356.08 485.00 C 356.18 485.90, 356.48 487.10, 356.61 488.00 C 356.75 488.90, 356.92 490.10, 356.98 491.00 C 357.03 491.90, 357.00 493.10, 357.00 494.00 C 357.00 494.90, 357.00 496.10, 357.00 497.00 C 357.00 497.90, 357.00 499.10, 357.00 500.00 C 357.00 500.90, 357.00 502.10, 357.00 503.00 C 357.00 503.90, 357.00 505.10, 357.00 506.00 C 357.00 506.90, 357.00 508.10, 357.00 509.00 C 357.00 509.90, 357.02 511.10, 356.99 512.00 C 356.96 512.90, 356.92 514.10, 356.80 515.00 C 356.68 515.90, 356.34 517.10, 356.19 518.00 C 356.04 518.90, 355.96 520.10, 355.81 521.00 C 355.66 521.90, 355.34 523.10, 355.19 524.00 C 355.04 524.90, 354.96 526.10, 354.81 527.00 C 354.65 527.90, 354.35 529.10, 354.17 530.00 C 354.00 530.90, 353.81 532.10, 353.61 533.00 C 353.42 533.90, 353.12 535.10, 352.87 536.00 C 352.63 536.90, 352.28 538.10, 352.00 539.00 C 351.71 539.90, 351.30 541.10, 351.00 542.00 C 350.70 542.90, 350.31 544.10, 349.98 545.00 C 349.65 545.90, 349.14 547.10, 348.79 548.00 C 348.44 548.90, 348.00 550.10, 347.67 551.00 C 347.34 551.90, 346.97 553.10, 346.61 554.00 C 346.24 554.90, 345.67 556.10, 345.25 557.00 C 344.82 557.90, 344.20 559.10, 343.75 560.00 C 343.30 560.90, 342.72 562.10, 342.25 563.00 C 341.77 563.90, 341.13 565.10, 340.61 566.00 C 340.09 566.90, 339.33 568.10, 338.79 569.00 C 338.25 569.90, 337.55 571.10, 336.98 572.00 C 336.41 572.90, 335.61 574.10, 335.00 575.00 C 334.38 575.90, 333.53 577.10, 332.87 578.00 C 332.22 578.90, 331.33 580.10, 330.61 581.00 C 329.88 581.90, 328.80 583.10, 328.06 584.00 C 327.31 584.90, 326.37 586.10, 325.61 587.00 C 324.85 587.90, 323.82 589.10, 322.98 590.00 C 322.13 590.90, 320.90 592.10, 320.00 593.00 C 319.10 593.90, 317.90 595.12, 317.00 595.99 C 316.10 596.86, 314.90 598.02, 314.00 598.80 C 313.10 599.58, 311.90 600.45, 311.00 601.17 C 310.10 601.90, 308.90 602.89, 308.00 603.62 C 307.10 604.34, 305.90 605.30, 305.00 606.00 C 304.10 606.70, 302.90 607.72, 302.00 608.28 C 301.10 608.84, 299.90 609.47, 299.00 609.71 C 298.10 609.95, 296.90 610.03, 296.00 609.88 C 295.10 609.74, 293.90 609.26, 293.00 608.77 C 292.10 608.28, 290.90 607.32, 290.00 606.60 C 289.10 605.88, 287.90 604.82, 287.00 603.98 C 286.10 603.13, 284.89 601.90, 284.00 601.00 C 283.11 600.10, 281.88 598.90, 281.08 598.00 C 280.27 597.10, 279.34 595.90, 278.64 595.00 C 277.93 594.10, 277.03 592.90, 276.39 592.00 C 275.75 591.10, 274.94 589.90, 274.39 589.00 C 273.85 588.10, 273.22 586.90, 272.75 586.00 C 272.29 585.10, 271.68 583.90, 271.27 583.00 C 270.86 582.10, 270.36 580.90, 270.02 580.00 C 269.68 579.10, 269.30 577.90, 269.00 577.00 C 268.70 576.10, 268.28 574.90, 268.01 574.00 C 267.74 573.10, 267.38 571.90, 267.20 571.00 C 267.02 570.10, 266.96 568.90, 266.81 568.00 C 266.66 567.10, 266.32 565.90, 266.20 565.00 C 266.08 564.10, 266.03 562.90, 266.01 562.00 C 265.98 561.10, 265.98 559.90, 266.01 559.00 C 266.03 558.10, 266.08 556.90, 266.20 556.00 C 266.32 555.10, 266.67 553.90, 266.80 553.00 C 266.93 552.10, 266.95 550.90, 267.07 550.00 C 267.20 549.10, 267.44 547.90, 267.64 547.00 C 267.83 546.10, 268.14 544.90, 268.37 544.00 C 268.60 543.10, 268.87 541.90, 269.14 541.00 C 269.42 540.10, 269.88 538.90, 270.21 538.00 C 270.55 537.10, 271.02 535.90, 271.38 535.00 C 271.74 534.10, 272.24 532.90, 272.62 532.00 C 272.99 531.10, 273.42 529.90, 273.87 529.00 C 274.32 528.10, 275.10 526.90, 275.61 526.00 C 276.12 525.10, 276.76 523.90, 277.26 523.00 C 277.77 522.10, 278.47 520.90, 279.00 520.00 C 279.53 519.10, 280.23 517.90, 280.81 517.00 C 281.39 516.10, 282.24 514.90, 282.89 514.00 C 283.53 513.10, 284.45 511.90, 285.12 511.00 C 285.79 510.10, 286.69 508.90, 287.37 508.00 C 288.05 507.10, 288.93 505.90, 289.64 505.00 C 290.34 504.10, 291.30 502.90, 292.07 502.00 C 292.85 501.10, 294.03 499.90, 294.80 499.00 C 295.57 498.10, 296.42 496.90, 297.20 496.00 C 297.98 495.10, 299.14 493.90, 300.01 493.00 C 300.88 492.10, 302.10 490.90, 303.00 490.00 C 303.90 489.10, 305.10 487.90, 306.00 487.00 C 306.90 486.10, 308.10 484.90, 309.00 484.00 C 309.90 483.10, 311.10 481.87, 312.00 481.02 C 312.90 480.18, 314.10 479.15, 315.00 478.39 C 315.90 477.62, 317.10 476.72, 318.00 475.92 C 318.90 475.12, 320.10 473.88, 321.00 473.08 C 321.90 472.28, 323.10 471.37, 324.00 470.61 C 324.90 469.86, 326.10 468.80, 327.00 468.06 C 327.90 467.31, 329.10 466.35, 330.00 465.62 C 330.90 464.88, 332.10 463.89, 333.00 463.18 C 333.90 462.47, 335.10 461.57, 336.00 460.88 C 336.90 460.20, 338.10 459.31, 339.00 458.61 C 339.90 457.91, 341.25 456.76, 342.00 456.21 C 342.75 455.65, 343.25 455.22, 344.00 454.92 Z" fill="#000000" fill-rule="evenodd"/>
</svg>
