<svg width="64" height="64" viewBox="0 0 240 240" fill="none" xmlns="http://www.w3.org/2000/svg">
  <rect width="240" height="240" rx="52" fill="#F4F0E8"/>
  <path d="M65 82C65 52 99 42 122 60C142 76 135 105 112 111C83 119 58 134 67 165C77 199 131 192 132 154C133 119 80 112 82 73C84 33 146 31 155 72C162 101 136 118 111 126C84 135 87 181 123 185C159 189 177 153 154 128C140 112 118 109 102 118" stroke="#11100E" stroke-width="13" stroke-linecap="round" stroke-linejoin="round"/>
  <path d="M137 69H190L157 171" stroke="#11100E" stroke-width="13" stroke-linecap="round" stroke-linejoin="round"/>
</svg>
