<svg xmlns="http://www.w3.org/2000/svg" width="783" height="685" viewBox="0 0 783 685" fill="none">
<path d="M 627.00 30.41 C 626.00 30.55, 624.33 30.85, 623.00 30.95 C 621.67 31.04, 620.33 30.99, 619.00 31.00 C 617.67 31.01, 616.33 31.00, 615.00 31.00 C 613.67 31.00, 612.33 31.00, 611.00 31.00 C 609.67 31.00, 608.33 31.00, 607.00 31.00 C 605.67 31.00, 604.33 30.96, 603.00 31.01 C 601.67 31.05, 600.33 31.10, 599.00 31.25 C 597.67 31.39, 596.33 31.75, 595.00 31.87 C 593.67 32.00, 592.33 31.98, 591.00 32.00 C 589.67 32.02, 588.33 31.99, 587.00 32.00 C 585.67 32.01, 584.33 31.96, 583.00 32.05 C 581.67 32.15, 580.33 32.44, 579.00 32.59 C 577.67 32.75, 576.33 32.91, 575.00 32.98 C 573.67 33.05, 572.33 32.99, 571.00 33.00 C 569.67 33.01, 568.33 32.95, 567.00 33.02 C 565.67 33.09, 564.33 33.25, 563.00 33.41 C 561.67 33.56, 560.33 33.84, 559.00 33.95 C 557.67 34.05, 556.33 33.95, 555.00 34.05 C 553.67 34.16, 552.33 34.44, 551.00 34.59 C 549.67 34.75, 548.33 34.90, 547.00 34.98 C 545.67 35.06, 544.33 34.95, 543.00 35.05 C 541.67 35.16, 540.33 35.43, 539.00 35.59 C 537.67 35.75, 536.33 35.86, 535.00 36.00 C 533.67 36.14, 532.33 36.18, 531.00 36.43 C 529.67 36.68, 528.33 36.99, 527.00 37.51 C 525.67 38.03, 524.29 38.64, 523.01 39.56 C 521.73 40.48, 520.29 41.78, 519.33 43.02 C 518.36 44.26, 517.68 45.67, 517.21 47.00 C 516.74 48.33, 516.50 49.67, 516.50 51.00 C 516.50 52.33, 516.74 53.68, 517.21 55.00 C 517.68 56.32, 518.36 57.78, 519.33 58.94 C 520.29 60.10, 521.73 61.24, 523.01 61.98 C 524.29 62.71, 525.67 63.05, 527.00 63.34 C 528.33 63.63, 529.67 63.74, 531.00 63.70 C 532.33 63.66, 533.67 63.28, 535.00 63.12 C 536.33 62.96, 537.67 62.92, 539.00 62.76 C 540.33 62.59, 541.67 62.26, 543.00 62.13 C 544.33 61.99, 545.67 62.07, 547.00 61.95 C 548.33 61.83, 549.67 61.56, 551.00 61.41 C 552.33 61.25, 553.67 61.12, 555.00 61.01 C 556.33 60.90, 557.67 60.90, 559.00 60.75 C 560.33 60.61, 561.67 60.25, 563.00 60.13 C 564.33 60.00, 565.67 60.06, 567.00 60.00 C 568.33 59.93, 569.67 59.90, 571.00 59.75 C 572.33 59.61, 573.67 59.25, 575.00 59.13 C 576.33 59.00, 577.67 59.03, 579.00 59.00 C 580.33 58.97, 581.67 59.04, 583.00 58.95 C 584.33 58.85, 585.67 58.56, 587.00 58.41 C 588.33 58.25, 589.67 58.09, 591.00 58.02 C 592.33 57.95, 593.67 58.02, 595.00 58.00 C 596.33 57.97, 597.67 58.00, 599.00 57.87 C 600.33 57.75, 601.67 57.39, 603.00 57.25 C 604.33 57.10, 605.67 57.05, 607.00 57.01 C 608.33 56.96, 609.67 57.00, 611.00 57.00 C 612.33 57.00, 613.67 57.01, 615.00 57.00 C 616.33 56.99, 617.67 57.04, 619.00 56.95 C 620.33 56.85, 621.67 56.56, 623.00 56.41 C 624.33 56.25, 625.67 56.09, 627.00 56.02 C 628.33 55.95, 629.67 56.00, 631.00 56.00 C 632.33 56.00, 633.67 56.00, 635.00 56.00 C 636.33 56.00, 637.67 56.00, 639.00 56.00 C 640.33 56.00, 641.67 56.00, 643.00 56.00 C 644.33 56.00, 645.67 56.00, 647.00 56.00 C 648.33 56.00, 649.67 56.00, 651.00 56.00 C 652.33 56.00, 653.67 56.00, 655.00 56.00 C 656.33 56.00, 657.67 56.00, 659.00 56.00 C 660.33 56.00, 661.67 56.00, 663.00 56.00 C 664.33 56.00, 665.67 56.00, 667.00 56.00 C 668.33 56.00, 669.67 56.00, 671.00 56.00 C 672.33 56.00, 673.67 56.00, 675.00 56.00 C 676.33 56.00, 677.67 56.00, 679.00 56.00 C 680.33 56.00, 681.67 56.00, 683.00 56.00 C 684.33 56.00, 685.67 56.00, 687.00 56.00 C 688.33 56.00, 689.67 56.00, 691.00 56.00 C 692.33 56.00, 693.67 55.96, 695.00 56.01 C 696.33 56.05, 697.67 56.10, 699.00 56.25 C 700.33 56.39, 701.70 56.68, 703.00 56.88 C 704.29 57.08, 705.93 56.92, 706.77 57.45 C 707.60 57.98, 708.18 58.99, 707.98 60.08 C 707.79 61.17, 706.51 62.68, 705.62 64.00 C 704.72 65.32, 703.62 66.67, 702.63 68.00 C 701.63 69.33, 700.63 70.67, 699.63 72.00 C 698.63 73.33, 697.63 74.67, 696.63 76.00 C 695.63 77.33, 694.61 78.67, 693.63 80.00 C 692.64 81.33, 691.66 82.67, 690.70 84.00 C 689.74 85.33, 688.83 86.67, 687.86 88.00 C 686.89 89.33, 685.87 90.67, 684.88 92.00 C 683.88 93.33, 682.86 94.67, 681.88 96.00 C 680.90 97.33, 679.96 98.67, 679.00 100.00 C 678.04 101.33, 677.08 102.67, 676.13 104.00 C 675.18 105.33, 674.26 106.67, 673.30 108.00 C 672.34 109.33, 671.36 110.67, 670.37 112.00 C 669.39 113.33, 668.37 114.67, 667.41 116.00 C 666.45 117.33, 665.55 118.67, 664.59 120.00 C 663.63 121.33, 662.61 122.67, 661.63 124.00 C 660.64 125.33, 659.66 126.67, 658.70 128.00 C 657.74 129.33, 656.82 130.67, 655.87 132.00 C 654.92 133.33, 653.96 134.67, 653.00 136.00 C 652.04 137.33, 651.10 138.67, 650.12 140.00 C 649.14 141.33, 648.12 142.67, 647.12 144.00 C 646.13 145.33, 645.11 146.67, 644.14 148.00 C 643.17 149.33, 642.26 150.67, 641.30 152.00 C 640.34 153.33, 639.38 154.67, 638.36 156.00 C 637.34 157.33, 636.24 158.67, 635.20 160.00 C 634.16 161.33, 633.14 162.67, 632.13 164.00 C 631.11 165.33, 630.14 166.67, 629.12 168.00 C 628.10 169.33, 627.05 170.67, 626.00 172.00 C 624.95 173.33, 623.87 174.67, 622.81 176.00 C 621.74 177.33, 620.67 178.67, 619.60 180.00 C 618.54 181.33, 617.48 182.67, 616.39 184.00 C 615.30 185.33, 614.18 186.67, 613.07 188.00 C 611.97 189.33, 610.90 190.67, 609.76 192.00 C 608.62 193.33, 607.39 194.67, 606.24 196.00 C 605.09 197.33, 604.06 198.67, 602.88 200.00 C 601.69 201.33, 600.31 202.67, 599.12 204.00 C 597.94 205.33, 596.94 206.67, 595.75 208.00 C 594.57 209.33, 593.29 210.67, 591.99 212.00 C 590.70 213.33, 589.33 214.67, 588.00 216.00 C 586.67 217.33, 585.33 218.67, 584.00 220.00 C 582.67 221.33, 581.33 222.67, 580.00 224.00 C 578.67 225.33, 577.33 226.67, 576.00 228.00 C 574.67 229.33, 573.33 230.67, 572.00 232.00 C 570.67 233.33, 569.33 234.68, 568.00 236.00 C 566.67 237.32, 565.33 238.71, 564.00 239.95 C 562.67 241.18, 561.33 242.23, 560.00 243.41 C 558.67 244.58, 557.33 245.80, 556.00 247.00 C 554.67 248.20, 553.33 249.42, 552.00 250.59 C 550.67 251.76, 549.33 252.86, 548.00 254.00 C 546.67 255.14, 545.33 256.28, 544.00 257.40 C 542.67 258.53, 541.33 259.69, 540.00 260.77 C 538.67 261.85, 537.33 262.83, 536.00 263.88 C 534.67 264.93, 533.33 265.99, 532.00 267.07 C 530.67 268.15, 529.33 269.31, 528.00 270.36 C 526.67 271.41, 525.33 272.37, 524.00 273.37 C 522.67 274.38, 521.33 275.37, 520.00 276.37 C 518.67 277.37, 517.33 278.39, 516.00 279.37 C 514.67 280.36, 513.33 281.34, 512.00 282.30 C 510.67 283.26, 509.33 284.18, 508.00 285.13 C 506.67 286.08, 505.33 287.04, 504.00 288.00 C 502.67 288.96, 501.33 289.92, 500.00 290.87 C 498.67 291.81, 497.33 292.75, 496.00 293.66 C 494.67 294.57, 493.33 295.44, 492.00 296.33 C 490.67 297.22, 489.33 298.11, 488.00 299.00 C 486.67 299.89, 485.33 300.78, 484.00 301.70 C 482.67 302.62, 481.33 303.63, 480.00 304.51 C 478.67 305.40, 477.33 306.18, 476.00 307.03 C 474.67 307.89, 473.33 308.80, 472.00 309.66 C 470.67 310.52, 469.33 311.37, 468.00 312.20 C 466.67 313.03, 465.33 313.95, 464.00 314.65 C 462.67 315.35, 461.31 316.37, 460.00 316.40 C 458.69 316.42, 457.33 315.69, 456.13 314.79 C 454.92 313.89, 453.94 312.30, 452.75 311.00 C 451.57 309.70, 450.29 308.33, 448.99 307.00 C 447.70 305.67, 446.33 304.33, 445.00 303.00 C 443.67 301.67, 442.33 300.33, 441.00 299.00 C 439.67 297.67, 438.33 296.33, 437.00 295.00 C 435.67 293.67, 434.33 292.33, 433.00 291.00 C 431.67 289.67, 430.33 288.33, 429.00 287.00 C 427.67 285.67, 426.32 284.33, 425.00 283.00 C 423.68 281.67, 422.29 280.33, 421.05 279.00 C 419.82 277.67, 418.77 276.33, 417.59 275.00 C 416.41 273.67, 415.25 272.31, 413.98 271.00 C 412.72 269.69, 411.33 268.33, 410.00 267.13 C 408.67 265.92, 407.33 264.94, 406.00 263.75 C 404.67 262.57, 403.33 261.29, 402.00 259.99 C 400.67 258.70, 399.25 257.33, 398.01 256.00 C 396.76 254.67, 395.11 253.29, 394.53 252.01 C 393.96 250.72, 393.96 249.37, 394.53 248.27 C 395.11 247.17, 396.76 246.29, 398.01 245.42 C 399.25 244.54, 400.67 243.80, 402.00 243.00 C 403.33 242.20, 404.67 241.40, 406.00 240.60 C 407.33 239.80, 408.67 239.00, 410.00 238.20 C 411.33 237.40, 412.67 236.61, 414.00 235.80 C 415.33 234.98, 416.67 234.16, 418.00 233.32 C 419.33 232.49, 420.67 231.65, 422.00 230.79 C 423.33 229.92, 424.67 229.03, 426.00 228.12 C 427.33 227.21, 428.67 226.25, 430.00 225.34 C 431.33 224.43, 432.67 223.57, 434.00 222.66 C 435.33 221.75, 436.67 220.83, 438.00 219.86 C 439.33 218.90, 440.67 217.86, 442.00 216.88 C 443.33 215.90, 444.67 214.98, 446.00 214.00 C 447.33 213.01, 448.67 212.03, 450.00 210.99 C 451.33 209.95, 452.67 208.88, 454.00 207.76 C 455.33 206.63, 456.67 205.39, 458.00 204.24 C 459.33 203.09, 460.67 202.08, 462.00 200.87 C 463.33 199.67, 464.67 198.31, 466.00 197.00 C 467.33 195.69, 468.67 194.33, 470.00 193.00 C 471.33 191.67, 472.72 190.33, 473.98 189.00 C 475.25 187.67, 476.43 186.33, 477.59 185.00 C 478.75 183.67, 479.84 182.33, 480.93 181.00 C 482.01 179.67, 483.10 178.33, 484.11 177.00 C 485.12 175.67, 486.07 174.33, 486.98 173.00 C 487.90 171.67, 488.76 170.33, 489.59 169.00 C 490.43 167.67, 491.22 166.33, 492.00 165.00 C 492.77 163.67, 493.53 162.33, 494.24 161.00 C 494.94 159.67, 495.59 158.33, 496.25 157.00 C 496.90 155.67, 497.57 154.33, 498.16 153.00 C 498.75 151.67, 499.27 150.33, 499.80 149.00 C 500.32 147.67, 500.85 146.33, 501.32 145.00 C 501.78 143.67, 502.20 142.33, 502.59 141.00 C 502.97 139.67, 503.29 138.33, 503.63 137.00 C 503.96 135.67, 504.31 134.33, 504.58 133.00 C 504.84 131.67, 505.01 130.33, 505.23 129.00 C 505.44 127.67, 505.75 126.33, 505.87 125.00 C 506.00 123.67, 505.98 122.33, 506.00 121.00 C 506.02 119.67, 506.00 118.33, 506.00 117.00 C 506.00 115.67, 506.01 114.33, 506.00 113.00 C 505.99 111.67, 506.05 110.33, 505.95 109.00 C 505.85 107.67, 505.60 106.33, 505.40 105.00 C 505.21 103.67, 505.02 102.33, 504.77 101.00 C 504.51 99.67, 504.19 98.33, 503.87 97.00 C 503.56 95.67, 503.24 94.33, 502.86 93.00 C 502.48 91.67, 502.06 90.33, 501.59 89.00 C 501.11 87.67, 500.55 86.33, 500.00 85.00 C 499.44 83.67, 498.87 82.33, 498.23 81.00 C 497.59 79.67, 496.92 78.33, 496.16 77.00 C 495.40 75.67, 494.54 74.33, 493.66 73.00 C 492.77 71.67, 491.85 70.33, 490.86 69.00 C 489.88 67.67, 488.89 66.33, 487.75 65.00 C 486.60 63.67, 485.29 62.31, 483.99 61.00 C 482.70 59.69, 481.33 58.31, 480.00 57.13 C 478.67 55.94, 477.33 54.90, 476.00 53.89 C 474.67 52.87, 473.33 51.94, 472.00 51.01 C 470.67 50.09, 469.33 49.20, 468.00 48.34 C 466.67 47.48, 465.33 46.61, 464.00 45.84 C 462.67 45.08, 461.33 44.42, 460.00 43.75 C 458.67 43.08, 457.33 42.43, 456.00 41.84 C 454.67 41.25, 453.33 40.73, 452.00 40.20 C 450.67 39.68, 449.33 39.15, 448.00 38.68 C 446.67 38.22, 445.33 37.79, 444.00 37.41 C 442.67 37.03, 441.33 36.71, 440.00 36.41 C 438.67 36.11, 437.33 35.86, 436.00 35.61 C 434.67 35.36, 433.33 35.16, 432.00 34.93 C 430.67 34.70, 429.33 34.41, 428.00 34.25 C 426.67 34.08, 425.33 34.09, 424.00 33.95 C 422.67 33.81, 421.33 33.56, 420.00 33.41 C 418.67 33.25, 417.33 33.09, 416.00 33.02 C 414.67 32.95, 413.33 32.97, 412.00 33.01 C 410.67 33.04, 409.33 33.10, 408.00 33.25 C 406.67 33.39, 405.33 33.73, 404.00 33.88 C 402.67 34.02, 401.33 33.97, 400.00 34.12 C 398.67 34.27, 397.33 34.56, 396.00 34.77 C 394.67 34.99, 393.33 35.16, 392.00 35.42 C 390.67 35.69, 389.33 36.04, 388.00 36.37 C 386.67 36.71, 385.33 37.04, 384.00 37.41 C 382.67 37.78, 381.33 38.21, 380.00 38.59 C 378.67 38.98, 377.33 39.28, 376.00 39.72 C 374.67 40.15, 373.33 40.68, 372.00 41.20 C 370.67 41.72, 369.33 42.25, 368.00 42.84 C 366.67 43.43, 365.33 44.10, 364.00 44.75 C 362.67 45.40, 361.33 46.08, 360.00 46.75 C 358.67 47.42, 357.33 48.05, 356.00 48.77 C 354.67 49.48, 353.33 50.22, 352.00 51.04 C 350.67 51.86, 349.33 52.77, 348.00 53.67 C 346.67 54.56, 345.33 55.45, 344.00 56.41 C 342.67 57.37, 341.33 58.35, 340.00 59.43 C 338.67 60.51, 337.33 61.76, 336.00 62.89 C 334.67 64.03, 333.31 65.06, 332.00 66.25 C 330.69 67.43, 329.33 68.71, 328.13 70.01 C 326.92 71.30, 325.89 72.67, 324.77 74.00 C 323.66 75.33, 322.48 76.67, 321.42 78.00 C 320.36 79.33, 319.37 80.67, 318.41 82.00 C 317.45 83.33, 316.55 84.67, 315.68 86.00 C 314.81 87.33, 314.01 88.67, 313.20 90.00 C 312.40 91.33, 311.58 92.67, 310.84 94.00 C 310.09 95.33, 309.43 96.67, 308.75 98.00 C 308.07 99.33, 307.38 100.67, 306.77 102.00 C 306.15 103.33, 305.56 104.67, 305.04 106.00 C 304.52 107.33, 304.12 108.67, 303.67 110.00 C 303.22 111.33, 302.76 112.67, 302.34 114.00 C 301.92 115.33, 301.50 116.67, 301.14 118.00 C 300.78 119.33, 300.48 120.67, 300.20 122.00 C 299.91 123.33, 299.62 124.67, 299.41 126.00 C 299.21 127.33, 299.13 128.67, 298.97 130.00 C 298.80 131.33, 298.57 132.67, 298.41 134.00 C 298.25 135.33, 298.09 136.67, 298.02 138.00 C 297.95 139.33, 298.00 140.67, 298.00 142.00 C 298.00 143.33, 298.00 144.67, 298.00 146.00 C 298.00 147.33, 297.96 148.67, 298.01 150.00 C 298.05 151.33, 298.10 152.67, 298.25 154.00 C 298.39 155.33, 298.70 156.67, 298.89 158.00 C 299.09 159.33, 299.20 160.67, 299.41 162.00 C 299.63 163.33, 299.93 164.67, 300.19 166.00 C 300.46 167.33, 300.70 168.67, 301.01 170.00 C 301.31 171.33, 301.64 172.67, 302.00 174.00 C 302.37 175.33, 302.74 176.67, 303.17 178.00 C 303.60 179.33, 304.10 180.67, 304.61 182.00 C 305.11 183.33, 305.67 184.67, 306.20 186.00 C 306.73 187.33, 307.26 188.67, 307.80 190.00 C 308.33 191.33, 308.83 192.67, 309.41 194.00 C 309.99 195.33, 310.59 196.67, 311.26 198.00 C 311.93 199.33, 312.66 200.67, 313.41 202.00 C 314.15 203.33, 314.95 204.67, 315.73 206.00 C 316.50 207.33, 317.22 208.67, 318.04 210.00 C 318.86 211.33, 319.78 212.67, 320.67 214.00 C 321.55 215.33, 322.43 216.67, 323.34 218.00 C 324.25 219.33, 325.17 220.67, 326.14 222.00 C 327.10 223.33, 328.13 224.67, 329.12 226.00 C 330.12 227.33, 331.11 228.67, 332.13 230.00 C 333.15 231.33, 334.15 232.67, 335.25 234.00 C 336.34 235.33, 337.84 236.69, 338.67 238.00 C 339.50 239.31, 340.35 240.74, 340.22 241.85 C 340.09 242.97, 338.95 243.86, 337.91 244.69 C 336.88 245.52, 335.32 246.09, 334.00 246.84 C 332.68 247.58, 331.33 248.43, 330.00 249.16 C 328.67 249.90, 327.33 250.57, 326.00 251.25 C 324.67 251.93, 323.33 252.58, 322.00 253.25 C 320.67 253.92, 319.33 254.58, 318.00 255.25 C 316.67 255.92, 315.33 256.58, 314.00 257.25 C 312.67 257.92, 311.33 258.58, 310.00 259.25 C 308.67 259.92, 307.33 260.58, 306.00 261.25 C 304.67 261.92, 303.33 262.58, 302.00 263.25 C 300.67 263.92, 299.33 264.58, 298.00 265.25 C 296.67 265.92, 295.33 266.58, 294.00 267.25 C 292.67 267.92, 291.33 268.58, 290.00 269.25 C 288.67 269.92, 287.33 270.58, 286.00 271.25 C 284.67 271.92, 283.33 272.57, 282.00 273.29 C 280.67 274.01, 279.33 274.87, 278.00 275.55 C 276.67 276.24, 275.33 276.79, 274.00 277.40 C 272.67 278.02, 271.33 278.59, 270.00 279.26 C 268.67 279.93, 267.33 280.67, 266.00 281.41 C 264.67 282.15, 263.33 282.99, 262.00 283.71 C 260.67 284.43, 259.33 285.10, 258.00 285.71 C 256.67 286.32, 255.33 286.95, 254.00 287.38 C 252.67 287.81, 251.33 288.43, 250.00 288.27 C 248.67 288.10, 247.33 287.14, 246.00 286.38 C 244.67 285.61, 243.33 284.56, 242.00 283.67 C 240.67 282.78, 239.33 281.88, 238.00 281.04 C 236.67 280.19, 235.33 279.42, 234.00 278.59 C 232.67 277.76, 231.33 276.87, 230.00 276.03 C 228.67 275.20, 227.33 274.43, 226.00 273.59 C 224.67 272.75, 223.33 271.86, 222.00 271.00 C 220.67 270.14, 219.33 269.24, 218.00 268.41 C 216.67 267.58, 215.33 266.80, 214.00 266.00 C 212.67 265.20, 211.33 264.40, 210.00 263.60 C 208.67 262.80, 207.33 262.00, 206.00 261.20 C 204.67 260.40, 203.33 259.60, 202.00 258.80 C 200.67 258.00, 199.33 257.20, 198.00 256.40 C 196.67 255.59, 195.33 254.79, 194.00 253.97 C 192.67 253.14, 191.33 252.22, 190.00 251.42 C 188.67 250.62, 187.33 249.95, 186.00 249.16 C 184.67 248.37, 183.33 247.50, 182.00 246.68 C 180.67 245.85, 179.33 245.04, 178.00 244.20 C 176.67 243.36, 175.33 242.53, 174.00 241.66 C 172.67 240.80, 171.33 239.89, 170.00 239.00 C 168.67 238.11, 167.33 237.22, 166.00 236.33 C 164.67 235.44, 163.33 234.57, 162.00 233.66 C 160.67 232.75, 159.33 231.81, 158.00 230.87 C 156.67 229.92, 155.33 228.97, 154.00 228.00 C 152.67 227.02, 151.33 226.03, 150.00 224.99 C 148.67 223.96, 147.33 222.88, 146.00 221.81 C 144.67 220.74, 143.33 219.72, 142.00 218.58 C 140.67 217.45, 139.33 216.24, 138.00 214.98 C 136.67 213.72, 135.33 212.33, 134.00 211.00 C 132.67 209.67, 131.32 208.33, 130.00 207.00 C 128.68 205.67, 127.28 204.33, 126.05 203.00 C 124.83 201.67, 123.72 200.33, 122.65 199.00 C 121.57 197.67, 120.62 196.33, 119.63 195.00 C 118.64 193.67, 117.63 192.33, 116.70 191.00 C 115.77 189.67, 114.87 188.33, 114.04 187.00 C 113.21 185.67, 112.48 184.33, 111.73 183.00 C 110.99 181.67, 110.24 180.33, 109.57 179.00 C 108.90 177.67, 108.32 176.33, 107.73 175.00 C 107.14 173.67, 106.55 172.33, 106.01 171.00 C 105.47 169.67, 104.92 168.33, 104.49 167.00 C 104.05 165.67, 103.72 164.33, 103.38 163.00 C 103.03 161.67, 102.67 160.33, 102.43 159.00 C 102.18 157.67, 102.09 156.33, 101.89 155.00 C 101.70 153.67, 101.39 152.33, 101.25 151.00 C 101.10 149.67, 101.04 148.33, 101.01 147.00 C 100.97 145.67, 100.95 144.33, 101.02 143.00 C 101.09 141.67, 101.24 140.33, 101.41 139.00 C 101.59 137.67, 101.83 136.33, 102.07 135.00 C 102.32 133.67, 102.58 132.33, 102.88 131.00 C 103.18 129.67, 103.52 128.33, 103.88 127.00 C 104.24 125.67, 104.60 124.33, 105.05 123.00 C 105.50 121.67, 106.06 120.33, 106.61 119.00 C 107.15 117.67, 107.66 116.33, 108.33 115.00 C 109.00 113.67, 109.82 112.33, 110.61 111.00 C 111.39 109.67, 112.17 108.33, 113.05 107.00 C 113.93 105.67, 114.87 104.33, 115.89 103.00 C 116.90 101.67, 117.94 100.33, 119.13 99.00 C 120.31 97.67, 121.69 96.30, 123.00 95.01 C 124.31 93.71, 125.67 92.40, 127.00 91.25 C 128.33 90.10, 129.67 89.14, 131.00 88.13 C 132.33 87.11, 133.67 86.09, 135.00 85.17 C 136.33 84.25, 137.67 83.42, 139.00 82.61 C 140.33 81.80, 141.67 81.02, 143.00 80.29 C 144.33 79.56, 145.67 78.90, 147.00 78.25 C 148.33 77.61, 149.67 76.99, 151.00 76.41 C 152.33 75.84, 153.67 75.30, 155.00 74.80 C 156.33 74.30, 157.67 73.82, 159.00 73.41 C 160.33 73.01, 161.67 72.71, 163.00 72.37 C 164.33 72.03, 165.67 71.70, 167.00 71.37 C 168.33 71.05, 169.67 70.69, 171.00 70.42 C 172.33 70.16, 173.67 69.99, 175.00 69.77 C 176.33 69.56, 177.67 69.25, 179.00 69.13 C 180.33 69.00, 181.67 69.02, 183.00 69.00 C 184.33 68.98, 185.67 69.00, 187.00 69.00 C 188.33 69.00, 189.67 69.00, 191.00 69.00 C 192.33 69.00, 193.67 69.00, 195.00 69.00 C 196.33 69.00, 197.67 68.98, 199.00 69.00 C 200.33 69.02, 201.67 69.04, 203.00 69.12 C 204.33 69.20, 205.67 69.53, 207.00 69.51 C 208.33 69.48, 209.67 69.29, 211.00 68.97 C 212.33 68.66, 213.69 68.32, 215.00 67.63 C 216.31 66.94, 217.75 65.96, 218.85 64.85 C 219.96 63.75, 220.96 62.31, 221.63 61.00 C 222.30 59.69, 222.65 58.33, 222.85 57.00 C 223.06 55.67, 223.04 54.33, 222.87 53.00 C 222.69 51.67, 222.40 50.31, 221.81 49.00 C 221.22 47.69, 220.31 46.27, 219.33 45.13 C 218.36 43.99, 217.17 42.93, 215.95 42.15 C 214.72 41.37, 213.32 40.89, 212.00 40.47 C 210.68 40.04, 209.33 39.85, 208.00 39.61 C 206.67 39.38, 205.33 39.18, 204.00 39.05 C 202.67 38.93, 201.33 39.01, 200.00 38.87 C 198.67 38.74, 197.33 38.39, 196.00 38.25 C 194.67 38.10, 193.33 38.04, 192.00 38.01 C 190.67 37.97, 189.33 37.95, 188.00 38.02 C 186.67 38.09, 185.33 38.25, 184.00 38.41 C 182.67 38.56, 181.33 38.84, 180.00 38.95 C 178.67 39.05, 177.33 38.95, 176.00 39.05 C 174.67 39.16, 173.33 39.42, 172.00 39.59 C 170.67 39.77, 169.33 39.90, 168.00 40.11 C 166.67 40.31, 165.33 40.55, 164.00 40.81 C 162.67 41.06, 161.33 41.34, 160.00 41.64 C 158.67 41.94, 157.33 42.28, 156.00 42.63 C 154.67 42.97, 153.33 43.31, 152.00 43.70 C 150.67 44.10, 149.33 44.56, 148.00 45.00 C 146.67 45.44, 145.33 45.86, 144.00 46.34 C 142.67 46.81, 141.33 47.27, 140.00 47.84 C 138.67 48.41, 137.33 49.10, 136.00 49.75 C 134.67 50.40, 133.33 51.08, 132.00 51.75 C 130.67 52.42, 129.33 53.08, 128.00 53.75 C 126.67 54.42, 125.33 55.05, 124.00 55.77 C 122.67 56.48, 121.33 57.22, 120.00 58.04 C 118.67 58.86, 117.33 59.77, 116.00 60.70 C 114.67 61.63, 113.33 62.64, 112.00 63.63 C 110.67 64.62, 109.33 65.59, 108.00 66.64 C 106.67 67.69, 105.33 68.83, 104.00 69.93 C 102.67 71.03, 101.32 72.07, 100.00 73.25 C 98.68 74.43, 97.29 75.71, 96.05 77.01 C 94.82 78.30, 93.73 79.67, 92.60 81.00 C 91.46 82.33, 90.31 83.67, 89.23 85.00 C 88.16 86.33, 87.12 87.67, 86.14 89.00 C 85.16 90.33, 84.25 91.67, 83.34 93.00 C 82.43 94.33, 81.52 95.67, 80.68 97.00 C 79.84 98.33, 79.03 99.67, 78.29 101.00 C 77.55 102.33, 76.92 103.67, 76.25 105.00 C 75.58 106.33, 74.89 107.67, 74.25 109.00 C 73.62 110.33, 72.97 111.67, 72.42 113.00 C 71.88 114.33, 71.46 115.67, 71.00 117.00 C 70.55 118.33, 70.10 119.67, 69.70 121.00 C 69.31 122.33, 68.97 123.67, 68.63 125.00 C 68.28 126.33, 67.93 127.67, 67.64 129.00 C 67.36 130.33, 67.16 131.67, 66.93 133.00 C 66.70 134.33, 66.40 135.67, 66.25 137.00 C 66.09 138.33, 66.05 139.67, 66.01 141.00 C 65.96 142.33, 66.00 143.67, 66.00 145.00 C 66.00 146.33, 66.00 147.67, 66.00 149.00 C 66.00 150.33, 66.00 151.67, 66.00 153.00 C 66.00 154.33, 65.95 155.67, 66.02 157.00 C 66.09 158.33, 66.22 159.67, 66.42 161.00 C 66.61 162.33, 66.93 163.67, 67.19 165.00 C 67.46 166.33, 67.72 167.67, 68.00 169.00 C 68.28 170.33, 68.55 171.67, 68.88 173.00 C 69.22 174.33, 69.59 175.67, 70.02 177.00 C 70.44 178.33, 70.91 179.67, 71.41 181.00 C 71.91 182.33, 72.45 183.67, 73.00 185.00 C 73.56 186.33, 74.14 187.67, 74.76 189.00 C 75.39 190.33, 76.07 191.67, 76.75 193.00 C 77.43 194.33, 78.09 195.67, 78.84 197.00 C 79.58 198.33, 80.40 199.67, 81.20 201.00 C 82.01 202.33, 82.81 203.67, 83.68 205.00 C 84.55 206.33, 85.45 207.67, 86.41 209.00 C 87.37 210.33, 88.36 211.67, 89.42 213.00 C 90.48 214.33, 91.66 215.67, 92.77 217.00 C 93.89 218.33, 94.96 219.67, 96.12 221.00 C 97.28 222.33, 98.59 223.67, 99.76 225.00 C 100.92 226.33, 101.92 227.72, 103.13 228.98 C 104.33 230.25, 105.69 231.41, 107.00 232.59 C 108.31 233.77, 109.67 234.85, 111.00 236.05 C 112.33 237.24, 113.67 238.59, 115.00 239.75 C 116.33 240.91, 117.67 241.94, 119.00 243.00 C 120.33 244.06, 121.67 245.10, 123.00 246.12 C 124.33 247.14, 125.67 248.12, 127.00 249.12 C 128.33 250.12, 129.67 251.14, 131.00 252.12 C 132.33 253.10, 133.67 254.06, 135.00 254.99 C 136.33 255.91, 137.67 256.78, 139.00 257.67 C 140.33 258.56, 141.67 259.44, 143.00 260.33 C 144.33 261.22, 145.67 262.11, 147.00 263.00 C 148.33 263.89, 149.67 264.78, 151.00 265.67 C 152.33 266.55, 153.67 267.46, 155.00 268.32 C 156.33 269.17, 157.67 269.98, 159.00 270.80 C 160.33 271.61, 161.67 272.39, 163.00 273.20 C 164.33 274.02, 165.67 274.84, 167.00 275.68 C 168.33 276.51, 169.67 277.38, 171.00 278.20 C 172.33 279.02, 173.67 279.80, 175.00 280.60 C 176.33 281.40, 177.67 282.20, 179.00 283.00 C 180.33 283.80, 181.67 284.60, 183.00 285.40 C 184.33 286.20, 185.67 287.00, 187.00 287.80 C 188.33 288.60, 189.67 289.39, 191.00 290.20 C 192.33 291.02, 193.67 291.84, 195.00 292.68 C 196.33 293.51, 197.67 294.38, 199.00 295.20 C 200.33 296.02, 201.67 296.80, 203.00 297.60 C 204.33 298.41, 205.67 299.19, 207.00 300.04 C 208.33 300.88, 209.75 301.77, 210.99 302.67 C 212.24 303.57, 213.89 304.48, 214.47 305.44 C 215.04 306.41, 215.04 307.58, 214.47 308.46 C 213.89 309.35, 212.24 310.03, 210.99 310.74 C 209.75 311.46, 208.33 312.07, 207.00 312.75 C 205.67 313.43, 204.33 314.10, 203.00 314.84 C 201.67 315.57, 200.33 316.43, 199.00 317.16 C 197.67 317.90, 196.33 318.56, 195.00 319.25 C 193.67 319.94, 192.33 320.57, 191.00 321.29 C 189.67 322.01, 188.33 322.85, 187.00 323.59 C 185.67 324.34, 184.33 325.02, 183.00 325.76 C 181.67 326.50, 180.33 327.23, 179.00 328.00 C 177.67 328.78, 176.33 329.61, 175.00 330.39 C 173.67 331.18, 172.33 331.96, 171.00 332.73 C 169.67 333.49, 168.33 334.23, 167.00 335.00 C 165.67 335.78, 164.33 336.60, 163.00 337.40 C 161.67 338.20, 160.33 338.98, 159.00 339.80 C 157.67 340.63, 156.33 341.47, 155.00 342.34 C 153.67 343.20, 152.33 344.11, 151.00 345.00 C 149.67 345.89, 148.33 346.79, 147.00 347.66 C 145.67 348.53, 144.33 349.34, 143.00 350.21 C 141.67 351.08, 140.33 351.97, 139.00 352.88 C 137.67 353.79, 136.33 354.74, 135.00 355.70 C 133.67 356.66, 132.33 357.62, 131.00 358.64 C 129.67 359.66, 128.33 360.76, 127.00 361.80 C 125.67 362.84, 124.33 363.84, 123.00 364.88 C 121.67 365.93, 120.33 366.98, 119.00 368.07 C 117.67 369.16, 116.33 370.25, 115.00 371.41 C 113.67 372.57, 112.33 373.79, 111.00 375.01 C 109.67 376.24, 108.33 377.57, 107.00 378.75 C 105.67 379.94, 104.33 380.92, 103.00 382.13 C 101.67 383.33, 100.33 384.69, 99.00 386.00 C 97.67 387.31, 96.31 388.67, 95.00 390.00 C 93.69 391.33, 92.33 392.67, 91.13 394.00 C 89.92 395.33, 88.93 396.67, 87.75 398.00 C 86.57 399.33, 85.24 400.67, 84.05 402.00 C 82.86 403.33, 81.72 404.67, 80.61 406.00 C 79.50 407.33, 78.46 408.67, 77.40 410.00 C 76.33 411.33, 75.24 412.67, 74.20 414.00 C 73.15 415.33, 72.14 416.67, 71.13 418.00 C 70.12 419.33, 69.10 420.67, 68.14 422.00 C 67.17 423.33, 66.25 424.67, 65.34 426.00 C 64.43 427.33, 63.56 428.67, 62.67 430.00 C 61.78 431.33, 60.87 432.67, 60.00 434.00 C 59.13 435.33, 58.22 436.67, 57.42 438.00 C 56.63 439.33, 55.98 440.67, 55.24 442.00 C 54.50 443.33, 53.75 444.67, 53.00 446.00 C 52.25 447.33, 51.46 448.67, 50.77 450.00 C 50.07 451.33, 49.44 452.67, 48.84 454.00 C 48.24 455.33, 47.76 456.67, 47.16 458.00 C 46.57 459.33, 45.88 460.67, 45.29 462.00 C 44.70 463.33, 44.15 464.67, 43.61 466.00 C 43.06 467.33, 42.53 468.67, 42.00 470.00 C 41.47 471.33, 40.91 472.67, 40.41 474.00 C 39.91 475.33, 39.45 476.67, 39.00 478.00 C 38.55 479.33, 38.10 480.67, 37.70 482.00 C 37.30 483.33, 36.97 484.67, 36.59 486.00 C 36.21 487.33, 35.78 488.67, 35.41 490.00 C 35.04 491.33, 34.71 492.67, 34.37 494.00 C 34.04 495.33, 33.70 496.67, 33.41 498.00 C 33.12 499.33, 32.84 500.67, 32.61 502.00 C 32.38 503.33, 32.20 504.67, 32.00 506.00 C 31.80 507.33, 31.57 508.67, 31.41 510.00 C 31.25 511.33, 31.11 512.67, 31.02 514.00 C 30.93 515.33, 31.00 516.67, 30.87 518.00 C 30.75 519.33, 30.39 520.67, 30.25 522.00 C 30.10 523.33, 30.04 524.67, 30.01 526.00 C 29.97 527.33, 29.95 528.67, 30.02 530.00 C 30.09 531.33, 30.25 532.67, 30.41 534.00 C 30.56 535.33, 30.81 536.67, 30.95 538.00 C 31.09 539.33, 31.09 540.67, 31.25 542.00 C 31.40 543.33, 31.70 544.67, 31.89 546.00 C 32.09 547.33, 32.18 548.67, 32.43 550.00 C 32.67 551.33, 33.06 552.67, 33.36 554.00 C 33.66 555.33, 33.88 556.67, 34.21 558.00 C 34.54 559.33, 34.93 560.67, 35.34 562.00 C 35.75 563.33, 36.20 564.67, 36.68 566.00 C 37.16 567.33, 37.68 568.67, 38.20 570.00 C 38.72 571.33, 39.26 572.67, 39.80 574.00 C 40.33 575.33, 40.83 576.67, 41.41 578.00 C 41.99 579.33, 42.60 580.67, 43.29 582.00 C 43.99 583.33, 44.83 584.67, 45.59 586.00 C 46.35 587.33, 47.05 588.67, 47.84 590.00 C 48.63 591.33, 49.48 592.67, 50.34 594.00 C 51.20 595.33, 52.09 596.67, 53.01 598.00 C 53.94 599.33, 54.87 600.67, 55.89 602.00 C 56.90 603.33, 57.99 604.67, 59.11 606.00 C 60.23 607.33, 61.43 608.70, 62.59 609.99 C 63.75 611.29, 64.82 612.57, 66.05 613.75 C 67.29 614.94, 68.68 615.94, 70.00 617.12 C 71.32 618.31, 72.67 619.71, 74.00 620.87 C 75.33 622.04, 76.67 623.10, 78.00 624.11 C 79.33 625.13, 80.67 626.06, 82.00 626.99 C 83.33 627.91, 84.67 628.79, 86.00 629.66 C 87.33 630.53, 88.67 631.38, 90.00 632.20 C 91.33 633.02, 92.67 633.83, 94.00 634.59 C 95.33 635.35, 96.67 636.06, 98.00 636.75 C 99.33 637.43, 100.67 638.10, 102.00 638.71 C 103.33 639.32, 104.67 639.85, 106.00 640.39 C 107.33 640.94, 108.67 641.47, 110.00 642.00 C 111.33 642.53, 112.67 643.09, 114.00 643.59 C 115.33 644.09, 116.67 644.56, 118.00 644.98 C 119.33 645.41, 120.67 645.76, 122.00 646.12 C 123.33 646.48, 124.67 646.79, 126.00 647.12 C 127.33 647.46, 128.67 647.79, 130.00 648.12 C 131.33 648.46, 132.67 648.82, 134.00 649.12 C 135.33 649.42, 136.67 649.68, 138.00 649.93 C 139.33 650.17, 140.67 650.40, 142.00 650.59 C 143.33 650.77, 144.67 650.87, 146.00 651.03 C 147.33 651.20, 148.67 651.43, 150.00 651.59 C 151.33 651.75, 152.67 651.88, 154.00 651.99 C 155.33 652.10, 156.67 652.10, 158.00 652.25 C 159.33 652.39, 160.67 652.75, 162.00 652.87 C 163.33 653.00, 164.67 652.98, 166.00 653.00 C 167.33 653.02, 168.67 653.00, 170.00 653.00 C 171.33 653.00, 172.67 653.00, 174.00 653.00 C 175.33 653.00, 176.67 653.00, 178.00 653.00 C 179.33 653.00, 180.67 653.01, 182.00 653.00 C 183.33 652.99, 184.67 653.04, 186.00 652.95 C 187.33 652.85, 188.67 652.56, 190.00 652.41 C 191.33 652.25, 192.67 652.10, 194.00 652.02 C 195.33 651.94, 196.67 652.05, 198.00 651.95 C 199.33 651.84, 200.67 651.57, 202.00 651.41 C 203.33 651.25, 204.67 651.14, 206.00 651.00 C 207.33 650.86, 208.67 650.77, 210.00 650.59 C 211.33 650.41, 212.67 650.16, 214.00 649.93 C 215.33 649.70, 216.67 649.45, 218.00 649.23 C 219.33 649.00, 220.67 648.83, 222.00 648.59 C 223.33 648.35, 224.67 648.07, 226.00 647.81 C 227.33 647.54, 228.67 647.28, 230.00 647.00 C 231.33 646.72, 232.67 646.43, 234.00 646.12 C 235.33 645.81, 236.67 645.46, 238.00 645.12 C 239.33 644.79, 240.67 644.48, 242.00 644.12 C 243.33 643.76, 244.67 643.39, 246.00 642.99 C 247.33 642.58, 248.67 642.10, 250.00 641.70 C 251.33 641.30, 252.67 640.99, 254.00 640.59 C 255.33 640.20, 256.67 639.77, 258.00 639.33 C 259.33 638.89, 260.67 638.45, 262.00 637.96 C 263.33 637.47, 264.67 636.92, 266.00 636.40 C 267.33 635.87, 268.67 635.33, 270.00 634.80 C 271.33 634.27, 272.67 633.73, 274.00 633.20 C 275.33 632.67, 276.67 632.05, 278.00 631.62 C 279.33 631.18, 280.67 630.58, 282.00 630.61 C 283.33 630.63, 284.67 631.26, 286.00 631.78 C 287.33 632.29, 288.67 633.11, 290.00 633.71 C 291.33 634.32, 292.67 634.83, 294.00 635.41 C 295.33 635.98, 296.67 636.60, 298.00 637.17 C 299.33 637.73, 300.67 638.27, 302.00 638.80 C 303.33 639.32, 304.67 639.84, 306.00 640.32 C 307.33 640.80, 308.67 641.22, 310.00 641.67 C 311.33 642.11, 312.67 642.56, 314.00 643.00 C 315.33 643.44, 316.67 643.90, 318.00 644.30 C 319.33 644.69, 320.67 645.03, 322.00 645.37 C 323.33 645.72, 324.67 646.04, 326.00 646.37 C 327.33 646.71, 328.67 647.04, 330.00 647.37 C 331.33 647.71, 332.67 648.06, 334.00 648.36 C 335.33 648.66, 336.67 648.93, 338.00 649.19 C 339.33 649.45, 340.67 649.69, 342.00 649.93 C 343.33 650.16, 344.67 650.39, 346.00 650.59 C 347.33 650.79, 348.67 650.91, 350.00 651.11 C 351.33 651.30, 352.67 651.57, 354.00 651.76 C 355.33 651.95, 356.67 652.05, 358.00 652.24 C 359.33 652.43, 360.67 652.75, 362.00 652.87 C 363.33 653.00, 364.67 652.94, 366.00 653.00 C 367.33 653.07, 368.67 653.10, 370.00 653.25 C 371.33 653.39, 372.67 653.75, 374.00 653.87 C 375.33 654.00, 376.67 653.98, 378.00 654.00 C 379.33 654.02, 380.67 654.00, 382.00 654.00 C 383.33 654.00, 384.67 654.00, 386.00 654.00 C 387.33 654.00, 388.67 654.00, 390.00 654.00 C 391.33 654.00, 392.67 654.00, 394.00 654.00 C 395.33 654.00, 396.67 654.00, 398.00 654.00 C 399.33 654.00, 400.67 654.04, 402.00 653.99 C 403.33 653.95, 404.67 653.90, 406.00 653.75 C 407.33 653.61, 408.67 653.25, 410.00 653.13 C 411.33 653.00, 412.67 653.07, 414.00 652.98 C 415.33 652.89, 416.67 652.75, 418.00 652.59 C 419.33 652.43, 420.67 652.20, 422.00 652.00 C 423.33 651.80, 424.67 651.61, 426.00 651.40 C 427.33 651.20, 428.67 651.01, 430.00 650.77 C 431.33 650.54, 432.67 650.27, 434.00 650.00 C 435.33 649.72, 436.67 649.43, 438.00 649.12 C 439.33 648.81, 440.67 648.46, 442.00 648.12 C 443.33 647.79, 444.67 647.48, 446.00 647.12 C 447.33 646.76, 448.67 646.39, 450.00 645.99 C 451.33 645.58, 452.67 645.11, 454.00 644.67 C 455.33 644.22, 456.67 643.80, 458.00 643.32 C 459.33 642.84, 460.67 642.32, 462.00 641.80 C 463.33 641.28, 464.67 640.74, 466.00 640.20 C 467.33 639.67, 468.67 639.17, 470.00 638.59 C 471.33 638.01, 472.67 637.39, 474.00 636.75 C 475.33 636.11, 476.67 635.42, 478.00 634.75 C 479.33 634.08, 480.67 633.44, 482.00 632.71 C 483.33 631.98, 484.67 631.19, 486.00 630.39 C 487.33 629.60, 488.67 628.81, 490.00 627.96 C 491.33 627.12, 492.67 626.23, 494.00 625.33 C 495.33 624.44, 496.67 623.55, 498.00 622.59 C 499.33 621.63, 500.67 620.64, 502.00 619.58 C 503.33 618.52, 504.67 617.34, 506.00 616.23 C 507.33 615.11, 508.67 614.08, 510.00 612.87 C 511.33 611.67, 512.67 610.31, 514.00 609.00 C 515.33 607.69, 516.70 606.33, 517.99 605.00 C 519.29 603.67, 520.57 602.33, 521.75 601.00 C 522.93 599.67, 523.97 598.33, 525.07 597.00 C 526.17 595.67, 527.32 594.33, 528.36 593.00 C 529.39 591.67, 530.36 590.33, 531.30 589.00 C 532.24 587.67, 533.12 586.33, 534.00 585.00 C 534.88 583.67, 535.77 582.33, 536.58 581.00 C 537.38 579.67, 538.07 578.33, 538.83 577.00 C 539.60 575.67, 540.43 574.33, 541.16 573.00 C 541.90 571.67, 542.60 570.33, 543.23 569.00 C 543.87 567.67, 544.43 566.33, 545.00 565.00 C 545.56 563.67, 546.07 562.33, 546.60 561.00 C 547.14 559.67, 547.67 558.33, 548.20 557.00 C 548.73 555.67, 549.28 554.33, 549.80 553.00 C 550.31 551.67, 550.85 550.33, 551.28 549.00 C 551.72 547.67, 552.02 546.33, 552.41 545.00 C 552.79 543.67, 553.22 542.33, 553.59 541.00 C 553.96 539.67, 554.29 538.33, 554.63 537.00 C 554.96 535.67, 555.30 534.33, 555.59 533.00 C 555.88 531.67, 556.16 530.33, 556.39 529.00 C 556.62 527.67, 556.80 526.33, 556.97 525.00 C 557.14 523.67, 557.25 522.33, 557.41 521.00 C 557.57 519.67, 557.85 518.33, 557.95 517.00 C 558.04 515.67, 557.97 514.33, 558.00 513.00 C 558.03 511.67, 558.00 510.33, 558.13 509.00 C 558.25 507.67, 558.66 506.33, 558.73 505.00 C 558.81 503.67, 558.70 502.33, 558.58 501.00 C 558.47 499.67, 558.15 498.33, 558.05 497.00 C 557.96 495.67, 558.03 494.33, 558.00 493.00 C 557.97 491.67, 558.00 490.33, 557.87 489.00 C 557.75 487.67, 557.43 486.33, 557.24 485.00 C 557.05 483.67, 556.97 482.33, 556.76 481.00 C 556.55 479.67, 556.26 478.33, 556.00 477.00 C 555.74 475.67, 555.47 474.33, 555.19 473.00 C 554.92 471.67, 554.66 470.33, 554.36 469.00 C 554.06 467.67, 553.71 466.33, 553.37 465.00 C 553.04 463.67, 552.72 462.33, 552.37 461.00 C 552.03 459.67, 551.69 458.33, 551.30 457.00 C 550.90 455.67, 550.45 454.33, 550.00 453.00 C 549.55 451.67, 549.08 450.33, 548.59 449.00 C 548.10 447.67, 547.53 446.33, 547.03 445.00 C 546.53 443.67, 546.10 442.33, 545.59 441.00 C 545.08 439.67, 544.55 438.33, 544.00 437.00 C 543.44 435.67, 542.86 434.33, 542.24 433.00 C 541.61 431.67, 540.89 430.33, 540.25 429.00 C 539.62 427.67, 539.00 426.33, 538.41 425.00 C 537.82 423.67, 537.34 422.33, 536.71 421.00 C 536.07 419.67, 535.33 418.33, 534.59 417.00 C 533.85 415.67, 533.04 414.33, 532.27 413.00 C 531.51 411.67, 530.76 410.33, 530.00 409.00 C 529.24 407.67, 528.50 406.33, 527.72 405.00 C 526.94 403.67, 526.16 402.33, 525.32 401.00 C 524.48 399.67, 523.55 398.33, 522.67 397.00 C 521.78 395.67, 520.89 394.33, 520.00 393.00 C 519.11 391.67, 518.23 390.33, 517.33 389.00 C 516.43 387.67, 515.53 386.33, 514.59 385.00 C 513.65 383.67, 512.65 382.33, 511.70 381.00 C 510.74 379.67, 509.83 378.33, 508.86 377.00 C 507.89 375.67, 506.88 374.33, 505.87 373.00 C 504.86 371.67, 503.84 370.33, 502.80 369.00 C 501.76 367.67, 500.67 366.33, 499.64 365.00 C 498.60 363.67, 497.63 362.33, 496.59 361.00 C 495.55 359.67, 494.46 358.33, 493.40 357.00 C 492.33 355.67, 491.28 354.33, 490.19 353.00 C 489.11 351.67, 488.01 350.33, 486.89 349.00 C 485.78 347.67, 484.34 346.31, 483.50 345.00 C 482.66 343.69, 481.75 342.30, 481.85 341.13 C 481.95 339.97, 483.06 338.99, 484.09 338.02 C 485.11 337.05, 486.68 336.21, 488.00 335.34 C 489.32 334.47, 490.67 333.64, 492.00 332.80 C 493.33 331.96, 494.67 331.18, 496.00 330.32 C 497.33 329.46, 498.67 328.55, 500.00 327.67 C 501.33 326.78, 502.67 325.89, 504.00 325.00 C 505.33 324.11, 506.67 323.22, 508.00 322.33 C 509.33 321.44, 510.67 320.56, 512.00 319.67 C 513.33 318.78, 514.67 317.89, 516.00 317.00 C 517.33 316.11, 518.67 315.22, 520.00 314.33 C 521.33 313.44, 522.67 312.57, 524.00 311.66 C 525.33 310.75, 526.67 309.83, 528.00 308.86 C 529.33 307.90, 530.67 306.87, 532.00 305.88 C 533.33 304.88, 534.67 303.86, 536.00 302.88 C 537.33 301.90, 538.67 300.98, 540.00 300.00 C 541.33 299.02, 542.67 298.00, 544.00 297.00 C 545.33 296.00, 546.67 295.00, 548.00 294.00 C 549.33 293.00, 550.67 292.03, 552.00 290.99 C 553.33 289.96, 554.67 288.87, 556.00 287.81 C 557.33 286.74, 558.67 285.69, 560.00 284.59 C 561.33 283.49, 562.67 282.34, 564.00 281.23 C 565.33 280.12, 566.67 279.03, 568.00 277.93 C 569.33 276.82, 570.67 275.75, 572.00 274.59 C 573.33 273.43, 574.67 272.21, 576.00 270.99 C 577.33 269.76, 578.67 268.43, 580.00 267.25 C 581.33 266.06, 582.67 265.08, 584.00 263.87 C 585.33 262.67, 586.67 261.31, 588.00 260.00 C 589.33 258.69, 590.67 257.33, 592.00 256.00 C 593.33 254.67, 594.67 253.28, 596.00 252.02 C 597.33 250.75, 598.68 249.59, 600.00 248.41 C 601.32 247.23, 602.71 246.18, 603.95 244.95 C 605.18 243.71, 606.23 242.32, 607.41 241.00 C 608.59 239.68, 609.76 238.33, 611.02 237.00 C 612.28 235.67, 613.71 234.33, 614.99 233.00 C 616.28 231.67, 617.57 230.33, 618.75 229.00 C 619.94 227.67, 620.95 226.33, 622.12 225.00 C 623.29 223.67, 624.60 222.33, 625.76 221.00 C 626.91 219.67, 627.97 218.33, 629.07 217.00 C 630.18 215.67, 631.30 214.33, 632.39 213.00 C 633.48 211.67, 634.54 210.33, 635.60 209.00 C 636.67 207.67, 637.74 206.33, 638.81 205.00 C 639.87 203.67, 640.95 202.33, 642.00 201.00 C 643.05 199.67, 644.10 198.33, 645.12 197.00 C 646.14 195.67, 647.12 194.33, 648.12 193.00 C 649.13 191.67, 650.13 190.33, 651.12 189.00 C 652.12 187.67, 653.14 186.33, 654.12 185.00 C 655.10 183.67, 656.04 182.33, 657.00 181.00 C 657.96 179.67, 658.92 178.33, 659.87 177.00 C 660.82 175.67, 661.74 174.33, 662.70 173.00 C 663.65 171.67, 664.65 170.33, 665.59 169.00 C 666.53 167.67, 667.43 166.33, 668.33 165.00 C 669.24 163.67, 670.09 162.33, 671.01 161.00 C 671.94 159.67, 672.92 158.33, 673.87 157.00 C 674.81 155.67, 675.74 154.33, 676.70 153.00 C 677.65 151.67, 678.65 150.33, 679.59 149.00 C 680.53 147.67, 681.43 146.33, 682.33 145.00 C 683.23 143.67, 684.11 142.33, 685.00 141.00 C 685.90 139.67, 686.77 138.33, 687.70 137.00 C 688.63 135.67, 689.65 134.33, 690.59 133.00 C 691.53 131.67, 692.41 130.33, 693.34 129.00 C 694.26 127.67, 695.19 126.33, 696.13 125.00 C 697.08 123.67, 698.06 122.33, 698.99 121.00 C 699.91 119.67, 700.77 118.33, 701.70 117.00 C 702.64 115.67, 703.65 114.33, 704.59 113.00 C 705.53 111.67, 706.41 110.33, 707.34 109.00 C 708.26 107.67, 709.17 106.33, 710.14 105.00 C 711.10 103.67, 712.15 102.33, 713.12 101.00 C 714.09 99.67, 715.06 98.33, 715.99 97.00 C 716.92 95.67, 717.76 94.33, 718.70 93.00 C 719.64 91.67, 720.64 90.33, 721.63 89.00 C 722.61 87.67, 723.63 86.33, 724.63 85.00 C 725.62 83.67, 726.62 82.33, 727.59 81.00 C 728.56 79.67, 729.44 78.33, 730.44 77.00 C 731.44 75.67, 732.56 74.33, 733.59 73.00 C 734.62 71.67, 735.60 70.33, 736.64 69.00 C 737.68 67.67, 738.74 66.33, 739.81 65.00 C 740.88 63.67, 741.98 62.33, 743.07 61.00 C 744.16 59.67, 745.34 58.33, 746.35 57.00 C 747.36 55.67, 748.34 54.33, 749.11 53.00 C 749.87 51.67, 750.50 50.33, 750.94 49.00 C 751.37 47.67, 751.74 46.33, 751.74 45.00 C 751.73 43.67, 751.43 42.32, 750.92 41.00 C 750.41 39.68, 749.67 38.24, 748.68 37.06 C 747.69 35.88, 746.27 34.73, 744.99 33.92 C 743.71 33.10, 742.33 32.63, 741.00 32.18 C 739.67 31.74, 738.33 31.45, 737.00 31.25 C 735.67 31.06, 734.33 31.05, 733.00 31.01 C 731.67 30.96, 730.33 31.04, 729.00 30.99 C 727.67 30.95, 726.33 30.90, 725.00 30.75 C 723.67 30.61, 722.33 30.25, 721.00 30.13 C 719.67 30.00, 718.33 30.02, 717.00 30.00 C 715.67 29.98, 714.33 30.00, 713.00 30.00 C 711.67 30.00, 710.33 30.00, 709.00 30.00 C 707.67 30.00, 706.33 30.00, 705.00 30.00 C 703.67 30.00, 702.33 30.00, 701.00 30.00 C 699.67 30.00, 698.33 30.00, 697.00 30.00 C 695.67 30.00, 694.33 30.00, 693.00 30.00 C 691.67 30.00, 690.33 30.00, 689.00 30.00 C 687.67 30.00, 686.33 30.00, 685.00 30.00 C 683.67 30.00, 682.33 30.00, 681.00 30.00 C 679.67 30.00, 678.33 30.00, 677.00 30.00 C 675.67 30.00, 674.33 30.00, 673.00 30.00 C 671.67 30.00, 670.33 30.00, 669.00 30.00 C 667.67 30.00, 666.33 30.00, 665.00 30.00 C 663.67 30.00, 662.33 30.00, 661.00 30.00 C 659.67 30.00, 658.33 30.00, 657.00 30.00 C 655.67 30.00, 654.33 30.00, 653.00 30.00 C 651.67 30.00, 650.33 30.00, 649.00 30.00 C 647.67 30.00, 646.33 30.00, 645.00 30.00 C 643.67 30.00, 642.33 30.00, 641.00 30.00 C 639.67 30.00, 638.33 30.00, 637.00 30.00 C 635.67 30.00, 634.33 29.98, 633.00 30.00 C 631.67 30.02, 630.00 30.06, 629.00 30.13 C 628.00 30.19, 628.00 30.27, 627.00 30.41 Z M 331.99 438.48 C 332.76 438.38, 334.66 437.95, 335.60 438.53 C 336.54 439.12, 337.09 440.76, 337.64 442.01 C 338.18 443.25, 338.50 444.67, 338.86 446.00 C 339.22 447.33, 339.51 448.67, 339.80 450.00 C 340.09 451.33, 340.34 452.67, 340.60 454.00 C 340.87 455.33, 341.16 456.67, 341.39 458.00 C 341.62 459.33, 341.80 460.67, 342.00 462.00 C 342.20 463.33, 342.42 464.67, 342.59 466.00 C 342.76 467.33, 342.86 468.67, 343.00 470.00 C 343.14 471.33, 343.25 472.67, 343.41 474.00 C 343.57 475.33, 343.85 476.67, 343.95 478.00 C 344.04 479.33, 343.99 480.67, 344.00 482.00 C 344.01 483.33, 344.02 484.67, 344.00 486.00 C 343.98 487.33, 344.00 488.67, 343.87 490.00 C 343.75 491.33, 343.39 492.67, 343.25 494.00 C 343.10 495.33, 343.10 496.67, 342.99 498.00 C 342.88 499.33, 342.77 500.67, 342.59 502.00 C 342.41 503.33, 342.16 504.67, 341.93 506.00 C 341.70 507.33, 341.45 508.67, 341.19 510.00 C 340.93 511.33, 340.67 512.67, 340.36 514.00 C 340.04 515.33, 339.67 516.67, 339.30 518.00 C 338.93 519.33, 338.53 520.67, 338.13 522.00 C 337.74 523.33, 337.41 524.67, 336.95 526.00 C 336.49 527.33, 335.93 528.67, 335.39 530.00 C 334.85 531.33, 334.31 532.67, 333.71 534.00 C 333.12 535.33, 332.45 536.67, 331.82 538.00 C 331.19 539.33, 330.60 540.67, 329.91 542.00 C 329.23 543.33, 328.49 544.67, 327.72 546.00 C 326.96 547.33, 326.16 548.67, 325.32 550.00 C 324.47 551.33, 323.58 552.67, 322.66 554.00 C 321.74 555.33, 320.80 556.67, 319.79 558.00 C 318.78 559.33, 317.72 560.67, 316.58 562.00 C 315.45 563.33, 314.24 564.67, 312.98 566.00 C 311.72 567.33, 310.33 568.67, 309.00 570.00 C 307.67 571.33, 306.33 572.69, 305.00 574.00 C 303.67 575.31, 302.33 576.69, 301.00 577.87 C 299.67 579.06, 298.33 580.08, 297.00 581.12 C 295.67 582.16, 294.33 583.17, 293.00 584.12 C 291.67 585.06, 290.33 586.23, 289.00 586.79 C 287.67 587.35, 286.33 587.75, 285.00 587.48 C 283.67 587.21, 282.33 586.10, 281.00 585.16 C 279.67 584.23, 278.32 583.07, 277.00 581.87 C 275.68 580.68, 274.28 579.31, 273.05 578.00 C 271.83 576.69, 270.70 575.33, 269.65 574.00 C 268.59 572.67, 267.61 571.33, 266.72 570.00 C 265.83 568.67, 265.03 567.33, 264.29 566.00 C 263.55 564.67, 262.89 563.33, 262.29 562.00 C 261.70 560.67, 261.16 559.33, 260.72 558.00 C 260.27 556.67, 259.97 555.33, 259.63 554.00 C 259.28 552.67, 258.91 551.33, 258.65 550.00 C 258.38 548.67, 258.16 547.33, 258.05 546.00 C 257.95 544.67, 258.01 543.33, 258.00 542.00 C 257.99 540.67, 257.98 539.33, 258.00 538.00 C 258.02 536.67, 257.99 535.33, 258.13 534.00 C 258.26 532.67, 258.56 531.33, 258.81 530.00 C 259.06 528.67, 259.32 527.33, 259.64 526.00 C 259.96 524.67, 260.30 523.33, 260.70 522.00 C 261.10 520.67, 261.53 519.33, 262.04 518.00 C 262.55 516.67, 263.15 515.33, 263.77 514.00 C 264.38 512.67, 265.08 511.33, 265.75 510.00 C 266.42 508.67, 267.06 507.33, 267.76 506.00 C 268.47 504.67, 269.23 503.33, 270.00 502.00 C 270.78 500.67, 271.57 499.33, 272.41 498.00 C 273.24 496.67, 274.10 495.33, 275.02 494.00 C 275.93 492.67, 276.89 491.33, 277.88 490.00 C 278.88 488.67, 279.94 487.33, 281.00 486.00 C 282.06 484.67, 283.10 483.33, 284.25 482.00 C 285.39 480.67, 286.71 479.33, 287.88 478.00 C 289.05 476.67, 290.06 475.33, 291.25 474.00 C 292.43 472.67, 293.71 471.32, 295.01 470.00 C 296.30 468.68, 297.67 467.29, 299.00 466.05 C 300.33 464.82, 301.67 463.77, 303.00 462.59 C 304.33 461.42, 305.67 460.20, 307.00 459.00 C 308.33 457.80, 309.67 456.58, 311.00 455.41 C 312.33 454.24, 313.67 453.14, 315.00 452.00 C 316.33 450.86, 317.67 449.72, 319.00 448.60 C 320.33 447.47, 321.67 446.31, 323.00 445.23 C 324.33 444.15, 325.67 443.14, 327.00 442.12 C 328.33 441.10, 330.17 439.71, 331.00 439.11 C 331.83 438.50, 331.23 438.58, 331.99 438.48 Z M 447.98 361.23 C 448.74 361.21, 450.47 360.90, 451.57 361.53 C 452.67 362.16, 453.63 363.76, 454.59 365.01 C 455.55 366.25, 456.41 367.67, 457.34 369.00 C 458.26 370.33, 459.17 371.67, 460.14 373.00 C 461.10 374.33, 462.13 375.67, 463.12 377.00 C 464.12 378.33, 465.14 379.67, 466.12 381.00 C 467.10 382.33, 468.06 383.67, 468.99 385.00 C 469.92 386.33, 470.77 387.67, 471.70 389.00 C 472.64 390.33, 473.65 391.67, 474.59 393.00 C 475.53 394.33, 476.43 395.67, 477.33 397.00 C 478.23 398.33, 479.11 399.67, 480.00 401.00 C 480.89 402.33, 481.78 403.67, 482.67 405.00 C 483.56 406.33, 484.45 407.67, 485.33 409.00 C 486.22 410.33, 487.12 411.67, 487.96 413.00 C 488.81 414.33, 489.59 415.67, 490.40 417.00 C 491.20 418.33, 492.00 419.67, 492.80 421.00 C 493.59 422.33, 494.42 423.67, 495.16 425.00 C 495.91 426.33, 496.55 427.67, 497.29 429.00 C 498.03 430.33, 498.85 431.67, 499.59 433.00 C 500.33 434.33, 501.06 435.67, 501.75 437.00 C 502.43 438.33, 503.10 439.67, 503.71 441.00 C 504.32 442.33, 504.83 443.67, 505.41 445.00 C 505.98 446.33, 506.62 447.67, 507.16 449.00 C 507.71 450.33, 508.17 451.67, 508.68 453.00 C 509.18 454.33, 509.70 455.67, 510.20 457.00 C 510.70 458.33, 511.21 459.67, 511.66 461.00 C 512.10 462.33, 512.49 463.67, 512.86 465.00 C 513.23 466.33, 513.54 467.67, 513.88 469.00 C 514.21 470.33, 514.55 471.67, 514.87 473.00 C 515.20 474.33, 515.52 475.67, 515.80 477.00 C 516.09 478.33, 516.37 479.67, 516.59 481.00 C 516.80 482.33, 516.91 483.67, 517.11 485.00 C 517.30 486.33, 517.61 487.67, 517.75 489.00 C 517.90 490.33, 517.95 491.67, 517.99 493.00 C 518.04 494.33, 518.00 495.67, 518.00 497.00 C 518.00 498.33, 518.00 499.67, 518.00 501.00 C 518.00 502.33, 518.00 503.67, 518.00 505.00 C 518.00 506.33, 518.00 507.67, 518.00 509.00 C 518.00 510.33, 518.04 511.67, 517.99 513.00 C 517.95 514.33, 517.91 515.67, 517.75 517.00 C 517.60 518.33, 517.30 519.67, 517.07 521.00 C 516.84 522.33, 516.64 523.67, 516.39 525.00 C 516.14 526.33, 515.89 527.67, 515.59 529.00 C 515.29 530.33, 514.97 531.67, 514.59 533.00 C 514.21 534.33, 513.77 535.67, 513.33 537.00 C 512.89 538.33, 512.45 539.67, 511.96 541.00 C 511.47 542.33, 510.92 543.67, 510.40 545.00 C 509.87 546.33, 509.34 547.67, 508.80 549.00 C 508.26 550.33, 507.77 551.67, 507.16 553.00 C 506.56 554.33, 505.89 555.67, 505.16 557.00 C 504.43 558.33, 503.60 559.67, 502.80 561.00 C 501.99 562.33, 501.19 563.67, 500.32 565.00 C 499.45 566.33, 498.55 567.67, 497.59 569.00 C 496.63 570.33, 495.66 571.67, 494.57 573.00 C 493.48 574.33, 492.20 575.67, 491.03 577.00 C 489.87 578.33, 488.77 579.69, 487.59 581.00 C 486.41 582.31, 485.25 583.67, 483.98 584.87 C 482.72 586.08, 481.33 587.11, 480.00 588.23 C 478.67 589.34, 477.33 590.52, 476.00 591.58 C 474.67 592.64, 473.33 593.63, 472.00 594.59 C 470.67 595.55, 469.33 596.44, 468.00 597.33 C 466.67 598.23, 465.33 599.14, 464.00 599.96 C 462.67 600.78, 461.33 601.52, 460.00 602.23 C 458.67 602.95, 457.33 603.59, 456.00 604.25 C 454.67 604.90, 453.33 605.57, 452.00 606.16 C 450.67 606.75, 449.33 607.27, 448.00 607.80 C 446.67 608.32, 445.33 608.85, 444.00 609.32 C 442.67 609.78, 441.33 610.19, 440.00 610.59 C 438.67 610.99, 437.33 611.32, 436.00 611.70 C 434.67 612.08, 433.33 612.50, 432.00 612.86 C 430.67 613.22, 429.33 613.56, 428.00 613.87 C 426.67 614.19, 425.33 614.51, 424.00 614.77 C 422.67 615.02, 421.33 615.20, 420.00 615.40 C 418.67 615.61, 417.33 615.80, 416.00 616.00 C 414.67 616.20, 413.33 616.43, 412.00 616.59 C 410.67 616.75, 409.33 616.88, 408.00 616.99 C 406.67 617.10, 405.33 617.10, 404.00 617.25 C 402.67 617.39, 401.33 617.75, 400.00 617.87 C 398.67 618.00, 397.33 617.98, 396.00 618.00 C 394.67 618.02, 393.33 618.00, 392.00 618.00 C 390.67 618.00, 389.33 618.00, 388.00 618.00 C 386.67 618.00, 385.33 618.00, 384.00 618.00 C 382.67 618.00, 381.33 618.04, 380.00 617.99 C 378.67 617.95, 377.33 617.90, 376.00 617.75 C 374.67 617.61, 373.33 617.25, 372.00 617.13 C 370.67 617.00, 369.33 617.06, 368.00 617.00 C 366.67 616.93, 365.33 616.90, 364.00 616.75 C 362.67 616.61, 361.33 616.30, 360.00 616.11 C 358.67 615.91, 357.33 615.79, 356.00 615.59 C 354.67 615.39, 353.33 615.16, 352.00 614.93 C 350.67 614.69, 349.33 614.45, 348.00 614.19 C 346.67 613.93, 345.33 613.66, 344.00 613.36 C 342.67 613.06, 341.33 612.71, 340.00 612.37 C 338.67 612.04, 337.33 611.71, 336.00 611.37 C 334.67 611.04, 333.33 610.72, 332.00 610.37 C 330.67 610.02, 329.25 609.77, 328.01 609.28 C 326.76 608.78, 325.11 608.28, 324.53 607.40 C 323.96 606.52, 323.96 605.16, 324.53 604.00 C 325.11 602.83, 326.76 601.58, 328.01 600.41 C 329.25 599.23, 330.67 598.18, 332.00 596.95 C 333.33 595.71, 334.67 594.32, 336.00 593.00 C 337.33 591.68, 338.68 590.33, 340.00 589.00 C 341.32 587.67, 342.72 586.33, 343.95 585.00 C 345.17 583.67, 346.28 582.33, 347.36 581.00 C 348.43 579.67, 349.38 578.33, 350.41 577.00 C 351.44 575.67, 352.57 574.33, 353.55 573.00 C 354.54 571.67, 355.44 570.33, 356.32 569.00 C 357.19 567.67, 357.99 566.33, 358.80 565.00 C 359.60 563.67, 360.42 562.33, 361.16 561.00 C 361.91 559.67, 362.57 558.33, 363.25 557.00 C 363.93 555.67, 364.60 554.33, 365.25 553.00 C 365.90 551.67, 366.57 550.33, 367.16 549.00 C 367.75 547.67, 368.27 546.33, 368.80 545.00 C 369.32 543.67, 369.82 542.33, 370.32 541.00 C 370.82 539.67, 371.31 538.33, 371.80 537.00 C 372.29 535.67, 372.85 534.33, 373.28 533.00 C 373.71 531.67, 374.02 530.33, 374.37 529.00 C 374.72 527.67, 375.04 526.33, 375.37 525.00 C 375.71 523.67, 376.06 522.33, 376.36 521.00 C 376.66 519.67, 376.93 518.33, 377.19 517.00 C 377.45 515.67, 377.70 514.33, 377.93 513.00 C 378.16 511.67, 378.41 510.33, 378.59 509.00 C 378.77 507.67, 378.86 506.33, 379.00 505.00 C 379.14 503.67, 379.25 502.33, 379.41 501.00 C 379.57 499.67, 379.85 498.33, 379.95 497.00 C 380.04 495.67, 379.99 494.33, 380.00 493.00 C 380.01 491.67, 380.00 490.33, 380.00 489.00 C 380.00 487.67, 380.00 486.33, 380.00 485.00 C 380.00 483.67, 380.01 482.33, 380.00 481.00 C 379.99 479.67, 380.04 478.33, 379.95 477.00 C 379.85 475.67, 379.56 474.33, 379.41 473.00 C 379.25 471.67, 379.12 470.33, 379.01 469.00 C 378.90 467.67, 378.91 466.33, 378.75 465.00 C 378.60 463.67, 378.30 462.33, 378.07 461.00 C 377.84 459.67, 377.64 458.33, 377.39 457.00 C 377.14 455.67, 376.88 454.33, 376.59 453.00 C 376.30 451.67, 375.95 450.33, 375.63 449.00 C 375.30 447.67, 374.96 446.33, 374.63 445.00 C 374.29 443.67, 373.96 442.33, 373.63 441.00 C 373.29 439.67, 372.97 438.33, 372.59 437.00 C 372.21 435.67, 371.76 434.33, 371.33 433.00 C 370.90 431.67, 370.44 430.33, 370.00 429.00 C 369.56 427.67, 369.13 426.33, 368.66 425.00 C 368.20 423.67, 367.63 422.33, 367.22 421.00 C 366.81 419.67, 366.19 418.28, 366.23 417.02 C 366.27 415.76, 366.66 414.52, 367.45 413.47 C 368.25 412.41, 369.75 411.57, 371.01 410.67 C 372.27 409.76, 373.67 408.88, 375.00 408.04 C 376.33 407.19, 377.67 406.43, 379.00 405.59 C 380.33 404.75, 381.67 403.88, 383.00 403.00 C 384.33 402.12, 385.67 401.22, 387.00 400.33 C 388.33 399.44, 389.67 398.55, 391.00 397.67 C 392.33 396.78, 393.67 395.88, 395.00 395.04 C 396.33 394.19, 397.67 393.43, 399.00 392.59 C 400.33 391.75, 401.67 390.88, 403.00 390.00 C 404.33 389.12, 405.67 388.22, 407.00 387.33 C 408.33 386.44, 409.67 385.56, 411.00 384.67 C 412.33 383.78, 413.67 382.89, 415.00 382.00 C 416.33 381.11, 417.67 380.20, 419.00 379.34 C 420.33 378.47, 421.67 377.64, 423.00 376.80 C 424.33 375.96, 425.67 375.16, 427.00 374.32 C 428.33 373.49, 429.67 372.63, 431.00 371.80 C 432.33 370.97, 433.67 370.17, 435.00 369.32 C 436.33 368.46, 437.67 367.55, 439.00 366.67 C 440.33 365.79, 441.67 364.87, 443.00 364.04 C 444.33 363.21, 446.16 362.16, 446.99 361.69 C 447.82 361.23, 447.22 361.26, 447.98 361.23 Z M 247.00 329.99 C 248.33 329.70, 249.67 329.78, 251.00 330.26 C 252.33 330.75, 253.67 331.93, 255.00 332.89 C 256.33 333.84, 257.67 334.94, 259.00 336.00 C 260.33 337.06, 261.67 338.13, 263.00 339.23 C 264.33 340.33, 265.67 341.47, 267.00 342.60 C 268.33 343.72, 269.67 344.86, 271.00 346.00 C 272.33 347.14, 273.67 348.24, 275.00 349.41 C 276.33 350.58, 277.67 351.75, 279.00 353.02 C 280.33 354.28, 281.67 355.67, 283.00 357.00 C 284.33 358.33, 285.67 359.67, 287.00 361.00 C 288.33 362.33, 289.69 363.67, 291.00 365.00 C 292.31 366.33, 293.67 367.67, 294.87 369.00 C 296.08 370.33, 297.08 371.67, 298.24 373.00 C 299.41 374.33, 300.72 375.67, 301.88 377.00 C 303.04 378.33, 304.11 379.67, 305.19 381.00 C 306.27 382.33, 307.33 383.67, 308.36 385.00 C 309.39 386.33, 310.38 387.67, 311.37 389.00 C 312.36 390.33, 313.36 391.67, 314.30 393.00 C 315.23 394.33, 316.13 395.67, 317.00 397.00 C 317.86 398.33, 318.99 399.69, 319.49 401.00 C 319.99 402.31, 320.41 403.70, 319.99 404.87 C 319.57 406.03, 318.14 406.99, 316.97 407.99 C 315.81 409.00, 314.33 409.90, 313.00 410.88 C 311.67 411.86, 310.33 412.89, 309.00 413.86 C 307.67 414.83, 306.33 415.72, 305.00 416.71 C 303.67 417.70, 302.33 418.78, 301.00 419.80 C 299.67 420.83, 298.33 421.85, 297.00 422.88 C 295.67 423.91, 294.33 424.94, 293.00 426.00 C 291.67 427.06, 290.33 428.13, 289.00 429.23 C 287.67 430.33, 286.33 431.46, 285.00 432.60 C 283.67 433.73, 282.33 434.86, 281.00 436.05 C 279.67 437.24, 278.33 438.57, 277.00 439.75 C 275.67 440.93, 274.33 441.92, 273.00 443.13 C 271.67 444.33, 270.33 445.69, 269.00 447.00 C 267.67 448.31, 266.33 449.67, 265.00 451.00 C 263.67 452.33, 262.31 453.67, 261.00 455.00 C 259.69 456.33, 258.33 457.67, 257.13 459.00 C 255.92 460.33, 254.91 461.67, 253.76 463.00 C 252.61 464.33, 251.38 465.67, 250.24 467.00 C 249.10 468.33, 248.03 469.67, 246.93 471.00 C 245.83 472.33, 244.68 473.67, 243.64 475.00 C 242.61 476.33, 241.64 477.67, 240.70 479.00 C 239.76 480.33, 238.89 481.67, 238.00 483.00 C 237.11 484.33, 236.20 485.67, 235.34 487.00 C 234.47 488.33, 233.62 489.67, 232.80 491.00 C 231.98 492.33, 231.17 493.67, 230.41 495.00 C 229.65 496.33, 228.95 497.67, 228.25 499.00 C 227.56 500.33, 226.92 501.67, 226.25 503.00 C 225.58 504.33, 224.89 505.67, 224.25 507.00 C 223.62 508.33, 222.97 509.67, 222.42 511.00 C 221.88 512.33, 221.46 513.67, 221.00 515.00 C 220.54 516.33, 220.09 517.67, 219.67 519.00 C 219.24 520.33, 218.79 521.67, 218.45 523.00 C 218.10 524.33, 217.88 525.67, 217.60 527.00 C 217.33 528.33, 217.05 529.67, 216.81 531.00 C 216.56 532.33, 216.26 533.67, 216.13 535.00 C 215.99 536.33, 216.02 537.67, 216.00 539.00 C 215.98 540.33, 216.00 541.67, 216.00 543.00 C 216.00 544.33, 215.98 545.67, 216.00 547.00 C 216.02 548.33, 216.00 549.67, 216.13 551.00 C 216.25 552.33, 216.56 553.67, 216.77 555.00 C 216.99 556.33, 217.15 557.67, 217.42 559.00 C 217.70 560.33, 218.03 561.67, 218.41 563.00 C 218.79 564.33, 219.21 565.67, 219.68 567.00 C 220.16 568.33, 220.71 569.67, 221.28 571.00 C 221.84 572.33, 222.44 573.67, 223.09 575.00 C 223.74 576.33, 224.46 577.67, 225.18 579.00 C 225.91 580.33, 226.60 581.67, 227.43 583.00 C 228.25 584.33, 229.18 585.67, 230.14 587.00 C 231.10 588.33, 232.15 589.67, 233.20 591.00 C 234.24 592.33, 235.28 593.67, 236.42 595.00 C 237.55 596.33, 238.79 597.67, 240.02 599.00 C 241.24 600.33, 242.95 601.71, 243.77 602.99 C 244.58 604.27, 245.23 605.71, 244.93 606.67 C 244.63 607.64, 243.13 608.27, 241.97 608.80 C 240.82 609.33, 239.33 609.51, 238.00 609.88 C 236.67 610.25, 235.33 610.63, 234.00 611.00 C 232.67 611.37, 231.33 611.77, 230.00 612.12 C 228.67 612.47, 227.33 612.81, 226.00 613.12 C 224.67 613.43, 223.33 613.72, 222.00 614.00 C 220.67 614.27, 219.33 614.54, 218.00 614.77 C 216.67 615.01, 215.33 615.20, 214.00 615.40 C 212.67 615.61, 211.33 615.80, 210.00 616.00 C 208.67 616.20, 207.33 616.43, 206.00 616.59 C 204.67 616.75, 203.33 616.88, 202.00 616.99 C 200.67 617.10, 199.33 617.10, 198.00 617.25 C 196.67 617.39, 195.33 617.75, 194.00 617.87 C 192.67 618.00, 191.33 617.98, 190.00 618.00 C 188.67 618.02, 187.33 618.00, 186.00 618.00 C 184.67 618.00, 183.33 618.00, 182.00 618.00 C 180.67 618.00, 179.33 618.00, 178.00 618.00 C 176.67 618.00, 175.33 618.00, 174.00 618.00 C 172.67 618.00, 171.33 618.05, 170.00 617.98 C 168.67 617.91, 167.33 617.75, 166.00 617.59 C 164.67 617.44, 163.33 617.19, 162.00 617.05 C 160.67 616.91, 159.33 616.92, 158.00 616.75 C 156.67 616.59, 155.33 616.30, 154.00 616.07 C 152.67 615.84, 151.33 615.64, 150.00 615.39 C 148.67 615.14, 147.33 614.89, 146.00 614.59 C 144.67 614.29, 143.33 613.95, 142.00 613.59 C 140.67 613.23, 139.33 612.79, 138.00 612.41 C 136.67 612.03, 135.33 611.70, 134.00 611.30 C 132.67 610.89, 131.33 610.45, 130.00 609.96 C 128.67 609.48, 127.33 608.94, 126.00 608.39 C 124.67 607.85, 123.33 607.34, 122.00 606.71 C 120.67 606.07, 119.33 605.34, 118.00 604.59 C 116.67 603.84, 115.33 603.02, 114.00 602.20 C 112.67 601.38, 111.33 600.55, 110.00 599.66 C 108.67 598.77, 107.33 597.85, 106.00 596.86 C 104.67 595.88, 103.33 594.89, 102.00 593.75 C 100.67 592.60, 99.32 591.29, 98.00 589.99 C 96.68 588.70, 95.28 587.33, 94.05 586.00 C 92.83 584.67, 91.70 583.33, 90.65 582.00 C 89.59 580.67, 88.62 579.33, 87.72 578.00 C 86.81 576.67, 86.02 575.33, 85.20 574.00 C 84.39 572.67, 83.57 571.33, 82.84 570.00 C 82.11 568.67, 81.44 567.33, 80.84 566.00 C 80.23 564.67, 79.72 563.33, 79.20 562.00 C 78.68 560.67, 78.15 559.33, 77.72 558.00 C 77.29 556.67, 76.98 555.33, 76.63 554.00 C 76.28 552.67, 75.96 551.33, 75.63 550.00 C 75.30 548.67, 74.93 547.33, 74.64 546.00 C 74.36 544.67, 74.16 543.33, 73.93 542.00 C 73.70 540.67, 73.40 539.33, 73.25 538.00 C 73.09 536.67, 73.05 535.33, 73.01 534.00 C 72.96 532.67, 73.00 531.33, 73.00 530.00 C 73.00 528.67, 72.99 527.33, 73.00 526.00 C 73.01 524.67, 72.96 523.33, 73.05 522.00 C 73.15 520.67, 73.43 519.33, 73.59 518.00 C 73.75 516.67, 73.86 515.33, 74.03 514.00 C 74.20 512.67, 74.38 511.33, 74.61 510.00 C 74.84 508.67, 75.12 507.33, 75.41 506.00 C 75.70 504.67, 76.04 503.33, 76.37 502.00 C 76.71 500.67, 77.03 499.33, 77.41 498.00 C 77.79 496.67, 78.24 495.33, 78.67 494.00 C 79.10 492.67, 79.54 491.33, 80.00 490.00 C 80.46 488.67, 80.91 487.33, 81.41 486.00 C 81.91 484.67, 82.45 483.33, 83.00 482.00 C 83.56 480.67, 84.14 479.33, 84.76 478.00 C 85.39 476.67, 86.09 475.33, 86.75 474.00 C 87.41 472.67, 88.08 471.33, 88.75 470.00 C 89.42 468.67, 90.06 467.33, 90.76 466.00 C 91.47 464.67, 92.23 463.33, 93.00 462.00 C 93.78 460.67, 94.58 459.33, 95.41 458.00 C 96.24 456.67, 97.12 455.33, 98.00 454.00 C 98.88 452.67, 99.77 451.33, 100.67 450.00 C 101.57 448.67, 102.45 447.33, 103.41 446.00 C 104.37 444.67, 105.36 443.33, 106.42 442.00 C 107.48 440.67, 108.67 439.33, 109.77 438.00 C 110.88 436.67, 111.97 435.33, 113.07 434.00 C 114.18 432.67, 115.26 431.33, 116.41 430.00 C 117.57 428.67, 118.80 427.33, 120.00 426.00 C 121.20 424.67, 122.42 423.33, 123.59 422.00 C 124.77 420.67, 125.82 419.33, 127.05 418.00 C 128.29 416.67, 129.68 415.33, 131.00 414.00 C 132.32 412.67, 133.67 411.31, 135.00 410.00 C 136.33 408.69, 137.67 407.33, 139.00 406.13 C 140.33 404.92, 141.67 403.94, 143.00 402.75 C 144.33 401.57, 145.67 400.25, 147.00 399.00 C 148.33 397.75, 149.67 396.42, 151.00 395.25 C 152.33 394.07, 153.67 393.04, 155.00 391.93 C 156.33 390.82, 157.67 389.71, 159.00 388.60 C 160.33 387.48, 161.67 386.31, 163.00 385.23 C 164.33 384.15, 165.67 383.16, 167.00 382.12 C 168.33 381.08, 169.67 380.04, 171.00 379.00 C 172.33 377.96, 173.67 376.88, 175.00 375.88 C 176.33 374.88, 177.67 373.96, 179.00 373.00 C 180.33 372.04, 181.67 371.08, 183.00 370.13 C 184.33 369.18, 185.67 368.26, 187.00 367.30 C 188.33 366.35, 189.67 365.35, 191.00 364.41 C 192.33 363.47, 193.67 362.55, 195.00 361.68 C 196.33 360.81, 197.67 360.04, 199.00 359.20 C 200.33 358.36, 201.67 357.53, 203.00 356.66 C 204.33 355.80, 205.67 354.88, 207.00 354.00 C 208.33 353.13, 209.67 352.25, 211.00 351.41 C 212.33 350.57, 213.67 349.80, 215.00 348.97 C 216.33 348.13, 217.67 347.24, 219.00 346.41 C 220.33 345.58, 221.67 344.80, 223.00 344.00 C 224.33 343.20, 225.67 342.40, 227.00 341.60 C 228.33 340.80, 229.67 340.00, 231.00 339.20 C 232.33 338.40, 233.67 337.60, 235.00 336.80 C 236.33 336.00, 237.67 335.19, 239.00 334.40 C 240.33 333.60, 241.67 332.74, 243.00 332.01 C 244.33 331.27, 245.67 330.28, 247.00 329.99 Z M 359.00 266.99 C 359.83 266.83, 361.67 266.17, 363.00 266.51 C 364.33 266.86, 365.70 268.00, 366.99 269.08 C 368.29 270.16, 369.57 271.68, 370.75 273.00 C 371.94 274.32, 372.92 275.67, 374.13 277.00 C 375.33 278.33, 376.69 279.67, 378.00 281.00 C 379.31 282.33, 380.67 283.67, 382.00 285.00 C 383.33 286.33, 384.67 287.67, 386.00 289.00 C 387.33 290.33, 388.67 291.67, 390.00 293.00 C 391.33 294.33, 392.67 295.67, 394.00 297.00 C 395.33 298.33, 396.67 299.67, 398.00 301.00 C 399.33 302.33, 400.67 303.67, 402.00 305.00 C 403.33 306.33, 404.67 307.67, 406.00 309.00 C 407.33 310.33, 408.67 311.67, 410.00 313.00 C 411.33 314.33, 412.68 315.67, 414.00 317.00 C 415.32 318.33, 416.71 319.67, 417.95 321.00 C 419.18 322.33, 420.23 323.67, 421.41 325.00 C 422.59 326.33, 423.84 327.67, 425.01 329.00 C 426.19 330.33, 427.89 331.73, 428.47 332.98 C 429.04 334.24, 429.04 335.49, 428.47 336.53 C 427.89 337.57, 426.24 338.34, 424.99 339.20 C 423.75 340.06, 422.33 340.84, 421.00 341.68 C 419.67 342.51, 418.33 343.38, 417.00 344.20 C 415.67 345.02, 414.33 345.80, 413.00 346.60 C 411.67 347.40, 410.33 348.20, 409.00 349.00 C 407.67 349.80, 406.33 350.58, 405.00 351.41 C 403.67 352.24, 402.33 353.13, 401.00 353.97 C 399.67 354.80, 398.33 355.59, 397.00 356.40 C 395.67 357.20, 394.33 357.98, 393.00 358.80 C 391.67 359.62, 390.33 360.49, 389.00 361.32 C 387.67 362.16, 386.33 362.98, 385.00 363.80 C 383.67 364.61, 382.33 365.39, 381.00 366.20 C 379.67 367.02, 378.33 367.84, 377.00 368.68 C 375.67 369.51, 374.33 370.37, 373.00 371.20 C 371.67 372.03, 370.33 372.83, 369.00 373.68 C 367.67 374.53, 366.33 375.47, 365.00 376.32 C 363.67 377.17, 362.33 377.96, 361.00 378.80 C 359.67 379.64, 358.33 380.51, 357.00 381.34 C 355.67 382.17, 354.31 383.33, 353.00 383.79 C 351.69 384.24, 350.30 384.53, 349.13 384.06 C 347.97 383.59, 346.99 382.15, 346.02 380.97 C 345.05 379.80, 344.23 378.33, 343.33 377.00 C 342.44 375.67, 341.59 374.33, 340.66 373.00 C 339.74 371.67, 338.79 370.33, 337.79 369.00 C 336.79 367.67, 335.68 366.33, 334.64 365.00 C 333.60 363.67, 332.66 362.33, 331.57 361.00 C 330.48 359.67, 329.24 358.33, 328.11 357.00 C 326.97 355.67, 325.92 354.33, 324.76 353.00 C 323.59 351.67, 322.29 350.33, 321.12 349.00 C 319.95 347.67, 318.94 346.33, 317.75 345.00 C 316.57 343.67, 315.29 342.33, 313.99 341.00 C 312.70 339.67, 311.33 338.31, 310.00 337.00 C 308.67 335.69, 307.33 334.33, 306.00 333.13 C 304.67 331.92, 303.33 330.93, 302.00 329.75 C 300.67 328.57, 299.33 327.24, 298.00 326.05 C 296.67 324.85, 295.33 323.75, 294.00 322.59 C 292.67 321.44, 291.33 320.24, 290.00 319.11 C 288.67 317.98, 287.25 316.89, 286.01 315.81 C 284.76 314.72, 283.11 313.68, 282.53 312.59 C 281.96 311.50, 281.96 310.28, 282.53 309.28 C 283.11 308.29, 284.76 307.44, 286.01 306.61 C 287.25 305.78, 288.67 305.03, 290.00 304.29 C 291.33 303.55, 292.67 302.91, 294.00 302.16 C 295.33 301.42, 296.67 300.57, 298.00 299.84 C 299.33 299.10, 300.67 298.43, 302.00 297.75 C 303.33 297.07, 304.67 296.44, 306.00 295.75 C 307.33 295.05, 308.67 294.33, 310.00 293.59 C 311.33 292.85, 312.67 292.01, 314.00 291.29 C 315.33 290.57, 316.67 289.94, 318.00 289.25 C 319.33 288.56, 320.67 287.90, 322.00 287.16 C 323.33 286.43, 324.67 285.57, 326.00 284.84 C 327.33 284.10, 328.67 283.45, 330.00 282.75 C 331.33 282.04, 332.67 281.33, 334.00 280.59 C 335.33 279.85, 336.67 279.01, 338.00 278.29 C 339.33 277.57, 340.67 276.94, 342.00 276.25 C 343.33 275.56, 344.67 274.90, 346.00 274.16 C 347.33 273.43, 348.67 272.58, 350.00 271.84 C 351.33 271.09, 352.67 270.44, 354.00 269.71 C 355.33 268.98, 357.17 267.93, 358.00 267.47 C 358.83 267.02, 358.17 267.15, 359.00 266.99 Z M 400.00 62.61 C 400.83 62.48, 402.67 62.16, 404.00 62.05 C 405.33 61.95, 406.67 62.01, 408.00 62.00 C 409.33 61.99, 410.67 62.00, 412.00 62.00 C 413.33 62.00, 414.67 62.00, 416.00 62.00 C 417.33 62.00, 418.67 61.98, 420.00 62.00 C 421.33 62.02, 422.67 61.99, 424.00 62.13 C 425.33 62.26, 426.67 62.56, 428.00 62.81 C 429.33 63.06, 430.67 63.34, 432.00 63.64 C 433.33 63.94, 434.67 64.26, 436.00 64.63 C 437.33 65.00, 438.67 65.37, 440.00 65.84 C 441.33 66.30, 442.67 66.84, 444.00 67.41 C 445.33 67.98, 446.67 68.59, 448.00 69.26 C 449.33 69.93, 450.67 70.63, 452.00 71.42 C 453.33 72.22, 454.67 73.07, 456.00 74.02 C 457.33 74.97, 458.67 75.97, 460.00 77.13 C 461.33 78.30, 462.72 79.69, 463.98 81.00 C 465.24 82.31, 466.48 83.67, 467.57 85.00 C 468.66 86.33, 469.64 87.67, 470.50 89.00 C 471.36 90.33, 472.06 91.67, 472.74 93.00 C 473.42 94.33, 474.04 95.67, 474.58 97.00 C 475.12 98.33, 475.58 99.67, 475.98 101.00 C 476.38 102.33, 476.70 103.67, 476.99 105.00 C 477.29 106.33, 477.59 107.67, 477.75 109.00 C 477.92 110.33, 477.95 111.67, 477.99 113.00 C 478.04 114.33, 478.02 115.67, 478.00 117.00 C 477.98 118.33, 478.01 119.67, 477.87 121.00 C 477.74 122.33, 477.44 123.67, 477.19 125.00 C 476.94 126.33, 476.68 127.67, 476.36 129.00 C 476.04 130.33, 475.71 131.67, 475.28 133.00 C 474.86 134.33, 474.32 135.67, 473.80 137.00 C 473.28 138.33, 472.76 139.67, 472.16 141.00 C 471.57 142.33, 470.93 143.67, 470.23 145.00 C 469.53 146.33, 468.78 147.67, 467.96 149.00 C 467.14 150.33, 466.23 151.67, 465.33 153.00 C 464.43 154.33, 463.54 155.67, 462.55 157.00 C 461.56 158.33, 460.49 159.67, 459.39 161.00 C 458.29 162.33, 457.18 163.67, 455.95 165.00 C 454.71 166.33, 453.32 167.67, 452.00 169.00 C 450.68 170.33, 449.33 171.68, 448.00 173.00 C 446.67 174.32, 445.33 175.71, 444.00 176.95 C 442.67 178.18, 441.33 179.27, 440.00 180.40 C 438.67 181.54, 437.33 182.67, 436.00 183.77 C 434.67 184.87, 433.33 185.94, 432.00 187.00 C 430.67 188.06, 429.33 189.12, 428.00 190.12 C 426.67 191.12, 425.33 192.04, 424.00 193.00 C 422.67 193.96, 421.33 194.92, 420.00 195.87 C 418.67 196.81, 417.33 197.75, 416.00 198.66 C 414.67 199.57, 413.33 200.44, 412.00 201.33 C 410.67 202.22, 409.33 203.12, 408.00 204.00 C 406.67 204.88, 405.33 205.75, 404.00 206.59 C 402.67 207.43, 401.33 208.20, 400.00 209.03 C 398.67 209.87, 397.33 210.76, 396.00 211.59 C 394.67 212.42, 393.33 213.20, 392.00 214.00 C 390.67 214.80, 389.33 215.61, 388.00 216.39 C 386.67 217.18, 385.33 217.96, 384.00 218.73 C 382.67 219.49, 381.33 220.25, 380.00 221.00 C 378.67 221.75, 377.33 222.63, 376.00 223.21 C 374.67 223.79, 373.28 224.56, 372.02 224.49 C 370.76 224.42, 369.54 223.70, 368.43 222.79 C 367.32 221.87, 366.38 220.30, 365.37 219.00 C 364.37 217.70, 363.37 216.33, 362.37 215.00 C 361.37 213.67, 360.37 212.33, 359.37 211.00 C 358.38 209.67, 357.36 208.33, 356.41 207.00 C 355.46 205.67, 354.54 204.33, 353.68 203.00 C 352.83 201.67, 352.04 200.33, 351.29 199.00 C 350.54 197.67, 349.91 196.33, 349.16 195.00 C 348.42 193.67, 347.57 192.33, 346.84 191.00 C 346.10 189.67, 345.42 188.33, 344.75 187.00 C 344.09 185.67, 343.41 184.33, 342.84 183.00 C 342.27 181.67, 341.83 180.33, 341.32 179.00 C 340.82 177.67, 340.29 176.33, 339.80 175.00 C 339.32 173.67, 338.82 172.33, 338.41 171.00 C 338.01 169.67, 337.71 168.33, 337.37 167.00 C 337.03 165.67, 336.70 164.33, 336.37 163.00 C 336.05 161.67, 335.67 160.33, 335.43 159.00 C 335.18 157.67, 335.09 156.33, 334.89 155.00 C 334.70 153.67, 334.39 152.33, 334.25 151.00 C 334.10 149.67, 334.05 148.33, 334.01 147.00 C 333.96 145.67, 334.00 144.33, 334.00 143.00 C 334.00 141.67, 333.96 140.33, 334.01 139.00 C 334.05 137.67, 334.10 136.33, 334.25 135.00 C 334.39 133.67, 334.70 132.33, 334.89 131.00 C 335.09 129.67, 335.18 128.33, 335.43 127.00 C 335.67 125.67, 336.04 124.33, 336.37 123.00 C 336.71 121.67, 337.03 120.33, 337.41 119.00 C 337.80 117.67, 338.22 116.33, 338.68 115.00 C 339.15 113.67, 339.68 112.33, 340.20 111.00 C 340.73 109.67, 341.24 108.33, 341.84 107.00 C 342.43 105.67, 343.06 104.33, 343.77 103.00 C 344.47 101.67, 345.20 100.33, 346.05 99.00 C 346.91 97.67, 347.89 96.33, 348.88 95.00 C 349.88 93.67, 350.94 92.33, 352.00 91.00 C 353.06 89.67, 354.08 88.30, 355.25 87.01 C 356.41 85.71, 357.71 84.43, 359.01 83.25 C 360.30 82.07, 361.67 81.02, 363.00 79.93 C 364.33 78.84, 365.67 77.70, 367.00 76.72 C 368.33 75.74, 369.67 74.89, 371.00 74.04 C 372.33 73.18, 373.67 72.39, 375.00 71.61 C 376.33 70.82, 377.67 70.00, 379.00 69.33 C 380.33 68.66, 381.67 68.15, 383.00 67.61 C 384.33 67.06, 385.67 66.52, 387.00 66.04 C 388.33 65.55, 389.67 65.10, 391.00 64.70 C 392.33 64.30, 393.67 63.96, 395.00 63.64 C 396.33 63.32, 398.17 62.98, 399.00 62.81 C 399.83 62.64, 399.17 62.74, 400.00 62.61 Z" fill="#000000" fill-rule="evenodd"/>
</svg>